<?xml version="1.0" encoding="UTF-8"?>
<svg xmlns="http://www.w3.org/2000/svg" xmlns:xlink="http://www.w3.org/1999/xlink" version="1.2" >
<font id="Aovel Sans Light">
<font-face  font-family="Aovel Sans" units-per-em="2048" ascent="1610" descent="-363" font-style="normal" font-weight="400" font-stretch="normal" cap-height="1462" x-height="1053" underline-position="-205" underline-thickness="102" />
<missing-glyph  horiz-adv-x="1024" d="M102 1049 L922 1049 L922 0 L102 0 L102 1049 Z M905 16 L905 1032 L119 1032 L119 16 L905 16 Z " />
<glyph glyph-name="uni0001" unicode="&#x1;" d="" />
<glyph glyph-name="nonmarkingreturn" unicode="&#x2;" horiz-adv-x="569" d="" />
<glyph glyph-name="breve" unicode="&#x5;" horiz-adv-x="266" d="M-119 1497 Q-104 1401 -39 1339 Q27 1278 127 1278 Q233 1278 303 1337 Q373 1393 385 1497 L344 1497 Q334 1407 276 1364 Q217 1319 127 1319 Q45 1319 -8 1370 Q-63 1417 -78 1497 L-119 1497 Z " />
<glyph glyph-name="caron" unicode="&#x7;" horiz-adv-x="266" d="M-115 1497 L119 1212 L149 1212 L381 1497 L340 1497 L137 1245 L137 1245 L-74 1497 L-115 1497 Z " />
<glyph glyph-name="dotlessi" unicode="&#x11;" horiz-adv-x="266" d="M154 0 L154 1053 L113 1053 L113 0 L154 0 Z " />
<glyph glyph-name="dotaccent" unicode="&#x13;" horiz-adv-x="266" d="M113 1374 L113 1208 L154 1208 L154 1374 L113 1374 Z " />
<glyph glyph-name="hungarumlaut" unicode="&#x16;" horiz-adv-x="266" d="M178 1497 L-92 1202 L-61 1202 L238 1497 L178 1497 Z M485 1497 L215 1202 L246 1202 L545 1497 L485 1497 Z " />
<glyph glyph-name="ring" unicode="&#x1a;" horiz-adv-x="266" d="M313 1380 Q311 1456 260 1507 Q209 1558 133 1560 Q59 1558 8 1507 Q-16 1483 -31 1452 Q-47 1417 -47 1380 Q-45 1304 8 1253 Q59 1200 133 1200 Q209 1200 260 1253 Q311 1304 313 1380 L313 1380 Z M272 1380 Q272 1323 233 1284 Q192 1241 133 1241 Q76 1241 37 1284 Q-4 1323 -6 1380 Q-4 1440 37 1481 Q76 1520 133 1520 Q192 1520 233 1481 Q272 1440 272 1380 L272 1380 Z " />
<glyph glyph-name="ogonek" unicode="&#x1e;" horiz-adv-x="266" d="M166 0 Q94 -49 35 -115 Q6 -147 -12 -184 Q-31 -221 -33 -260 Q-33 -307 8 -346 Q45 -385 121 -387 Q170 -387 223 -369 Q272 -352 313 -307 L279 -283 Q260 -305 223 -326 Q184 -344 121 -346 Q66 -344 37 -317 Q8 -291 8 -258 Q4 -168 225 0 L166 0 Z " />
<glyph glyph-name="space" unicode="&#x20;" horiz-adv-x="569" d="" />
<glyph glyph-name="exclam" unicode="&#x21;" horiz-adv-x="379" d="M211 0 L211 201 L170 201 L170 0 L211 0 Z M211 373 L211 1462 L170 1462 L170 373 L211 373 Z " />
<glyph glyph-name="quotedbl" unicode="&#x22;" horiz-adv-x="569" d="M190 1462 L149 1462 L149 1001 L190 1001 L190 1462 Z M420 1462 L379 1462 L379 1001 L420 1001 L420 1462 Z " />
<glyph glyph-name="numbersign" unicode="&#x23;" horiz-adv-x="1139" d="M461 1393 L397 913 L129 913 L129 872 L387 872 L338 510 L72 510 L72 469 L328 469 L264 0 L305 0 L369 469 L721 469 L657 0 L698 0 L762 469 L1010 469 L1010 510 L770 510 L819 872 L1067 872 L1067 913 L829 913 L893 1393 L852 1393 L788 913 L438 913 L502 1393 L461 1393 Z M428 872 L778 872 L729 510 L379 510 L428 872 Z " />
<glyph glyph-name="dollar" unicode="&#x24;" horiz-adv-x="1139" d="M543 780 L543 780 Q457 801 379 823 Q299 844 236 881 Q174 917 135 975 Q96 1032 96 1120 Q96 1218 139 1284 Q178 1347 244 1384 Q381 1458 543 1456 L543 780 Z M12 485 Q14 223 160 100 Q305 -25 543 -33 L543 -215 L584 -215 L584 -35 Q780 -35 936 59 Q1096 154 1100 358 Q1100 473 1063 543 Q1022 612 954 651 Q887 692 797 719 Q704 743 600 766 L584 770 L584 1454 Q776 1454 899 1360 Q1020 1268 1030 1053 L1071 1053 Q1059 1288 926 1393 Q793 1495 584 1495 L584 1585 L543 1585 L543 1497 Q362 1501 215 1417 Q59 1331 55 1120 Q55 1018 100 950 Q141 883 213 844 Q285 805 371 780 Q455 758 543 737 L543 8 Q322 16 190 127 Q55 240 53 485 L12 485 Z M584 727 L584 727 Q668 711 752 690 Q833 668 903 631 Q975 594 1018 530 Q1059 465 1059 360 Q1055 174 907 90 Q764 6 584 6 L584 727 Z " />
<glyph glyph-name="percent" unicode="&#x25;" horiz-adv-x="1403" d="M772 322 Q772 461 838 547 Q901 633 1042 635 Q1184 633 1253 549 Q1319 465 1319 322 Q1319 195 1251 109 Q1182 18 1042 16 Q907 18 840 109 Q772 195 772 322 L772 322 Z M43 1063 Q43 924 119 823 Q195 719 354 717 Q508 719 592 821 Q672 919 672 1065 Q672 1221 592 1319 Q512 1415 354 1417 Q207 1415 125 1319 Q43 1223 43 1063 L43 1063 Z M84 1063 Q84 1202 149 1288 Q213 1374 354 1376 Q496 1374 565 1290 Q631 1206 631 1063 Q631 936 563 850 Q494 760 354 758 Q219 760 152 850 Q84 936 84 1063 L84 1063 Z M731 322 Q731 182 807 82 Q883 -20 1042 -25 Q1196 -23 1280 80 Q1360 178 1360 324 Q1360 479 1280 577 Q1200 674 1042 676 Q895 674 813 577 Q731 481 731 322 L731 322 Z M180 -70 L227 -70 L1202 1462 L1155 1462 L180 -70 Z " />
<glyph glyph-name="ampersand" unicode="&#x26;" horiz-adv-x="1175" d="M307 1194 Q309 1302 385 1362 Q459 1421 567 1421 Q674 1421 747 1362 Q821 1298 823 1190 Q823 1128 795 1075 Q762 1024 715 977 Q668 934 618 897 Q565 858 518 827 L518 827 Q305 1083 307 1194 L307 1194 Z M508 774 L909 270 Q854 156 756 82 Q655 6 508 6 Q360 6 250 90 Q133 170 131 328 Q131 414 168 481 Q203 547 258 598 Q377 700 508 774 L508 774 Z M956 272 Q1020 399 1018 567 L977 567 Q979 487 967 422 Q950 354 928 309 L928 309 L543 797 Q651 868 754 958 Q805 1005 836 1063 Q864 1118 864 1190 Q862 1321 778 1393 Q692 1462 565 1462 Q453 1462 362 1399 Q268 1331 266 1190 Q266 1141 291 1092 Q313 1040 346 991 Q420 893 483 807 Q418 768 350 723 Q283 678 223 618 Q94 504 90 328 Q92 158 223 63 Q348 -33 508 -35 Q666 -33 772 45 Q876 119 936 231 L936 231 L1118 0 L1171 0 L956 272 Z " />
<glyph glyph-name="quotesingle" unicode="&#x27;" horiz-adv-x="342" d="M152 1001 L192 1001 L192 1462 L152 1462 L152 1001 Z " />
<glyph glyph-name="parenleft" unicode="&#x28;" horiz-adv-x="455" d="M377 1497 Q141 1067 139 577 Q139 76 379 -362 L420 -362 Q180 78 180 577 Q182 1069 418 1497 L377 1497 Z " />
<glyph glyph-name="parenright" unicode="&#x29;" horiz-adv-x="455" d="M78 -362 Q313 68 315 557 Q315 1059 76 1497 L35 1497 Q272 1059 274 557 Q272 68 37 -362 L78 -362 Z " />
<glyph glyph-name="asterisk" unicode="&#x2a;" horiz-adv-x="721" d="M336 1462 L336 1175 L336 1175 L78 1264 L78 1264 L66 1225 L332 1137 L152 924 L184 897 L356 1110 L356 1110 L526 889 L559 913 L389 1137 L655 1225 L647 1264 L647 1264 L377 1175 L377 1175 L377 1462 L336 1462 Z " />
<glyph glyph-name="plus" unicode="&#x2b;" horiz-adv-x="1229" d="M594 539 L98 539 L98 498 L594 498 L594 0 L635 0 L635 498 L1130 498 L1130 539 L635 539 L635 1036 L594 1036 L594 539 Z " />
<glyph glyph-name="comma" unicode="&#x2c;" horiz-adv-x="569" d="M264 201 L264 0 Q264 -82 254 -129 Q242 -176 215 -203 L215 -244 L215 -244 Q307 -178 305 0 L305 201 L264 201 Z " />
<glyph glyph-name="hyphenminus" unicode="&#x2d;" horiz-adv-x="682" d="M162 528 L520 528 L520 569 L162 569 L162 528 Z " />
<glyph glyph-name="period" unicode="&#x2e;" horiz-adv-x="569" d="M305 201 L264 201 L264 0 L305 0 L305 201 Z " />
<glyph glyph-name="slash" unicode="&#x2f;" horiz-adv-x="682" d="M27 -35 L696 1497 L655 1497 L-14 -35 L27 -35 Z " />
<glyph glyph-name="zero" unicode="0" horiz-adv-x="1139" d="M1055 696 Q1055 582 1034 463 Q1012 342 956 242 Q901 141 807 82 Q713 16 569 16 Q428 16 334 82 Q240 141 184 242 Q129 342 109 463 Q84 582 84 696 Q84 815 109 936 Q129 1055 184 1153 Q240 1253 334 1315 Q428 1374 569 1376 Q850 1370 956 1153 Q1012 1055 1034 936 Q1055 815 1055 696 L1055 696 Z M1096 696 Q1098 971 983 1188 Q866 1411 569 1417 Q276 1411 158 1188 Q41 971 43 696 Q41 422 158 207 Q276 -18 569 -25 Q866 -18 983 207 Q1098 422 1096 696 L1096 696 Z " />
<glyph glyph-name="one" unicode="1" horiz-adv-x="1139" d="M610 0 L651 0 L651 1393 L606 1393 Q524 1296 440 1237 Q358 1178 236 1135 L236 1094 L236 1094 Q342 1124 442 1190 Q543 1253 606 1339 L610 1339 L610 0 Z " />
<glyph glyph-name="two" unicode="2" horiz-adv-x="1139" d="M154 41 Q174 174 303 287 Q432 395 596 504 Q762 612 885 743 Q1010 872 1014 1042 Q1012 1231 891 1325 Q770 1417 586 1417 Q141 1411 137 936 L178 936 Q178 1132 274 1253 Q371 1374 586 1376 Q756 1376 864 1292 Q971 1206 973 1042 Q969 883 844 758 Q717 633 551 524 Q473 471 395 416 Q317 358 252 295 Q190 233 152 162 Q115 88 113 0 L1051 0 L1051 41 L154 41 Z " />
<glyph glyph-name="three" unicode="3" horiz-adv-x="1139" d="M162 960 Q176 1376 596 1376 Q750 1376 866 1311 Q983 1243 991 1075 Q987 909 874 840 Q760 768 618 770 L518 770 L518 729 L618 729 Q795 725 905 643 Q1016 561 1018 385 Q1014 207 889 113 Q764 16 588 16 Q367 16 240 135 Q111 250 123 471 L82 471 Q72 233 211 106 Q348 -23 588 -25 Q784 -23 919 84 Q1057 190 1059 385 Q1057 565 958 651 Q862 737 733 747 L733 752 Q866 764 948 848 Q1030 928 1032 1075 Q1028 1261 899 1341 Q770 1417 596 1417 Q375 1417 250 1302 Q121 1188 121 960 L162 960 Z " />
<glyph glyph-name="four" unicode="4" horiz-adv-x="1139" d="M776 403 L111 403 L772 1335 L776 1335 L776 403 Z M776 362 L776 0 L817 0 L817 362 L1069 362 L1069 403 L817 403 L817 1393 L766 1393 L70 412 L70 362 L776 362 Z " />
<glyph glyph-name="five" unicode="5" horiz-adv-x="1139" d="M983 1352 L983 1393 L268 1393 L119 690 L170 690 Q299 901 559 903 Q762 901 881 780 Q997 659 999 463 Q989 27 559 16 Q354 16 233 131 Q115 244 117 446 L76 446 Q74 223 207 102 Q338 -23 559 -25 Q778 -23 909 111 Q1038 240 1040 463 Q1038 678 909 811 Q778 942 559 944 Q305 944 178 756 L174 756 L301 1352 L983 1352 Z " />
<glyph glyph-name="six" unicode="6" horiz-adv-x="1139" d="M1018 457 Q1016 270 891 145 Q766 18 577 16 Q391 18 266 145 Q139 270 137 457 Q139 645 266 770 Q391 895 577 897 Q766 895 891 770 Q1016 645 1018 457 L1018 457 Z M1034 1065 Q1012 1216 899 1315 Q786 1415 604 1417 Q305 1409 190 1169 Q78 934 80 657 Q78 524 98 408 Q115 287 172 195 Q225 111 332 45 Q434 -23 577 -25 Q778 -23 915 113 Q1055 246 1059 457 Q1055 676 909 807 Q766 936 577 938 Q408 936 285 838 Q158 739 123 588 L119 588 Q119 711 135 848 Q152 985 203 1104 Q254 1225 352 1300 Q451 1374 602 1376 Q715 1378 831 1317 Q889 1284 932 1223 Q973 1159 993 1065 L1034 1065 Z " />
<glyph glyph-name="seven" unicode="7" horiz-adv-x="1139" d="M969 1352 Q369 805 344 0 L385 0 Q387 414 559 737 Q727 1059 1014 1337 L1014 1393 L125 1393 L125 1352 L969 1352 Z " />
<glyph glyph-name="eight" unicode="8" horiz-adv-x="1139" d="M1034 389 Q1030 192 895 104 Q760 14 569 16 Q381 14 246 104 Q106 192 104 389 Q109 588 248 668 Q383 743 569 741 Q758 743 893 668 Q1030 588 1034 389 L1034 389 Z M719 768 Q842 784 924 866 Q1003 944 1005 1065 Q1003 1251 881 1335 Q756 1417 569 1417 Q383 1417 262 1335 Q135 1251 133 1065 Q135 944 217 866 Q297 784 420 768 L420 764 Q70 721 63 389 Q66 176 215 76 Q360 -25 569 -25 Q782 -25 926 76 Q1071 176 1075 389 Q1067 721 719 764 L719 768 Z M965 1065 Q960 919 838 852 Q717 782 569 782 Q424 782 303 852 Q246 885 211 940 Q174 991 174 1065 Q174 1153 209 1214 Q242 1276 297 1311 Q414 1376 569 1376 Q727 1376 844 1311 Q899 1276 934 1214 Q965 1153 965 1065 L965 1065 Z " />
<glyph glyph-name="nine" unicode="9" horiz-adv-x="1139" d="M104 328 Q127 176 240 78 Q352 -23 534 -25 Q688 -23 790 47 Q891 117 952 227 Q1063 461 1061 735 Q1061 872 1046 989 Q1026 1106 967 1198 Q913 1284 811 1350 Q707 1415 561 1417 Q365 1415 225 1282 Q82 1149 80 936 Q84 719 231 590 Q373 457 561 455 Q735 457 858 557 Q981 655 1016 805 L1020 805 Q1024 684 1008 549 Q989 412 938 293 Q887 174 790 96 Q692 18 537 16 Q485 16 426 31 Q367 47 311 80 Q195 143 145 328 L104 328 Z M1001 936 Q999 750 874 625 Q750 498 561 496 Q375 498 250 625 Q123 750 121 936 Q123 1124 250 1249 Q375 1374 561 1376 Q750 1374 874 1249 Q999 1124 1001 936 L1001 936 Z " />
<glyph glyph-name="colon" unicode="&#x3a;" horiz-adv-x="569" d="M305 0 L305 201 L264 201 L264 0 L305 0 Z M305 852 L305 1053 L264 1053 L264 852 L305 852 Z " />
<glyph glyph-name="semicolon" unicode="&#x3b;" horiz-adv-x="569" d="M305 201 L264 201 L264 0 Q264 -82 254 -129 Q242 -176 215 -203 L215 -244 L215 -244 Q307 -178 305 0 L305 201 Z M305 852 L305 1053 L264 1053 L264 852 L305 852 Z " />
<glyph glyph-name="less" unicode="&#x3c;" horiz-adv-x="1229" d="M1135 -16 L1135 27 L131 518 L1135 1010 L1135 1053 L1135 1053 L94 543 L94 494 L1135 -16 L1135 -16 Z " />
<glyph glyph-name="equal" unicode="&#x3d;" horiz-adv-x="1229" d="M1130 696 L1130 737 L98 737 L98 696 L1130 696 Z M1130 299 L1130 340 L98 340 L98 299 L1130 299 Z " />
<glyph glyph-name="greater" unicode="&#x3e;" horiz-adv-x="1229" d="M94 27 L94 -16 L94 -16 L1135 494 L1135 543 L94 1053 L94 1053 L94 1010 L1098 518 L94 27 Z " />
<glyph glyph-name="question" unicode="&#x3f;" horiz-adv-x="1024" d="M113 1010 Q106 1212 211 1333 Q313 1454 516 1456 Q676 1456 778 1380 Q876 1302 879 1157 Q876 1081 854 1022 Q829 960 790 917 Q756 874 723 848 Q690 819 676 807 Q565 700 520 604 Q473 508 475 373 L516 373 Q516 518 563 604 Q610 690 719 790 Q747 815 782 848 Q815 879 846 922 Q876 965 899 1024 Q919 1081 919 1157 Q917 1321 805 1409 Q690 1497 516 1497 Q299 1495 184 1362 Q68 1229 72 1010 L113 1010 Z M516 0 L516 201 L475 201 L475 0 L516 0 Z " />
<glyph glyph-name="at" unicode="&#x40;" horiz-adv-x="1638" d="M999 557 Q973 485 936 436 Q899 387 856 360 Q768 309 684 311 Q575 311 508 387 Q438 457 438 567 Q440 752 561 930 Q620 1014 700 1067 Q778 1118 874 1118 Q958 1118 1036 1081 Q1114 1040 1145 934 L999 557 Z M1167 985 L1163 985 Q1151 1028 1124 1061 Q1096 1092 1059 1114 Q981 1159 883 1159 Q776 1157 686 1104 Q598 1049 532 960 Q399 772 397 567 Q397 442 479 358 Q557 270 676 270 Q752 268 825 297 Q897 324 954 399 L958 399 Q950 342 985 307 Q1020 270 1079 270 Q1239 272 1376 440 Q1515 600 1522 842 Q1515 1130 1329 1292 Q1141 1456 858 1458 Q547 1454 336 1251 Q121 1049 117 723 Q123 338 352 156 Q573 -25 858 -25 Q1268 -14 1499 340 L1452 340 Q1405 272 1343 215 Q1280 156 1202 113 Q1126 70 1040 43 Q954 16 858 16 Q571 16 369 197 Q162 375 158 723 Q160 1020 360 1214 Q555 1413 858 1417 Q1132 1415 1307 1259 Q1479 1102 1481 842 Q1472 612 1345 465 Q1218 313 1083 311 Q1003 311 999 377 Q995 438 1032 530 L1259 1120 L1216 1120 L1167 985 Z " />
<glyph glyph-name="A" unicode="A" horiz-adv-x="1178" d="M233 522 L594 1421 L598 1421 L946 522 L233 522 Z M962 481 L1155 0 L1200 0 L623 1462 L569 1462 L-25 0 L23 0 L217 481 L962 481 Z " />
<glyph glyph-name="B" unicode="B" horiz-adv-x="1251" d="M137 741 L725 741 Q889 741 1012 666 Q1137 586 1141 395 Q1139 217 1020 129 Q901 41 719 41 L137 41 L137 741 Z M96 0 L700 0 Q915 0 1049 102 Q1180 201 1182 397 Q1180 567 1077 661 Q975 756 827 760 L827 764 Q965 778 1051 870 Q1135 962 1137 1098 Q1135 1282 1018 1374 Q903 1462 725 1462 L96 1462 L96 0 Z M137 1421 L725 1421 Q887 1421 991 1343 Q1094 1264 1096 1098 Q1094 942 985 862 Q876 782 725 782 L137 782 L137 1421 Z " />
<glyph glyph-name="C" unicode="C" horiz-adv-x="1403" d="M1315 573 Q1282 326 1130 170 Q977 8 713 6 Q416 10 256 223 Q92 430 92 719 Q90 965 238 1202 Q313 1315 438 1384 Q561 1454 739 1456 Q981 1452 1124 1321 Q1268 1192 1282 1024 L1323 1024 Q1321 1171 1175 1329 Q1032 1491 739 1497 Q371 1489 211 1243 Q49 1001 51 719 Q53 385 238 178 Q418 -31 713 -35 Q991 -33 1155 137 Q1319 301 1356 573 L1315 573 Z " />
<glyph glyph-name="D" unicode="D" horiz-adv-x="1327" d="M111 0 L559 0 Q833 0 1036 170 Q1241 342 1245 731 Q1243 948 1190 1092 Q1137 1231 1044 1313 Q954 1395 844 1431 Q735 1462 623 1462 L111 1462 L111 0 Z M152 1421 L612 1421 Q725 1421 829 1393 Q936 1360 1020 1282 Q1104 1206 1155 1071 Q1180 1003 1192 922 Q1204 836 1204 731 Q1200 379 1018 211 Q838 41 569 41 L152 41 L152 1421 Z " />
<glyph glyph-name="E" unicode="E" horiz-adv-x="1100" d="M152 741 L1026 741 L1026 782 L152 782 L152 1421 L1081 1421 L1081 1462 L111 1462 L111 0 L1089 0 L1089 41 L152 41 L152 741 Z " />
<glyph glyph-name="F" unicode="F" horiz-adv-x="985" d="M152 1421 L1012 1421 L1012 1462 L111 1462 L111 0 L152 0 L152 741 L930 741 L930 782 L152 782 L152 1421 Z " />
<glyph glyph-name="G" unicode="G" horiz-adv-x="1479" d="M1339 567 Q1337 601 1322.5 622.5 Q1308 644 1268 643 L772 643 L772 684 L1271 684 Q1315 685 1342 660 Q1369 635 1379 590.5 Q1389 546 1381.5 486.5 Q1374 427 1349 359 Q1200 -29 752 -35 Q414 -31 240 190 Q66 408 66 731 Q68 1063 250 1276 Q428 1493 752 1497 Q1266 1487 1358 1005 L1317 1005 Q1223 1446 752 1456 Q444 1452 276 1243 Q106 1038 106 731 Q106 426 272 221 Q315 172 367 133 Q416 94 477 66 Q598 6 758 6 Q1005 8 1171 166 Q1335 322 1339 567 Z " />
<glyph glyph-name="H" unicode="H" horiz-adv-x="1327" d="M1175 741 L1175 0 L1216 0 L1216 1462 L1175 1462 L1175 782 L152 782 L152 1462 L111 1462 L111 0 L152 0 L152 741 L1175 741 Z " />
<glyph glyph-name="I" unicode="I" horiz-adv-x="262" d="M111 0 L152 0 L152 1462 L111 1462 L111 0 Z " />
<glyph glyph-name="J" unicode="J" horiz-adv-x="948" d="M786 412 Q786 186 694 94 Q602 4 426 6 Q80 6 78 365 L78 453 L37 453 L37 365 Q35 192 129 80 Q223 -33 426 -35 Q645 -33 737 82 Q827 197 827 381 L827 1462 L786 1462 L786 412 Z " />
<glyph glyph-name="K" unicode="K" horiz-adv-x="1214" d="M152 518 L152 0 L111 0 L111 1462 L152 1462 L152 573 L1165 1462 L1227 1462 L520 840 Q592 717 663.5 605.5 Q735 494 817 393.5 Q899 293 996 202.5 Q1093 112 1216 31 L1212 0 Q1079 76 975.5 170 Q872 264 786.5 369 Q701 474 629 587 Q557 700 487 815 L152 518 Z " />
<glyph glyph-name="L" unicode="L" horiz-adv-x="985" d="M152 41 L152 1462 L111 1462 L111 0 L1005 0 L1005 41 L152 41 Z " />
<glyph glyph-name="M" unicode="M" horiz-adv-x="1597" d="M801 53 L797 53 L178 1462 L111 1462 L111 0 L152 0 L152 1411 L156 1411 L776 0 L821 0 L1442 1411 L1446 1411 L1446 0 L1487 0 L1487 1462 L1419 1462 L801 53 Z " />
<glyph glyph-name="N" unicode="N" horiz-adv-x="1327" d="M111 0 L152 0 L152 1411 L156 1411 L1155 0 L1216 0 L1216 1462 L1175 1462 L1175 51 L1171 51 L172 1462 L111 1462 L111 0 Z " />
<glyph glyph-name="O" unicode="O" horiz-adv-x="1477" d="M106 731 Q113 1055 279 1253 Q442 1452 739 1456 Q1036 1452 1202 1253 Q1368 1055 1372 731 Q1368 410 1202 211 Q1036 8 739 6 Q442 8 279 211 Q113 410 106 731 L106 731 Z M66 731 Q66 412 240 195 Q410 -31 739 -35 Q1069 -31 1243 195 Q1413 412 1413 731 Q1413 1055 1243 1272 Q1069 1493 739 1497 Q410 1493 240 1272 Q66 1055 66 731 L66 731 Z " />
<glyph glyph-name="P" unicode="P" horiz-adv-x="1175" d="M152 1421 L702 1421 Q1106 1417 1106 1063 Q1104 893 991 801 Q879 707 702 707 L152 707 L152 1421 Z M152 666 L682 666 Q889 666 1018 768 Q1145 870 1147 1063 Q1141 1460 702 1462 L111 1462 L111 0 L152 0 L152 666 Z " />
<glyph glyph-name="Q" unicode="Q" horiz-adv-x="1477" d="M1132 143 Q977 6 739 6 Q442 8 279 211 Q113 410 106 731 Q113 1055 279 1253 Q442 1452 739 1456 Q1036 1452 1202 1253 Q1368 1055 1372 731 Q1366 369 1161 170 L1161 170 L897 352 L897 352 L874 319 L1132 143 Z M1169 119 L1411 -45 L1431 -16 L1196 145 Q1413 371 1413 731 Q1413 1055 1243 1272 Q1069 1493 739 1497 Q410 1493 240 1272 Q66 1055 66 731 Q66 412 240 195 Q410 -31 739 -35 Q1005 -33 1169 119 L1169 119 Z " />
<glyph glyph-name="R" unicode="R" horiz-adv-x="1251" d="M152 727 L698 727 Q866 727 989 815 Q1112 903 1114 1092 Q1124 1415 719 1421 L152 1421 L152 727 Z M152 0 L111 0 L111 1462 L709 1462 Q1153 1462 1155 1087 Q1155 788 842 711 L842 707 Q936 694 993 664 Q1051 633 1079 580 Q1132 477 1142 238.5 Q1152 0 1238 52 L1236 3 Q1112 -36 1103 226.5 Q1094 489 1024 588 Q948 684 702 686 L152 686 L152 0 Z " />
<glyph glyph-name="S" unicode="S" horiz-adv-x="1251" d="M1128 1053 Q1114 1296 975 1399 Q831 1499 612 1497 Q526 1497 438 1481 Q348 1462 276 1419 Q205 1376 160 1302 Q113 1231 113 1120 Q113 1014 158 948 Q199 881 270 842 Q342 803 428 780 Q514 756 604 735 Q692 717 782 696 Q870 676 946 639 Q1022 604 1069 537 Q1116 471 1116 360 Q1112 174 965 90 Q821 6 641 6 Q405 4 260 117 Q113 227 111 485 L70 485 Q72 211 229 88 Q387 -35 641 -35 Q838 -35 993 59 Q1153 154 1157 358 Q1157 473 1120 543 Q1079 612 1012 651 Q944 692 854 719 Q762 743 657 766 Q565 790 475 813 Q385 833 313 868 Q242 905 199 965 Q154 1022 154 1120 Q154 1218 199 1286 Q240 1350 307 1386 Q448 1458 612 1456 Q817 1458 946 1368 Q1077 1276 1087 1053 L1128 1053 Z " />
<glyph glyph-name="T" unicode="T" horiz-adv-x="1024" d="M491 1421 L491 0 L532 0 L532 1421 L1059 1421 L1059 1462 L-35 1462 L-35 1421 L491 1421 Z " />
<glyph glyph-name="U" unicode="U" horiz-adv-x="1294" d="M1143 545 Q1143 10 647 6 Q149 10 152 545 L152 1462 L111 1462 L111 545 Q115 -35 647 -35 Q1178 -35 1184 545 L1184 1462 L1143 1462 L1143 545 Z " />
<glyph glyph-name="V" unicode="V" horiz-adv-x="1102" d="M561 53 L557 53 L4 1462 L-37 1462 L537 0 L582 0 L1139 1462 L1098 1462 L561 53 Z " />
<glyph glyph-name="W" unicode="W" horiz-adv-x="1782" d="M1354 51 L1350 51 L922 1462 L862 1462 L440 51 L436 51 L23 1462 L-20 1462 L412 0 L467 0 L889 1411 L893 1411 L1323 0 L1378 0 L1802 1462 L1761 1462 L1354 51 Z " />
<glyph glyph-name="X" unicode="X" horiz-adv-x="1065" d="M534 784 L534 784 L29 1462 L-25 1462 L508 752 L-55 0 L-4 0 L534 719 L534 719 L1069 0 L1120 0 L563 752 L1096 1462 L1044 1462 L534 784 Z " />
<glyph glyph-name="Y" unicode="Y" horiz-adv-x="1102" d="M551 659 L551 659 L-10 1462 L-61 1462 L530 616 L530 0 L571 0 L571 616 L1163 1462 L1114 1462 L551 659 Z " />
<glyph glyph-name="Z" unicode="Z" horiz-adv-x="1024" d="M2 41 L1024 1407 L1024 1462 L18 1462 L18 1421 L983 1421 L-39 55 L-39 0 L1040 0 L1040 41 L2 41 Z " />
<glyph glyph-name="bracketleft" unicode="&#x5b;" horiz-adv-x="455" d="M197 1497 L197 -362 L428 -362 L428 -321 L238 -321 L238 1456 L428 1456 L428 1497 L197 1497 Z " />
<glyph glyph-name="backslash" unicode="&#x5c;" horiz-adv-x="682" d="M696 -35 L27 1497 L-14 1497 L655 -35 L696 -35 Z " />
<glyph glyph-name="bracketright" unicode="&#x5d;" horiz-adv-x="455" d="M258 -362 L258 1497 L27 1497 L27 1456 L217 1456 L217 -321 L27 -321 L27 -362 L258 -362 Z " />
<glyph glyph-name="asciicircum" unicode="&#x5e;" horiz-adv-x="1229" d="M635 1393 L594 1393 L121 465 L162 465 L614 1352 L614 1352 L1067 465 L1108 465 L635 1393 Z " />
<glyph glyph-name="underscore" unicode="&#x5f;" horiz-adv-x="1024" d="M1024 -256 L1024 -154 L0 -154 L0 -256 L1024 -256 Z " />
<glyph glyph-name="grave" unicode="&#x60;" horiz-adv-x="266" d="M207 1202 L238 1202 L-18 1497 L-78 1497 L207 1202 Z " />
<glyph glyph-name="a" unicode="a" horiz-adv-x="985" d="M819 618 L815 618 Q797 592 756 575 Q713 559 655 553 Q541 541 408 534 Q346 532 291 520 Q233 506 186 477 Q139 451 115 397 Q86 346 86 260 Q86 217 104 172 Q119 129 156 94 Q223 18 393 16 Q600 18 711 143 Q819 264 819 424 L819 618 Z M111 727 Q119 881 219 979 Q317 1075 512 1077 Q657 1079 756 1014 Q852 946 860 776 L860 106 Q862 51 907 43 Q905 2 879 10 Q821 27 819 102 L819 240 L815 240 Q782 135 674 57 Q561 -23 397 -25 Q238 -25 143 49 Q47 121 45 260 Q45 358 78 420 Q109 479 162 512 Q215 545 279 559 Q342 573 408 575 Q518 582 596 588 Q674 594 723 608 Q772 623 797 655 Q819 688 819 745 Q819 797 813 846 Q803 897 772 940 Q743 985 682 1010 Q618 1036 512 1036 Q178 1032 152 727 L111 727 Z " />
<glyph glyph-name="b" unicode="b" horiz-adv-x="1100" d="M154 524 Q154 315 266 170 Q375 18 580 16 Q786 18 887 170 Q987 315 987 524 Q987 719 893 874 Q797 1032 580 1036 Q164 1030 154 524 Z M154 758 L158 758 Q238 1069 580 1077 Q799 1073 913 913 Q1028 754 1028 524 Q1028 283 909 133 Q790 -20 580 -25 Q418 -23 309 68 Q201 154 154 295 Q140 332 131.5 386 Q123 440 118 502 Q113 564 111.5 629.5 Q110 695 110 754 Q110 813 111 861.5 Q112 910 113 938 L113 1462 L154 1462 L154 758 Z " />
<glyph glyph-name="c" unicode="c" horiz-adv-x="1024" d="M919 358 Q903 201 799 109 Q690 16 530 16 Q322 18 213 164 Q104 305 104 504 Q102 700 205 864 Q258 942 344 989 Q430 1036 555 1036 Q690 1036 788 962 Q885 887 911 733 L952 733 Q930 903 819 991 Q707 1077 555 1077 Q303 1073 184 907 Q63 741 63 504 Q63 283 186 133 Q305 -20 530 -25 Q907 -16 960 358 L919 358 Z " />
<glyph glyph-name="d" unicode="d" horiz-adv-x="1100" d="M972 524 Q962 1030 546 1036 Q329 1032 233 874 Q139 719 139 524 Q139 315 239 170 Q340 18 546 16 Q751 18 860 170 Q972 315 972 524 Z M972 1462 L1013 1462 L1013 938 Q1013 910 1014.5 861.5 Q1016 813 1016 754 Q1016 695 1014.5 629.5 Q1013 564 1008 502 Q1003 440 994.5 386 Q986 332 972 295 Q925 154 817 68 Q708 -23 546 -25 Q336 -20 217 133 Q98 283 98 524 Q98 754 213 913 Q327 1073 546 1077 Q888 1069 968 758 L972 758 L972 1462 Z " />
<glyph glyph-name="e" unicode="e" horiz-adv-x="1024" d="M92 559 Q109 784 225 909 Q344 1034 516 1036 Q723 1034 829 897 Q934 760 932 559 L92 559 Z M973 518 Q983 743 870 907 Q758 1073 512 1077 Q328 1077 195 934 Q55 793 51 526 Q49 287 162 133 Q270 -23 512 -25 Q696 -23 817 80 Q936 182 960 365 L919 365 Q850 18 508 16 Q287 18 190 162 Q94 301 92 518 L973 518 Z " />
<glyph glyph-name="f" unicode="f" horiz-adv-x="418" d="M-2 932 L-2 973 L178 973 L178 1286 Q180 1409 250 1438 Q315 1464 385 1462 Q440 1460 473 1454 L473 1413 Q420 1421 377 1421 Q281 1421 250 1386 Q217 1350 219 1272 L219 973 L446 973 L446 932 L219 932 L219 0 L178 0 L178 932 L-2 932 Z " />
<glyph glyph-name="g" unicode="g" horiz-adv-x="1063" d="M911 561 Q913 750 811 891 Q711 1032 510 1036 Q307 1034 203 897 Q98 760 98 561 Q98 365 201 233 Q303 100 494 98 Q696 100 805 236 Q911 367 911 561 Z M913 352 L909 352 Q874 213 756 137 Q637 57 496 57 Q279 59 168 209 Q57 352 57 561 Q57 778 174 926 Q289 1075 510 1077 Q664 1075 770 991 Q876 905 909 772 L913 772 L913 1053 L954 1053 L954 35 Q948 -389 516 -387 L326 -387 L326 -347 L514 -346 Q909 -348 913 35 L913 352 Z " />
<glyph glyph-name="h" unicode="h" horiz-adv-x="1024" d="M113 0 L154 0 L154 596 Q154 776 252 905 Q348 1032 537 1036 Q676 1036 772 956 Q868 874 870 692 L870 0 L911 0 L911 698 Q909 883 807 981 Q707 1077 537 1077 Q383 1075 287 997 Q188 917 158 793 L154 793 L154 1462 L113 1462 L113 0 Z " />
<glyph glyph-name="i" unicode="i" horiz-adv-x="266" d="M154 1053 L113 1053 L113 0 L154 0 L154 1053 Z M154 1462 L113 1462 L113 1255 L154 1255 L154 1462 Z " />
<glyph glyph-name="j" unicode="j" horiz-adv-x="266" d="M154 1053 L113 1053 L113 -139 Q113 -262 68 -295 Q18 -324 -100 -321 L-100 -362 Q-70 -358 -41 -356 Q-14 -356 10 -354 Q57 -348 88 -328 Q154 -293 154 -154 L154 1053 Z M154 1462 L113 1462 L113 1255 L154 1255 L154 1462 Z " />
<glyph glyph-name="k" unicode="k" horiz-adv-x="909" d="M154 397 L154 0 L113 0 L113 1462 L154 1462 L154 448 L881 1053 L940 1053 L457 651 Q500 553 560.5 468 Q621 383 695.5 308 Q770 233 854.5 166.5 Q939 100 1030 39 L1028 0 Q917 60 822.5 132.5 Q728 205 652 285 Q576 365 519 450.5 Q462 536 426 623 L154 397 Z " />
<glyph glyph-name="l" unicode="l" horiz-adv-x="266" d="M113 0 L154 0 L154 1462 L113 1462 L113 0 Z " />
<glyph glyph-name="m" unicode="m" horiz-adv-x="1593" d="M113 0 L154 0 L154 596 Q154 776 246 905 Q336 1032 494 1036 Q582 1036 639 1008 Q694 979 725 930 Q782 827 776 676 L776 0 L817 0 L817 668 Q821 819 907 926 Q991 1034 1147 1036 Q1317 1034 1380 944 Q1442 850 1440 692 L1440 0 L1481 0 L1481 692 Q1483 866 1411 971 Q1335 1075 1147 1077 Q1026 1075 938 1010 Q895 979 862 934 Q829 887 813 831 L809 831 Q747 1075 494 1077 Q369 1075 281 997 Q190 917 158 793 L154 793 L154 1053 L113 1053 L113 0 Z " />
<glyph glyph-name="n" unicode="n" horiz-adv-x="1024" d="M113 0 L154 0 L154 596 Q154 776 252 905 Q348 1032 537 1036 Q676 1036 772 956 Q868 874 870 692 L870 0 L911 0 L911 698 Q909 883 807 981 Q707 1077 537 1077 Q383 1075 287 997 Q188 917 158 793 L154 793 L154 1053 L113 1053 L113 0 Z " />
<glyph glyph-name="o" unicode="o" horiz-adv-x="1063" d="M57 526 Q57 305 180 143 Q301 -20 530 -25 Q764 -20 885 143 Q1005 305 1005 526 Q1005 750 885 911 Q764 1073 532 1077 Q301 1073 180 911 Q57 750 57 526 L57 526 Z M98 526 Q98 731 211 881 Q319 1032 532 1036 Q745 1032 856 881 Q965 731 965 526 Q965 319 856 172 Q745 20 532 16 Q319 20 211 172 Q98 319 98 526 L98 526 Z " />
<glyph glyph-name="p" unicode="p" horiz-adv-x="1100" d="M157 531 Q167 25 583 19 Q800 23 896 181 Q990 336 990 531 Q990 740 890 885 Q789 1037 583 1039 Q378 1037 269 885 Q157 740 157 531 Z M157 -407 L116 -407 L116 117 Q115 145 114 193.5 Q113 242 113 301 Q113 360 114.5 425.5 Q116 491 121 553 Q126 615 134.5 669 Q143 723 157 760 Q204 901 312 987 Q421 1078 583 1080 Q793 1075 912 922 Q1031 772 1031 531 Q1031 301 916 142 Q802 -18 583 -22 Q241 -14 161 297 L157 297 L157 -407 Z " />
<glyph glyph-name="q" unicode="q" horiz-adv-x="1100" d="M932 758 L928 758 Q887 899 778 987 Q670 1075 506 1077 Q297 1075 178 924 Q57 772 57 528 Q57 301 174 143 Q289 -20 506 -25 Q848 -16 928 295 L932 295 L932 -362 L973 -362 L973 1053 L932 1053 L932 758 Z M932 528 Q922 23 506 16 Q293 20 195 182 Q98 338 98 528 Q98 737 201 885 Q303 1032 506 1036 Q711 1032 821 887 Q930 739 932 528 L932 528 Z " />
<glyph glyph-name="r" unicode="r" horiz-adv-x="530" d="M154 596 Q154 776 256 909 Q356 1040 571 1036 L571 1077 Q385 1081 287 997 Q186 913 158 793 L154 793 L154 1053 L113 1053 L113 0 L154 0 L154 596 Z " />
<glyph glyph-name="s" unicode="s" horiz-adv-x="948" d="M840 741 Q831 1081 459 1077 Q362 1077 295 1055 Q227 1030 184 989 Q100 907 102 813 Q102 647 229 596 Q317 559 465 524 Q500 518 534 512 Q569 504 600 494 Q666 475 715 448 Q768 422 799 379 Q827 334 827 264 Q823 131 715 74 Q608 16 487 16 Q106 14 102 360 L61 360 Q63 -27 487 -25 Q633 -25 747 43 Q864 113 868 268 Q868 344 840 393 Q811 442 762 471 Q713 502 653 518 Q594 537 530 551 Q367 592 260 629 Q207 649 176 694 Q143 737 143 813 Q143 829 154 866 Q162 901 192 940 Q223 981 287 1010 Q350 1036 459 1036 Q612 1036 704 969 Q797 899 799 741 L840 741 Z " />
<glyph glyph-name="t" unicode="t" horiz-adv-x="494" d="M463 1012 L463 1053 L225 1053 L225 1384 L184 1384 L184 1053 L-10 1053 L-10 1012 L184 1012 L184 197 Q184 141 201 104 Q213 68 236 43 Q285 0 356 0 Q403 0 422 4 Q440 6 457 6 L457 47 Q434 41 367 41 Q344 41 322 47 Q297 51 274 66 Q227 92 225 205 L225 1012 L463 1012 Z " />
<glyph glyph-name="u" unicode="u" horiz-adv-x="1024" d="M911 1053 L870 1053 L870 457 Q870 276 774 152 Q678 18 487 16 Q350 16 254 98 Q156 180 154 360 L154 1053 L113 1053 L113 354 Q113 172 219 76 Q322 -23 487 -25 Q645 -23 741 57 Q838 137 866 260 L870 260 L870 0 L911 0 L911 1053 Z " />
<glyph glyph-name="v" unicode="v" horiz-adv-x="833" d="M436 41 L432 41 L25 1053 L-25 1053 L410 0 L461 0 L858 1053 L813 1053 L436 41 Z " />
<glyph glyph-name="w" unicode="w" horiz-adv-x="1403" d="M1059 41 L1055 41 L731 1053 L668 1053 L342 41 L338 41 L25 1053 L-16 1053 L311 0 L369 0 L698 1012 L702 1012 L1030 0 L1083 0 L1419 1053 L1378 1053 L1059 41 Z " />
<glyph glyph-name="x" unicode="x" horiz-adv-x="833" d="M416 575 L416 575 L61 1053 L8 1053 L391 545 L-31 0 L20 0 L416 514 L416 514 L813 0 L864 0 L442 545 L827 1053 L778 1053 L416 575 Z " />
<glyph glyph-name="y" unicode="y" horiz-adv-x="833" d="M438 55 L438 55 L20 1053 L-25 1053 L416 10 L340 -186 Q305 -276 252 -301 Q197 -326 94 -321 L94 -362 Q190 -365 262 -342 Q334 -317 373 -215 L858 1053 L815 1053 L438 55 Z " />
<glyph glyph-name="z" unicode="z" horiz-adv-x="833" d="M53 41 L790 1001 L790 1053 L66 1053 L66 1012 L747 1012 L10 51 L10 0 L823 0 L823 41 L53 41 Z " />
<glyph glyph-name="braceleft" unicode="&#x7b;" horiz-adv-x="682" d="M573 -362 L573 -321 L475 -321 Q418 -324 391 -276 Q362 -229 362 -98 L362 233 Q362 352 324 444 Q283 537 215 569 Q254 588 285 625 Q311 661 330 709 Q362 807 362 901 L362 1237 Q362 1362 389 1411 Q416 1456 475 1456 L573 1456 L573 1497 L471 1497 Q315 1499 322 1274 L322 936 Q322 809 283 711 Q264 664 236 633 Q209 602 174 594 L174 553 Q264 496 295 410 Q322 324 322 199 L322 -135 Q315 -362 471 -362 L573 -362 Z " />
<glyph glyph-name="bar" unicode="&#x7c;" horiz-adv-x="455" d="M248 -438 L248 1610 L207 1610 L207 -438 L248 -438 Z " />
<glyph glyph-name="braceright" unicode="&#x7d;" horiz-adv-x="682" d="M109 1497 L109 1456 L207 1456 Q266 1458 293 1413 Q319 1368 319 1233 L319 901 Q319 782 360 692 Q399 602 467 565 Q430 549 401 514 Q375 477 356 430 Q319 330 319 233 L319 -102 Q319 -225 295 -272 Q268 -321 207 -321 L109 -321 L109 -362 L211 -362 Q297 -362 330 -307 Q360 -256 360 -139 L360 199 Q360 330 403 428 Q442 528 508 541 L508 582 Q420 639 391 727 Q358 813 360 936 L360 1270 Q360 1386 330 1444 Q297 1497 211 1497 L109 1497 Z " />
<glyph glyph-name="asciitilde" unicode="&#x7e;" horiz-adv-x="1229" d="M1030 616 Q997 561 954 518 Q911 471 850 469 Q811 469 758 494 Q702 514 639 541 Q580 569 518 592 Q457 612 399 610 Q313 608 256 559 Q199 508 158 432 L199 420 Q236 487 285 528 Q334 569 399 569 Q479 567 539 545 Q598 520 649 494 Q704 471 752 451 Q801 428 848 428 Q928 428 981 485 Q1032 537 1071 604 L1030 616 Z " />
<glyph glyph-name="&amp;#x80;" unicode="&#x80;" horiz-adv-x="1139" d="M1161 150 L1161 205 Q993 6 737 6 Q616 6 520 49 Q424 92 351.5 167 Q279 242 233.5 341 Q188 440 170 551 L922 551 L940 586 L166 586 Q160 637 160 692 Q160 717 161 741.5 Q162 766 164 791 L983 791 L1001 825 L168 825 Q182 942 228 1044.5 Q274 1147 347 1222.5 Q420 1298 519 1342 Q618 1386 743 1386 Q852 1386 937 1353.5 Q1022 1321 1108 1255 L1126 1288 Q1040 1356 948 1389.5 Q856 1423 745 1423 Q612 1423 504.5 1377 Q397 1331 319.5 1250 Q242 1169 192.5 1059.5 Q143 950 127 825 L14 825 L0 791 L123 791 Q121 762 120 731 Q119 700 119 672 Q119 649 119 629 Q119 608 123 586 L14 586 L0 551 L125 551 Q143 430 192.5 324.5 Q242 219 318.5 139 Q395 59 498.5 14 Q602 -31 731 -31 Q983 -31 1161 150 Z " />
<glyph glyph-name="&amp;#x20ac;" unicode="&#x20ac;" horiz-adv-x="1139" d="M1161 150 L1161 205 Q993 6 737 6 Q616 6 520 49 Q424 92 351.5 167 Q279 242 233.5 341 Q188 440 170 551 L922 551 L940 586 L166 586 Q160 637 160 692 Q160 717 161 741.5 Q162 766 164 791 L983 791 L1001 825 L168 825 Q182 942 228 1044.5 Q274 1147 347 1222.5 Q420 1298 519 1342 Q618 1386 743 1386 Q852 1386 937 1353.5 Q1022 1321 1108 1255 L1126 1288 Q1040 1356 948 1389.5 Q856 1423 745 1423 Q612 1423 504.5 1377 Q397 1331 319.5 1250 Q242 1169 192.5 1059.5 Q143 950 127 825 L14 825 L0 791 L123 791 Q121 762 120 731 Q119 700 119 672 Q119 649 119 629 Q119 608 123 586 L14 586 L0 551 L125 551 Q143 430 192.5 324.5 Q242 219 318.5 139 Q395 59 498.5 14 Q602 -31 731 -31 Q983 -31 1161 150 Z " />
<glyph glyph-name="quotesinglbase" unicode="&#x201a;" horiz-adv-x="342" d="M149 201 L149 0 Q149 -82 139 -129 Q127 -176 98 -203 L98 -244 L98 -244 Q192 -178 190 0 L190 201 L149 201 Z " />
<glyph glyph-name="florin" unicode="&#x192;" horiz-adv-x="1139" d="M575 842 L836 842 L844 883 L584 883 L659 1259 Q684 1372 737 1415 Q793 1456 885 1456 Q944 1454 993 1444 L1001 1483 Q946 1497 889 1497 Q668 1499 618 1282 L539 883 L295 883 L287 842 L530 842 L344 -104 Q328 -201 276 -260 Q225 -319 123 -321 Q80 -321 37 -309 L27 -350 Q76 -362 129 -362 Q248 -360 309 -285 Q371 -211 387 -113 L575 842 Z " />
<glyph glyph-name="quotedblbase" unicode="&#x201e;" horiz-adv-x="569" d="M358 201 L358 0 Q358 -82 348 -129 Q336 -176 307 -203 L307 -244 L307 -244 Q401 -178 399 0 L399 201 L358 201 Z M154 201 L154 0 Q154 -82 143 -129 Q131 -176 102 -203 L102 -244 L102 -244 Q197 -178 195 0 L195 201 L154 201 Z " />
<glyph glyph-name="ellipsis" unicode="&#x2026;" horiz-adv-x="2048" d="M362 201 L322 201 L322 0 L362 0 L362 201 Z M1044 201 L1003 201 L1003 0 L1044 0 L1044 201 Z M1726 201 L1685 201 L1685 0 L1726 0 L1726 201 Z " />
<glyph glyph-name="dagger" unicode="&#x2020;" horiz-adv-x="1139" d="M549 1462 L549 965 L123 965 L123 924 L549 924 L549 -287 L590 -287 L590 924 L1016 924 L1016 965 L590 965 L590 1462 L549 1462 Z " />
<glyph glyph-name="daggerdbl" unicode="&#x2021;" horiz-adv-x="1139" d="M549 117 L549 -287 L590 -287 L590 117 L1016 117 L1016 158 L590 158 L590 1018 L1016 1018 L1016 1059 L590 1059 L590 1462 L549 1462 L549 1059 L123 1059 L123 1018 L549 1018 L549 158 L123 158 L123 117 L549 117 Z " />
<glyph glyph-name="circumflex" unicode="&#x2c6;" horiz-adv-x="266" d="M381 1212 L147 1497 L117 1497 L-115 1212 L-74 1212 L129 1464 L129 1464 L340 1212 L381 1212 Z " />
<glyph glyph-name="perthousand" unicode="&#x2030;" horiz-adv-x="2124" d="M43 1063 Q43 924 119 823 Q195 719 354 717 Q508 719 592 821 Q672 919 672 1065 Q672 1221 592 1319 Q512 1415 354 1417 Q207 1415 125 1319 Q43 1223 43 1063 L43 1063 Z M84 1063 Q84 1202 149 1288 Q213 1374 354 1376 Q496 1374 565 1290 Q631 1206 631 1063 Q631 936 563 850 Q494 760 354 758 Q219 760 152 850 Q84 936 84 1063 L84 1063 Z M715 322 Q715 182 790 82 Q866 -20 1026 -25 Q1180 -23 1264 80 Q1343 178 1343 324 Q1343 479 1264 577 Q1184 674 1026 676 Q879 674 797 577 Q715 481 715 322 L715 322 Z M756 322 Q756 461 821 547 Q885 633 1026 635 Q1167 633 1237 549 Q1302 465 1302 322 Q1302 195 1235 109 Q1165 18 1026 16 Q891 18 823 109 Q756 195 756 322 L756 322 Z M1452 322 Q1452 182 1528 82 Q1603 -20 1763 -25 Q1917 -23 2001 80 Q2081 178 2081 324 Q2081 479 2001 577 Q1921 674 1763 676 Q1616 674 1534 577 Q1452 481 1452 322 L1452 322 Z M1493 322 Q1493 461 1558 547 Q1622 633 1763 635 Q1905 633 1974 549 Q2040 465 2040 322 Q2040 195 1972 109 Q1902 18 1763 16 Q1628 18 1560 109 Q1493 195 1493 322 L1493 322 Z M182 -70 L229 -70 L1204 1462 L1157 1462 L182 -70 Z " />
<glyph glyph-name="Scaron" unicode="&#x160;" horiz-adv-x="1251" d="M1128 1053 Q1114 1296 975 1399 Q831 1499 612 1497 Q526 1497 438 1481 Q348 1462 276 1419 Q205 1376 160 1302 Q113 1231 113 1120 Q113 1014 158 948 Q199 881 270 842 Q342 803 428 780 Q514 756 604 735 Q692 717 782 696 Q870 676 946 639 Q1022 604 1069 537 Q1116 471 1116 360 Q1112 174 965 90 Q821 6 641 6 Q405 4 260 117 Q113 227 111 485 L70 485 Q72 211 229 88 Q387 -35 641 -35 Q838 -35 993 59 Q1153 154 1157 358 Q1157 473 1120 543 Q1079 612 1012 651 Q944 692 854 719 Q762 743 657 766 Q565 790 475 813 Q385 833 313 868 Q242 905 199 965 Q154 1022 154 1120 Q154 1218 199 1286 Q240 1350 307 1386 Q448 1458 612 1456 Q817 1458 946 1368 Q1077 1276 1087 1053 L1128 1053 Z M389 1907 L623 1622 L653 1622 L885 1907 L844 1907 L641 1655 L641 1655 L430 1907 L389 1907 Z " />
<glyph glyph-name="guilsinglleft" unicode="&#x2039;" horiz-adv-x="530" d="M346 248 L346 319 L176 549 L346 778 L346 850 L346 850 L135 565 L135 532 L346 248 L346 248 Z " />
<glyph glyph-name="OE" unicode="&#x152;" horiz-adv-x="2087" d="M1184 782 L1184 1421 L2031 1421 L2031 1462 L1143 1462 L1143 1329 L1143 1329 Q983 1499 741 1497 Q408 1491 238 1266 Q66 1040 66 723 Q66 410 240 192 Q412 -29 741 -35 Q965 -37 1143 133 L1143 133 L1143 0 L2031 0 L2031 41 L1184 41 L1184 741 L1933 741 L1933 782 L1184 782 Z M1143 192 Q1055 92 948 51 Q897 31 844 18 Q790 6 741 6 Q444 8 279 211 Q113 408 106 723 Q113 1059 283 1257 Q448 1454 741 1456 Q979 1458 1143 1276 L1143 192 Z " />
<glyph glyph-name="quoteleft" unicode="&#x2018;" horiz-adv-x="342" d="M190 1001 L190 1243 Q188 1388 242 1421 L242 1462 L242 1462 Q190 1438 170 1395 Q149 1350 149 1243 L149 1001 L190 1001 Z " />
<glyph glyph-name="quoteright" unicode="&#x2019;" horiz-adv-x="342" d="M152 1462 L152 1221 Q152 1145 143 1104 Q131 1063 100 1042 L100 1001 L100 1001 Q154 1028 174 1073 Q192 1116 192 1221 L192 1462 L152 1462 Z " />
<glyph glyph-name="quotedblleft" unicode="&#x201c;" horiz-adv-x="569" d="M211 1001 L211 1243 Q209 1388 262 1421 L262 1462 L262 1462 Q211 1438 190 1395 Q170 1350 170 1243 L170 1001 L211 1001 Z M416 1001 L416 1243 Q414 1388 467 1421 L467 1462 L467 1462 Q416 1438 395 1395 Q375 1350 375 1243 L375 1001 L416 1001 Z " />
<glyph glyph-name="quotedblright" unicode="&#x201d;" horiz-adv-x="569" d="M358 1462 L358 1221 Q358 1145 350 1104 Q338 1063 307 1042 L307 1001 L307 1001 Q360 1028 381 1073 Q399 1116 399 1221 L399 1462 L358 1462 Z M154 1462 L154 1221 Q154 1145 145 1104 Q133 1063 102 1042 L102 1001 L102 1001 Q156 1028 176 1073 Q195 1116 195 1221 L195 1462 L154 1462 Z " />
<glyph glyph-name="bullet" unicode="&#x2022;" horiz-adv-x="1024" d="M147 731 Q149 575 256 473 Q358 367 512 365 Q670 367 772 473 Q876 575 879 731 Q876 889 772 991 Q670 1094 512 1096 Q358 1094 256 991 Q149 889 147 731 L147 731 Z " />
<glyph glyph-name="endash" unicode="&#x2013;" horiz-adv-x="1024" d="M0 528 L1024 528 L1024 569 L0 569 L0 528 Z " />
<glyph glyph-name="emdash" unicode="&#x2014;" horiz-adv-x="2048" d="M1782 569 L266 569 L266 528 L1782 528 L1782 569 Z " />
<glyph glyph-name="tilde" unicode="&#x2dc;" horiz-adv-x="266" d="M-96 1233 Q-96 1276 -68 1315 Q-41 1352 2 1354 Q37 1354 68 1337 Q98 1319 127 1296 Q158 1274 192 1255 Q225 1235 262 1235 Q334 1235 371 1282 Q403 1327 403 1388 L362 1388 Q362 1345 338 1313 Q311 1276 262 1276 Q233 1276 203 1296 Q172 1315 139 1337 Q106 1360 72 1378 Q39 1395 2 1395 Q-53 1393 -92 1343 Q-135 1294 -137 1233 L-96 1233 Z " />
<glyph glyph-name="trademark" unicode="&#x2122;" horiz-adv-x="2027" d="M475 618 L516 618 L516 1421 L823 1421 L823 1462 L168 1462 L168 1421 L475 1421 L475 618 Z M1016 618 L1057 618 L1057 1421 L1061 1421 L1397 618 L1438 618 L1773 1421 L1778 1421 L1778 618 L1818 618 L1818 1462 L1749 1462 L1417 676 L1417 676 L1085 1462 L1016 1462 L1016 618 Z " />
<glyph glyph-name="scaron" unicode="&#x161;" horiz-adv-x="948" d="M840 741 Q831 1081 459 1077 Q362 1077 295 1055 Q227 1030 184 989 Q100 907 102 813 Q102 647 229 596 Q317 559 465 524 Q500 518 534 512 Q569 504 600 494 Q666 475 715 448 Q768 422 799 379 Q827 334 827 264 Q823 131 715 74 Q608 16 487 16 Q106 14 102 360 L61 360 Q63 -27 487 -25 Q633 -25 747 43 Q864 113 868 268 Q868 344 840 393 Q811 442 762 471 Q713 502 653 518 Q594 537 530 551 Q367 592 260 629 Q207 649 176 694 Q143 737 143 813 Q143 829 154 866 Q162 901 192 940 Q223 981 287 1010 Q350 1036 459 1036 Q612 1036 704 969 Q797 899 799 741 L840 741 Z M231 1497 L465 1212 L495 1212 L727 1497 L686 1497 L483 1245 L483 1245 L272 1497 L231 1497 Z " />
<glyph glyph-name="guilsinglright" unicode="&#x203a;" horiz-adv-x="530" d="M184 850 L184 778 L354 549 L184 319 L184 248 L184 248 L395 532 L395 565 L184 850 L184 850 Z " />
<glyph glyph-name="oe" unicode="&#x153;" horiz-adv-x="1823" d="M930 559 Q936 768 1026 901 Q1116 1034 1325 1036 Q1532 1034 1622 897 Q1712 760 1712 559 L930 559 Z M889 526 Q891 319 807 172 Q719 20 498 16 Q393 16 319 61 Q244 106 197 178 Q104 328 106 526 Q104 729 197 881 Q287 1032 498 1036 Q717 1032 805 881 Q889 731 889 526 L889 526 Z M1753 518 L1753 549 Q1753 766 1653 919 Q1550 1073 1323 1077 Q1135 1071 1036 973 Q936 874 909 717 L905 717 Q883 879 776 977 Q672 1075 498 1077 Q264 1073 164 905 Q63 739 66 526 Q63 311 166 149 Q268 -20 498 -25 Q844 -16 907 322 L911 322 Q969 -20 1323 -25 Q1503 -23 1608 82 Q1712 182 1739 354 L1698 354 Q1675 215 1589 119 Q1503 18 1323 16 Q924 20 930 518 L1753 518 Z " />
<glyph glyph-name="Ydieresis" unicode="&#x178;" horiz-adv-x="1102" d="M551 659 L551 659 L-10 1462 L-61 1462 L530 616 L530 0 L571 0 L571 616 L1163 1462 L1114 1462 L551 659 Z M424 1573 L424 1739 L383 1739 L383 1573 L424 1573 Z M743 1573 L743 1739 L702 1739 L702 1573 L743 1573 Z " />
<glyph glyph-name="nbspace" unicode="&#xa0;" horiz-adv-x="569" d="" />
<glyph glyph-name="exclamdown" unicode="&#xa1;" horiz-adv-x="379" d="M170 1110 L170 909 L211 909 L211 1110 L170 1110 Z M170 737 L170 -362 L211 -362 L211 737 L170 737 Z " />
<glyph glyph-name="cent" unicode="&#xa2;" horiz-adv-x="1139" d="M557 16 Q354 33 260 184 Q162 334 162 528 Q162 721 260 870 Q358 1020 557 1034 L557 16 Z M598 1034 Q743 1032 844 958 Q942 885 967 733 L1008 733 Q985 901 874 987 Q762 1073 598 1075 L598 1255 L557 1255 L557 1075 Q342 1061 231 901 Q121 739 121 528 Q121 311 231 154 Q340 -8 557 -25 L557 -248 L598 -248 L598 -25 Q956 -10 1018 358 L977 358 Q960 209 862 115 Q762 18 608 16 L598 16 L598 1034 Z " />
<glyph glyph-name="sterling" unicode="&#xa3;" horiz-adv-x="1139" d="M283 747 Q240 831 188 928 Q135 1020 133 1116 Q135 1296 266 1378 Q393 1456 555 1456 Q764 1456 885 1335 Q1003 1214 985 983 L1026 983 Q1051 1223 924 1360 Q795 1495 555 1497 Q371 1497 236 1407 Q96 1313 92 1116 Q94 1020 145 926 Q192 829 236 747 L100 747 L100 707 L256 707 Q319 594 322 428 Q319 307 252 201 Q184 92 80 6 L117 -35 L117 -35 Q231 66 373 68 Q465 63 567 16 Q620 -2 672 -18 Q723 -35 772 -35 Q866 -35 946 6 Q1024 47 1112 147 L1085 176 Q1012 100 940 55 Q868 6 772 6 Q678 8 575 59 Q526 78 477 94 Q426 109 373 109 Q311 109 258 86 Q203 63 164 33 L160 37 Q358 197 362 428 Q365 577 301 707 L606 707 L606 747 L283 747 Z " />
<glyph glyph-name="currency" unicode="&#xa4;" horiz-adv-x="1139" d="M913 1069 L913 1069 Q764 1204 569 1204 Q379 1204 225 1069 L225 1069 L109 1186 L80 1157 L197 1040 Q66 891 61 696 Q61 506 197 352 L80 236 L109 207 L225 324 L225 324 Q379 188 569 188 Q764 192 913 324 L913 324 L1030 207 L1059 236 L942 352 Q1077 506 1077 696 Q1077 891 942 1040 L1059 1157 L1030 1186 L913 1069 Z M1036 696 Q1034 500 901 369 Q768 231 569 229 Q373 231 242 369 Q104 500 102 696 Q104 895 242 1028 Q373 1161 569 1163 Q768 1161 901 1028 Q1034 895 1036 696 L1036 696 Z " />
<glyph glyph-name="yen" unicode="&#xa5;" horiz-adv-x="1139" d="M588 625 L889 625 L889 666 L610 666 L1096 1462 L1051 1462 L571 678 L567 678 L88 1462 L43 1462 L528 666 L246 666 L246 625 L547 625 L547 416 L246 416 L246 375 L547 375 L547 0 L588 0 L588 375 L889 375 L889 416 L588 416 L588 625 Z " />
<glyph glyph-name="brokenbar" unicode="&#xa6;" horiz-adv-x="455" d="M248 330 L207 330 L207 -182 L248 -182 L248 330 Z M207 1354 L207 842 L248 842 L248 1354 L207 1354 Z " />
<glyph glyph-name="section" unicode="&#xa7;" horiz-adv-x="1139" d="M905 1118 Q903 1292 813 1395 Q719 1495 555 1497 Q465 1499 354 1448 Q303 1421 268 1366 Q231 1311 231 1225 Q231 1143 266 1089 Q299 1034 340 1001 Q254 969 188 893 Q119 817 117 717 Q115 635 156 557 Q199 479 338 383 Q541 256 698 152 Q805 78 836 23 Q864 -33 862 -113 Q862 -186 797 -264 Q727 -340 569 -346 Q399 -340 326 -244 Q250 -149 252 10 L211 10 Q213 -383 569 -387 Q698 -387 795 -319 Q891 -252 903 -113 Q911 -51 887 12 Q860 74 782 139 Q854 160 934 233 Q973 270 997 317 Q1022 362 1022 418 Q1022 477 1010 528 Q995 577 956 625 Q883 717 666 852 Q586 905 522 938 Q461 969 389 1018 Q342 1051 311 1098 Q276 1145 272 1221 Q270 1292 299 1337 Q326 1382 369 1409 Q414 1436 463 1448 Q510 1456 551 1456 Q856 1450 864 1118 L905 1118 Z M981 420 Q981 367 956 324 Q932 281 893 248 Q813 184 743 168 Q575 285 362 416 Q293 463 254 506 Q211 545 190 582 Q170 618 164 649 Q158 678 158 700 Q158 768 184 817 Q211 864 246 897 Q285 930 319 948 Q354 967 377 973 Q502 901 643 817 Q848 690 917 604 Q954 559 969 516 Q981 471 981 420 L981 420 Z " />
<glyph glyph-name="dieresis" unicode="&#xa8;" horiz-adv-x="266" d="M-6 1208 L-6 1374 L-47 1374 L-47 1208 L-6 1208 Z M313 1208 L313 1374 L272 1374 L272 1208 L313 1208 Z " />
<glyph glyph-name="copyright" unicode="&#xa9;" horiz-adv-x="1638" d="M1214 876 Q1192 1028 1087 1108 Q983 1186 836 1186 Q625 1184 510 1055 Q391 926 391 719 Q393 516 514 385 Q633 248 842 246 Q985 246 1083 336 Q1182 422 1214 565 L1173 565 Q1141 432 1049 360 Q958 287 842 287 Q649 289 543 416 Q432 539 432 721 Q432 907 539 1024 Q645 1143 836 1145 Q962 1145 1057 1079 Q1153 1012 1173 876 L1214 876 Z M53 731 Q57 408 279 190 Q496 -31 819 -35 Q1147 -31 1364 190 Q1581 408 1585 731 Q1581 1059 1364 1276 Q1147 1493 819 1497 Q496 1493 279 1276 Q57 1059 53 731 L53 731 Z M94 731 Q98 1040 307 1245 Q512 1452 819 1456 Q1128 1452 1333 1245 Q1540 1040 1544 731 Q1540 424 1333 219 Q1128 10 819 6 Q512 10 307 219 Q98 424 94 731 L94 731 Z " />
<glyph glyph-name="ordfeminine" unicode="&#xaa;" horiz-adv-x="614" d="M504 1032 Q504 932 434 864 Q362 793 229 793 Q156 793 100 823 Q43 854 41 924 Q43 1014 106 1044 Q168 1073 252 1077 Q336 1083 405 1089 Q473 1096 500 1130 L504 1130 L504 1032 Z M614 807 Q590 803 569 809 Q545 813 545 846 L545 1235 Q539 1337 475 1378 Q410 1417 305 1417 Q63 1413 43 1204 L84 1204 Q102 1372 305 1376 Q504 1378 504 1210 Q502 1141 426 1130 Q352 1120 252 1118 Q156 1116 80 1079 Q45 1061 23 1024 Q0 985 0 924 Q2 831 72 793 Q102 772 145 762 Q186 752 229 752 Q453 754 500 899 L500 913 L504 913 L504 829 Q504 782 543 774 Q575 764 614 766 L614 807 Z " />
<glyph glyph-name="guillemotleft" unicode="&#xab;" horiz-adv-x="721" d="M346 248 L346 319 L176 549 L346 778 L346 850 L346 850 L135 565 L135 532 L346 248 L346 248 Z M537 248 L537 319 L367 549 L537 778 L537 850 L537 850 L326 565 L326 532 L537 248 L537 248 Z " />
<glyph glyph-name="logicalnot" unicode="&#xac;" horiz-adv-x="1229" d="M1089 190 L1130 190 L1130 737 L98 737 L98 696 L1089 696 L1089 190 Z " />
<glyph glyph-name="hyphen.001" unicode="&#xad;" horiz-adv-x="682" d="M162 528 L520 528 L520 569 L162 569 L162 528 Z " />
<glyph glyph-name="registered" unicode="&#xae;" horiz-adv-x="1638" d="M561 276 L602 276 L602 684 L803 684 Q836 684 866 686 L1130 276 L1182 276 L911 690 Q1005 698 1073 754 Q1139 809 1141 919 Q1143 1153 850 1157 L561 1157 L561 276 Z M602 725 L602 1116 L846 1116 Q948 1118 1022 1079 Q1059 1059 1081 1020 Q1100 981 1100 919 Q1100 856 1073 817 Q1049 778 1003 758 Q983 750 960 743 Q936 737 911 733 Q862 725 815 725 L602 725 Z M53 731 Q57 408 279 190 Q496 -31 819 -35 Q1147 -31 1364 190 Q1581 408 1585 731 Q1581 1059 1364 1276 Q1147 1493 819 1497 Q496 1493 279 1276 Q57 1059 53 731 L53 731 Z M94 731 Q98 1040 307 1245 Q512 1452 819 1456 Q1128 1452 1333 1245 Q1540 1040 1544 731 Q1540 424 1333 219 Q1128 10 819 6 Q512 10 307 219 Q98 424 94 731 L94 731 Z " />
<glyph glyph-name="macron" unicode="&#xaf;" horiz-adv-x="266" d="M371 1327 L-104 1327 L-104 1286 L371 1286 L371 1327 Z " />
<glyph glyph-name="degree" unicode="&#xb0;" horiz-adv-x="819" d="M661 1124 Q659 1014 590 944 Q520 868 410 868 Q305 870 236 942 Q160 1012 158 1124 Q160 1227 236 1300 Q305 1374 410 1376 Q522 1374 592 1302 Q661 1229 661 1124 L661 1124 Z M702 1124 Q700 1247 618 1331 Q537 1415 410 1417 Q285 1415 203 1331 Q119 1247 117 1124 Q119 995 203 913 Q285 829 410 827 Q539 829 620 915 Q700 999 702 1124 L702 1124 Z " />
<glyph glyph-name="plusminus" unicode="&#xb1;" horiz-adv-x="1229" d="M594 631 L98 631 L98 590 L594 590 L594 184 L635 184 L635 590 L1130 590 L1130 631 L635 631 L635 1036 L594 1036 L594 631 Z M98 0 L1130 0 L1130 41 L98 41 L98 0 Z " />
<glyph glyph-name="twosuperior" unicode="&#xb2;" horiz-adv-x="682" d="M84 608 Q94 674 170 737 Q248 799 352 864 Q516 973 573 1049 Q604 1089 614 1128 Q623 1165 623 1204 Q620 1317 543 1368 Q463 1417 344 1417 Q188 1417 123 1343 Q55 1268 53 1128 L94 1128 Q84 1372 344 1376 Q451 1376 516 1335 Q580 1292 582 1204 Q580 1104 504 1032 Q430 956 322 891 Q272 858 221 825 Q170 793 129 756 Q88 719 63 674 Q37 625 37 567 L647 567 L647 608 L84 608 Z " />
<glyph glyph-name="threesuperior" unicode="&#xb3;" horiz-adv-x="682" d="M90 1145 Q92 1378 356 1376 Q453 1376 526 1347 Q561 1329 584 1298 Q602 1266 602 1212 Q600 1116 528 1077 Q455 1038 358 1038 L305 1038 L305 995 L354 995 Q408 995 453 987 Q500 979 537 954 Q573 932 596 895 Q618 856 618 799 Q616 696 539 647 Q461 594 352 594 Q217 594 137 659 Q57 721 63 850 L23 850 Q16 709 106 631 Q195 553 354 553 Q481 553 569 618 Q657 682 659 799 Q657 907 594 958 Q530 1010 434 1014 L434 1018 Q528 1018 586 1073 Q643 1126 643 1212 Q643 1274 618 1315 Q594 1356 553 1376 Q512 1401 463 1409 Q412 1417 358 1417 Q221 1417 135 1350 Q49 1280 49 1145 L90 1145 Z " />
<glyph glyph-name="acute" unicode="&#xb4;" horiz-adv-x="266" d="M291 1497 L20 1202 L51 1202 L350 1497 L291 1497 Z " />
<glyph glyph-name="mu" unicode="&#xb5;" horiz-adv-x="1139" d="M967 1053 L926 1053 L926 457 Q926 276 829 152 Q733 18 543 16 Q405 16 309 98 Q211 180 209 360 L209 1053 L170 1053 L170 -362 L211 -362 L211 166 L215 166 Q264 63 352 20 Q440 -25 543 -25 Q700 -23 797 57 Q893 137 922 260 L926 260 L926 0 L967 0 L967 1053 Z " />
<glyph glyph-name="paragraph" unicode="&#xb6;" horiz-adv-x="1229" d="M592 1462 Q141 1458 135 1061 Q137 901 262 788 Q385 674 590 672 L590 -287 L631 -287 L631 1421 L965 1421 L965 -287 L1005 -287 L1005 1462 L592 1462 Z " />
<glyph glyph-name="&amp;#xb7;" unicode="&#xb7;" horiz-adv-x="569" d="M219 696 Q219 668 240 651 Q256 631 285 631 Q313 631 332 651 Q350 668 350 696 Q348 760 285 762 Q256 762 240 743 Q219 725 219 696 L219 696 Z " />
<glyph glyph-name="&amp;#x2219;" unicode="&#x2219;" horiz-adv-x="569" d="M219 696 Q219 668 240 651 Q256 631 285 631 Q313 631 332 651 Q350 668 350 696 Q348 760 285 762 Q256 762 240 743 Q219 725 219 696 L219 696 Z " />
<glyph glyph-name="cedilla" unicode="&#xb8;" horiz-adv-x="266" d="M-51 -340 Q-20 -350 23 -360 Q63 -373 117 -375 Q201 -375 258 -344 Q315 -311 317 -225 Q315 -158 272 -129 Q227 -102 164 -102 Q137 -102 125 -106 Q111 -111 96 -115 L180 0 L139 0 L23 -149 L53 -170 Q98 -143 164 -143 Q199 -143 238 -162 Q274 -182 276 -225 Q274 -285 227 -309 Q178 -334 117 -334 Q37 -332 -33 -301 L-51 -340 Z " />
<glyph glyph-name="onesuperior" unicode="&#xb9;" horiz-adv-x="682" d="M371 567 L412 567 L412 1403 L367 1403 Q313 1345 260 1309 Q207 1274 127 1247 L127 1208 Q197 1229 262 1266 Q328 1302 367 1356 L371 1356 L371 567 Z " />
<glyph glyph-name="ordmasculine" unicode="&#xba;" horiz-adv-x="614" d="M0 1087 Q0 954 82 856 Q160 754 307 752 Q461 754 539 856 Q616 954 616 1087 Q616 1223 539 1319 Q461 1415 309 1417 Q160 1415 82 1319 Q0 1223 0 1087 L0 1087 Z M41 1087 Q41 1200 113 1288 Q182 1374 309 1376 Q436 1374 506 1288 Q575 1200 575 1087 Q575 973 506 885 Q436 795 309 793 Q182 795 113 885 Q41 973 41 1087 L41 1087 Z " />
<glyph glyph-name="guillemotright" unicode="&#xbb;" horiz-adv-x="721" d="M375 850 L375 778 L545 549 L375 319 L375 248 L375 248 L586 532 L586 565 L375 850 L375 850 Z M184 850 L184 778 L354 549 L184 319 L184 248 L184 248 L395 532 L395 565 L184 850 L184 850 Z " />
<glyph glyph-name="onequarter" unicode="&#xbc;" horiz-adv-x="1708" d="M1300 209 L1300 0 L1341 0 L1341 209 L1497 209 L1497 250 L1341 250 L1341 836 L1290 836 L848 260 L848 209 L1300 209 Z M1300 250 L891 250 L1296 776 L1300 780 L1300 250 Z M295 -70 L342 -70 L1317 1462 L1270 1462 L295 -70 Z M453 567 L494 567 L494 1403 L448 1403 Q395 1345 342 1309 Q289 1274 209 1247 L209 1208 Q279 1229 344 1266 Q410 1302 448 1356 L453 1356 L453 567 Z " />
<glyph glyph-name="onehalf" unicode="&#xbd;" horiz-adv-x="1708" d="M199 -70 L246 -70 L1221 1462 L1173 1462 L199 -70 Z M377 567 L418 567 L418 1403 L373 1403 Q319 1345 266 1309 Q213 1274 133 1247 L133 1208 Q203 1229 268 1266 Q334 1302 373 1356 L377 1356 L377 567 Z M1014 41 Q1024 106 1100 170 Q1178 231 1282 297 Q1446 405 1503 481 Q1534 522 1544 561 Q1552 598 1552 637 Q1550 750 1472 801 Q1393 850 1274 850 Q1118 850 1053 776 Q985 700 983 561 L1024 561 Q1014 805 1274 809 Q1380 809 1446 768 Q1509 725 1511 637 Q1509 537 1433 465 Q1360 389 1251 324 Q1202 291 1151 258 Q1100 225 1059 188 Q1018 152 993 106 Q967 57 967 0 L1577 0 L1577 41 L1014 41 Z " />
<glyph glyph-name="threequarters" unicode="&#xbe;" horiz-adv-x="1708" d="M1399 209 L1399 0 L1440 0 L1440 209 L1595 209 L1595 250 L1440 250 L1440 836 L1388 836 L946 260 L946 209 L1399 209 Z M1399 250 L989 250 L1395 776 L1399 780 L1399 250 Z M405 -70 L453 -70 L1427 1462 L1380 1462 L405 -70 Z M180 1145 Q182 1378 446 1376 Q543 1376 616 1347 Q651 1329 674 1298 Q692 1266 692 1212 Q690 1116 618 1077 Q545 1038 448 1038 L395 1038 L395 995 Q420 997 444 997 Q498 997 543 989 Q590 981 627 956 Q707 911 709 799 Q707 696 629 647 Q551 594 442 594 Q307 594 227 659 Q147 721 154 850 L113 850 Q106 709 197 631 Q285 553 444 553 Q571 553 659 618 Q747 682 750 799 Q747 907 684 958 Q620 1010 524 1014 L524 1018 Q618 1018 676 1073 Q733 1126 733 1212 Q733 1274 709 1315 Q684 1356 643 1376 Q602 1401 553 1409 Q502 1417 448 1417 Q311 1417 225 1350 Q139 1280 139 1145 L180 1145 Z " />
<glyph glyph-name="questiondown" unicode="&#xbf;" horiz-adv-x="1024" d="M911 100 Q919 -98 817 -219 Q713 -344 508 -346 Q348 -346 250 -268 Q147 -190 145 -47 Q145 33 174 94 Q201 152 236 195 Q270 238 303 266 Q332 291 346 303 Q461 414 506 510 Q547 604 547 737 L506 737 Q506 596 461 510 Q414 422 303 319 Q248 279 180 192 Q106 104 104 -47 Q106 -211 223 -297 Q336 -387 508 -387 Q729 -385 844 -248 Q960 -115 952 100 L911 100 Z M508 1110 L508 909 L549 909 L549 1110 L508 1110 Z " />
<glyph glyph-name="Agrave" unicode="&#xc0;" horiz-adv-x="1178" d="M233 522 L594 1421 L598 1421 L946 522 L233 522 Z M962 481 L1155 0 L1200 0 L623 1462 L569 1462 L-25 0 L23 0 L217 481 L962 481 Z M676 1567 L707 1567 L451 1862 L391 1862 L676 1567 Z " />
<glyph glyph-name="Aacute" unicode="&#xc1;" horiz-adv-x="1178" d="M233 522 L594 1421 L598 1421 L946 522 L233 522 Z M962 481 L1155 0 L1200 0 L623 1462 L569 1462 L-25 0 L23 0 L217 481 L962 481 Z M764 1862 L493 1567 L524 1567 L823 1862 L764 1862 Z " />
<glyph glyph-name="Acircumflex" unicode="&#xc2;" horiz-adv-x="1178" d="M233 522 L594 1421 L598 1421 L946 522 L233 522 Z M962 481 L1155 0 L1200 0 L623 1462 L569 1462 L-25 0 L23 0 L217 481 L962 481 Z M850 1577 L616 1862 L586 1862 L354 1577 L395 1577 L598 1829 L598 1829 L809 1577 L850 1577 Z " />
<glyph glyph-name="Atilde" unicode="&#xc3;" horiz-adv-x="1178" d="M233 522 L594 1421 L598 1421 L946 522 L233 522 Z M962 481 L1155 0 L1200 0 L623 1462 L569 1462 L-25 0 L23 0 L217 481 L962 481 Z M371 1598 Q371 1641 399 1680 Q426 1717 469 1719 Q504 1719 535 1702 Q565 1684 594 1661 Q625 1639 659 1620 Q692 1600 729 1600 Q801 1600 838 1647 Q870 1692 870 1753 L829 1753 Q829 1710 805 1678 Q778 1641 729 1641 Q700 1641 670 1661 Q639 1680 606 1702 Q573 1725 539 1743 Q506 1760 469 1760 Q414 1758 375 1708 Q332 1659 330 1598 L371 1598 Z " />
<glyph glyph-name="Adieresis" unicode="&#xc4;" horiz-adv-x="1178" d="M233 522 L594 1421 L598 1421 L946 522 L233 522 Z M962 481 L1155 0 L1200 0 L623 1462 L569 1462 L-25 0 L23 0 L217 481 L962 481 Z M463 1573 L463 1739 L422 1739 L422 1573 L463 1573 Z M782 1573 L782 1739 L741 1739 L741 1573 L782 1573 Z " />
<glyph glyph-name="Aring" unicode="&#xc5;" horiz-adv-x="1178" d="M233 522 L594 1421 L598 1421 L946 522 L233 522 Z M962 481 L1155 0 L1200 0 L623 1462 L569 1462 L-25 0 L23 0 L217 481 L962 481 Z M782 1687 Q780 1763 729 1814 Q678 1865 602 1867 Q528 1865 477 1814 Q453 1790 438 1759 Q422 1724 422 1687 Q424 1611 477 1560 Q528 1507 602 1507 Q678 1507 729 1560 Q780 1611 782 1687 L782 1687 Z M741 1687 Q741 1630 702 1591 Q661 1548 602 1548 Q545 1548 506 1591 Q465 1630 463 1687 Q465 1747 506 1788 Q545 1827 602 1827 Q661 1827 702 1788 Q741 1747 741 1687 L741 1687 Z " />
<glyph glyph-name="AE" unicode="&#xc6;" horiz-adv-x="1745" d="M866 561 L866 0 L1710 0 L1710 41 L907 41 L907 741 L1644 741 L1644 782 L907 782 L907 1421 L1710 1421 L1710 1462 L750 1462 L-25 0 L20 0 L317 561 L866 561 Z M866 1425 L866 602 L338 602 L770 1425 L866 1425 Z " />
<glyph glyph-name="Ccedilla" unicode="&#xc7;" horiz-adv-x="1403" d="M1323 1024 Q1321 1171 1175 1329 Q1032 1491 739 1497 Q371 1489 211 1243 Q49 1001 51 719 Q53 395 227 190 Q397 -14 680 -33 L590 -149 L620 -170 Q666 -143 731 -143 Q766 -143 805 -162 Q842 -182 844 -225 Q842 -285 795 -309 Q745 -334 684 -334 Q604 -332 534 -301 L516 -340 Q547 -350 590 -360 Q631 -373 684 -375 Q768 -375 825 -344 Q883 -311 885 -225 Q883 -158 840 -129 Q795 -102 731 -102 Q704 -102 692 -106 Q678 -111 664 -115 L723 -35 Q997 -27 1157 139 Q1319 305 1356 573 L1315 573 Q1282 326 1130 170 Q977 8 713 6 Q416 10 256 223 Q92 430 92 719 Q90 965 238 1202 Q313 1315 438 1384 Q561 1454 739 1456 Q981 1452 1124 1321 Q1268 1192 1282 1024 L1323 1024 Z " />
<glyph glyph-name="Egrave" unicode="&#xc8;" horiz-adv-x="1100" d="M152 741 L1026 741 L1026 782 L152 782 L152 1421 L1081 1421 L1081 1462 L111 1462 L111 0 L1089 0 L1089 41 L152 41 L152 741 Z M633 1567 L664 1567 L408 1862 L348 1862 L633 1567 Z " />
<glyph glyph-name="Eacute" unicode="&#xc9;" horiz-adv-x="1100" d="M152 741 L1026 741 L1026 782 L152 782 L152 1421 L1081 1421 L1081 1462 L111 1462 L111 0 L1089 0 L1089 41 L152 41 L152 741 Z M721 1862 L450 1567 L481 1567 L780 1862 L721 1862 Z " />
<glyph glyph-name="Ecircumflex" unicode="&#xca;" horiz-adv-x="1100" d="M152 741 L1026 741 L1026 782 L152 782 L152 1421 L1081 1421 L1081 1462 L111 1462 L111 0 L1089 0 L1089 41 L152 41 L152 741 Z M805 1577 L571 1862 L541 1862 L309 1577 L350 1577 L553 1829 L553 1829 L764 1577 L805 1577 Z " />
<glyph glyph-name="Edieresis" unicode="&#xcb;" horiz-adv-x="1100" d="M152 741 L1026 741 L1026 782 L152 782 L152 1421 L1081 1421 L1081 1462 L111 1462 L111 0 L1089 0 L1089 41 L152 41 L152 741 Z M420 1573 L420 1739 L379 1739 L379 1573 L420 1573 Z M739 1573 L739 1739 L698 1739 L698 1573 L739 1573 Z " />
<glyph glyph-name="Igrave" unicode="&#xcc;" horiz-adv-x="262" d="M111 0 L152 0 L152 1462 L111 1462 L111 0 Z M203 1567 L234 1567 L-22 1862 L-82 1862 L203 1567 Z " />
<glyph glyph-name="Iacute" unicode="&#xcd;" horiz-adv-x="262" d="M111 0 L152 0 L152 1462 L111 1462 L111 0 Z M289 1862 L18 1567 L49 1567 L348 1862 L289 1862 Z " />
<glyph glyph-name="Icircumflex" unicode="&#xce;" horiz-adv-x="262" d="M111 0 L152 0 L152 1462 L111 1462 L111 0 Z M375 1577 L141 1862 L111 1862 L-121 1577 L-80 1577 L123 1829 L123 1829 L334 1577 L375 1577 Z " />
<glyph glyph-name="Idieresis" unicode="&#xcf;" horiz-adv-x="262" d="M111 0 L152 0 L152 1462 L111 1462 L111 0 Z M-10 1573 L-10 1739 L-51 1739 L-51 1573 L-10 1573 Z M309 1573 L309 1739 L268 1739 L268 1573 L309 1573 Z " />
<glyph glyph-name="Eth" unicode="&#xd0;" horiz-adv-x="1327" d="M111 741 L111 0 L559 0 Q833 0 1036 170 Q1241 342 1245 731 Q1243 948 1190 1092 Q1137 1231 1044 1313 Q954 1395 844 1431 Q735 1462 623 1462 L111 1462 L111 782 L-20 782 L-20 741 L111 741 Z M760 741 L760 782 L152 782 L152 1421 L612 1421 Q725 1421 829 1393 Q936 1360 1020 1282 Q1104 1206 1155 1071 Q1180 1003 1192 922 Q1204 836 1204 731 Q1200 379 1018 211 Q838 41 569 41 L152 41 L152 741 L760 741 Z " />
<glyph glyph-name="Ntilde" unicode="&#xd1;" horiz-adv-x="1327" d="M111 0 L152 0 L152 1411 L156 1411 L1155 0 L1216 0 L1216 1462 L1175 1462 L1175 51 L1171 51 L172 1462 L111 1462 L111 0 Z M445 1598 Q445 1641 473 1680 Q500 1717 543 1719 Q578 1719 609 1702 Q639 1684 668 1661 Q699 1639 733 1620 Q766 1600 803 1600 Q875 1600 912 1647 Q944 1692 944 1753 L903 1753 Q903 1710 879 1678 Q852 1641 803 1641 Q774 1641 744 1661 Q713 1680 680 1702 Q647 1725 613 1743 Q580 1760 543 1760 Q488 1758 449 1708 Q406 1659 404 1598 L445 1598 Z " />
<glyph glyph-name="Ograve" unicode="&#xd2;" horiz-adv-x="1477" d="M106 731 Q113 1055 279 1253 Q442 1452 739 1456 Q1036 1452 1202 1253 Q1368 1055 1372 731 Q1368 410 1202 211 Q1036 8 739 6 Q442 8 279 211 Q113 410 106 731 L106 731 Z M66 731 Q66 412 240 195 Q410 -31 739 -35 Q1069 -31 1243 195 Q1413 412 1413 731 Q1413 1055 1243 1272 Q1069 1493 739 1497 Q410 1493 240 1272 Q66 1055 66 731 L66 731 Z M830 1567 L861 1567 L605 1862 L545 1862 L830 1567 Z " />
<glyph glyph-name="Oacute" unicode="&#xd3;" horiz-adv-x="1477" d="M106 731 Q113 1055 279 1253 Q442 1452 739 1456 Q1036 1452 1202 1253 Q1368 1055 1372 731 Q1368 410 1202 211 Q1036 8 739 6 Q442 8 279 211 Q113 410 106 731 L106 731 Z M66 731 Q66 412 240 195 Q410 -31 739 -35 Q1069 -31 1243 195 Q1413 412 1413 731 Q1413 1055 1243 1272 Q1069 1493 739 1497 Q410 1493 240 1272 Q66 1055 66 731 L66 731 Z M916 1862 L645 1567 L676 1567 L975 1862 L916 1862 Z " />
<glyph glyph-name="Ocircumflex" unicode="&#xd4;" horiz-adv-x="1477" d="M106 731 Q113 1055 279 1253 Q442 1452 739 1456 Q1036 1452 1202 1253 Q1368 1055 1372 731 Q1368 410 1202 211 Q1036 8 739 6 Q442 8 279 211 Q113 410 106 731 L106 731 Z M66 731 Q66 412 240 195 Q410 -31 739 -35 Q1069 -31 1243 195 Q1413 412 1413 731 Q1413 1055 1243 1272 Q1069 1493 739 1497 Q410 1493 240 1272 Q66 1055 66 731 L66 731 Z M1002 1577 L768 1862 L738 1862 L506 1577 L547 1577 L750 1829 L750 1829 L961 1577 L1002 1577 Z " />
<glyph glyph-name="Otilde" unicode="&#xd5;" horiz-adv-x="1477" d="M106 731 Q113 1055 279 1253 Q442 1452 739 1456 Q1036 1452 1202 1253 Q1368 1055 1372 731 Q1368 410 1202 211 Q1036 8 739 6 Q442 8 279 211 Q113 410 106 731 L106 731 Z M66 731 Q66 412 240 195 Q410 -31 739 -35 Q1069 -31 1243 195 Q1413 412 1413 731 Q1413 1055 1243 1272 Q1069 1493 739 1497 Q410 1493 240 1272 Q66 1055 66 731 L66 731 Z M522 1598 Q522 1641 550 1680 Q577 1717 620 1719 Q655 1719 686 1702 Q716 1684 745 1661 Q776 1639 810 1620 Q843 1600 880 1600 Q952 1600 989 1647 Q1021 1692 1021 1753 L980 1753 Q980 1710 956 1678 Q929 1641 880 1641 Q851 1641 821 1661 Q790 1680 757 1702 Q724 1725 690 1743 Q657 1760 620 1760 Q565 1758 526 1708 Q483 1659 481 1598 L522 1598 Z " />
<glyph glyph-name="Odieresis" unicode="&#xd6;" horiz-adv-x="1477" d="M106 731 Q113 1055 279 1253 Q442 1452 739 1456 Q1036 1452 1202 1253 Q1368 1055 1372 731 Q1368 410 1202 211 Q1036 8 739 6 Q442 8 279 211 Q113 410 106 731 L106 731 Z M66 731 Q66 412 240 195 Q410 -31 739 -35 Q1069 -31 1243 195 Q1413 412 1413 731 Q1413 1055 1243 1272 Q1069 1493 739 1497 Q410 1493 240 1272 Q66 1055 66 731 L66 731 Z M617 1573 L617 1739 L576 1739 L576 1573 L617 1573 Z M936 1573 L936 1739 L895 1739 L895 1573 L936 1573 Z " />
<glyph glyph-name="multiply" unicode="&#xd7;" horiz-adv-x="1229" d="M586 518 L197 129 L225 100 L612 491 L612 491 L1003 100 L1032 129 L641 518 L1032 907 L1003 934 L612 543 L612 543 L225 934 L197 907 L586 518 Z " />
<glyph glyph-name="Oslash" unicode="&#xd8;" horiz-adv-x="1477" d="M260 233 L260 233 Q111 426 106 731 Q113 1055 279 1253 Q442 1452 739 1456 Q1026 1452 1190 1264 L260 233 Z M1216 1231 L1216 1231 Q1368 1038 1372 731 Q1368 410 1202 211 Q1036 8 739 6 Q448 8 287 203 L1216 1231 Z M82 35 L113 10 L258 172 L258 172 Q428 -31 739 -35 Q1069 -31 1243 195 Q1413 412 1413 731 Q1413 1051 1245 1264 L1370 1403 L1339 1427 L1218 1294 L1218 1294 Q1049 1493 739 1497 Q410 1493 240 1272 Q66 1055 66 731 Q66 416 231 201 L82 35 Z " />
<glyph glyph-name="Ugrave" unicode="&#xd9;" horiz-adv-x="1294" d="M1143 545 Q1143 10 647 6 Q149 10 152 545 L152 1462 L111 1462 L111 545 Q115 -35 647 -35 Q1178 -35 1184 545 L1184 1462 L1143 1462 L1143 545 Z M733 1567 L764 1567 L508 1862 L448 1862 L733 1567 Z " />
<glyph glyph-name="Uacute" unicode="&#xda;" horiz-adv-x="1294" d="M1143 545 Q1143 10 647 6 Q149 10 152 545 L152 1462 L111 1462 L111 545 Q115 -35 647 -35 Q1178 -35 1184 545 L1184 1462 L1143 1462 L1143 545 Z M819 1862 L548 1567 L579 1567 L878 1862 L819 1862 Z " />
<glyph glyph-name="Ucircumflex" unicode="&#xdb;" horiz-adv-x="1294" d="M1143 545 Q1143 10 647 6 Q149 10 152 545 L152 1462 L111 1462 L111 545 Q115 -35 647 -35 Q1178 -35 1184 545 L1184 1462 L1143 1462 L1143 545 Z M905 1577 L671 1862 L641 1862 L409 1577 L450 1577 L653 1829 L653 1829 L864 1577 L905 1577 Z " />
<glyph glyph-name="Udieresis" unicode="&#xdc;" horiz-adv-x="1294" d="M1143 545 Q1143 10 647 6 Q149 10 152 545 L152 1462 L111 1462 L111 545 Q115 -35 647 -35 Q1178 -35 1184 545 L1184 1462 L1143 1462 L1143 545 Z M518 1573 L518 1739 L477 1739 L477 1573 L518 1573 Z M837 1573 L837 1739 L796 1739 L796 1573 L837 1573 Z " />
<glyph glyph-name="Yacute" unicode="&#xdd;" horiz-adv-x="1102" d="M551 659 L551 659 L-10 1462 L-61 1462 L530 616 L530 0 L571 0 L571 616 L1163 1462 L1114 1462 L551 659 Z M725 1907 L454 1612 L485 1612 L784 1907 L725 1907 Z " />
<glyph glyph-name="Thorn" unicode="&#xde;" horiz-adv-x="1175" d="M152 1167 L702 1167 Q1106 1163 1106 809 Q1104 639 991 547 Q879 453 702 453 L152 453 L152 1167 Z M152 1208 L152 1462 L111 1462 L111 0 L152 0 L152 412 L682 412 Q889 412 1018 514 Q1145 616 1147 809 Q1141 1206 702 1208 L152 1208 Z " />
<glyph glyph-name="germandbls" unicode="&#xdf;" horiz-adv-x="985" d="M414 793 Q625 801 754 727 Q815 688 850 616 Q885 543 885 430 Q883 201 756 115 Q627 27 414 41 L414 0 Q702 -6 817 113 Q928 229 926 430 Q926 596 848 698 Q766 799 590 815 L590 819 Q723 844 786 934 Q850 1022 850 1149 Q848 1311 735 1399 Q627 1487 473 1487 Q336 1489 227 1413 Q178 1374 145 1307 Q113 1237 113 1139 L113 0 L154 0 L154 1132 Q154 1239 190 1302 Q225 1366 276 1397 Q328 1429 381 1440 Q434 1446 473 1446 Q618 1446 713 1368 Q807 1290 809 1149 Q807 971 692 899 Q575 827 414 833 L414 793 Z " />
<glyph glyph-name="agrave" unicode="&#xe0;" horiz-adv-x="985" d="M819 618 L815 618 Q797 592 756 575 Q713 559 655 553 Q541 541 408 534 Q346 532 291 520 Q233 506 186 477 Q139 451 115 397 Q86 346 86 260 Q86 217 104 172 Q119 129 156 94 Q223 18 393 16 Q600 18 711 143 Q819 264 819 424 L819 618 Z M111 727 Q119 881 219 979 Q317 1075 512 1077 Q657 1079 756 1014 Q852 946 860 776 L860 106 Q862 51 907 43 Q905 2 879 10 Q821 27 819 102 L819 240 L815 240 Q782 135 674 57 Q561 -23 397 -25 Q238 -25 143 49 Q47 121 45 260 Q45 358 78 420 Q109 479 162 512 Q215 545 279 559 Q342 573 408 575 Q518 582 596 588 Q674 594 723 608 Q772 623 797 655 Q819 688 819 745 Q819 797 813 846 Q803 897 772 940 Q743 985 682 1010 Q618 1036 512 1036 Q178 1032 152 727 L111 727 Z M576 1159 L607 1159 L351 1454 L291 1454 L576 1159 Z " />
<glyph glyph-name="aacute" unicode="&#xe1;" horiz-adv-x="985" d="M819 618 L815 618 Q797 592 756 575 Q713 559 655 553 Q541 541 408 534 Q346 532 291 520 Q233 506 186 477 Q139 451 115 397 Q86 346 86 260 Q86 217 104 172 Q119 129 156 94 Q223 18 393 16 Q600 18 711 143 Q819 264 819 424 L819 618 Z M111 727 Q119 881 219 979 Q317 1075 512 1077 Q657 1079 756 1014 Q852 946 860 776 L860 106 Q862 51 907 43 Q905 2 879 10 Q821 27 819 102 L819 240 L815 240 Q782 135 674 57 Q561 -23 397 -25 Q238 -25 143 49 Q47 121 45 260 Q45 358 78 420 Q109 479 162 512 Q215 545 279 559 Q342 573 408 575 Q518 582 596 588 Q674 594 723 608 Q772 623 797 655 Q819 688 819 745 Q819 797 813 846 Q803 897 772 940 Q743 985 682 1010 Q618 1036 512 1036 Q178 1032 152 727 L111 727 Z M664 1454 L393 1159 L424 1159 L723 1454 L664 1454 Z " />
<glyph glyph-name="acircumflex" unicode="&#xe2;" horiz-adv-x="985" d="M819 618 L815 618 Q797 592 756 575 Q713 559 655 553 Q541 541 408 534 Q346 532 291 520 Q233 506 186 477 Q139 451 115 397 Q86 346 86 260 Q86 217 104 172 Q119 129 156 94 Q223 18 393 16 Q600 18 711 143 Q819 264 819 424 L819 618 Z M111 727 Q119 881 219 979 Q317 1075 512 1077 Q657 1079 756 1014 Q852 946 860 776 L860 106 Q862 51 907 43 Q905 2 879 10 Q821 27 819 102 L819 240 L815 240 Q782 135 674 57 Q561 -23 397 -25 Q238 -25 143 49 Q47 121 45 260 Q45 358 78 420 Q109 479 162 512 Q215 545 279 559 Q342 573 408 575 Q518 582 596 588 Q674 594 723 608 Q772 623 797 655 Q819 688 819 745 Q819 797 813 846 Q803 897 772 940 Q743 985 682 1010 Q618 1036 512 1036 Q178 1032 152 727 L111 727 Z M750 1169 L516 1454 L486 1454 L254 1169 L295 1169 L498 1421 L498 1421 L709 1169 L750 1169 Z " />
<glyph glyph-name="atilde" unicode="&#xe3;" horiz-adv-x="985" d="M819 618 L815 618 Q797 592 756 575 Q713 559 655 553 Q541 541 408 534 Q346 532 291 520 Q233 506 186 477 Q139 451 115 397 Q86 346 86 260 Q86 217 104 172 Q119 129 156 94 Q223 18 393 16 Q600 18 711 143 Q819 264 819 424 L819 618 Z M111 727 Q119 881 219 979 Q317 1075 512 1077 Q657 1079 756 1014 Q852 946 860 776 L860 106 Q862 51 907 43 Q905 2 879 10 Q821 27 819 102 L819 240 L815 240 Q782 135 674 57 Q561 -23 397 -25 Q238 -25 143 49 Q47 121 45 260 Q45 358 78 420 Q109 479 162 512 Q215 545 279 559 Q342 573 408 575 Q518 582 596 588 Q674 594 723 608 Q772 623 797 655 Q819 688 819 745 Q819 797 813 846 Q803 897 772 940 Q743 985 682 1010 Q618 1036 512 1036 Q178 1032 152 727 L111 727 Z M269 1190 Q269 1233 297 1272 Q324 1309 367 1311 Q402 1311 433 1294 Q463 1276 492 1253 Q523 1231 557 1212 Q590 1192 627 1192 Q699 1192 736 1239 Q768 1284 768 1345 L727 1345 Q727 1302 703 1270 Q676 1233 627 1233 Q598 1233 568 1253 Q537 1272 504 1294 Q471 1317 437 1335 Q404 1352 367 1352 Q312 1350 273 1300 Q230 1251 228 1190 L269 1190 Z " />
<glyph glyph-name="adieresis" unicode="&#xe4;" horiz-adv-x="985" d="M819 618 L815 618 Q797 592 756 575 Q713 559 655 553 Q541 541 408 534 Q346 532 291 520 Q233 506 186 477 Q139 451 115 397 Q86 346 86 260 Q86 217 104 172 Q119 129 156 94 Q223 18 393 16 Q600 18 711 143 Q819 264 819 424 L819 618 Z M111 727 Q119 881 219 979 Q317 1075 512 1077 Q657 1079 756 1014 Q852 946 860 776 L860 106 Q862 51 907 43 Q905 2 879 10 Q821 27 819 102 L819 240 L815 240 Q782 135 674 57 Q561 -23 397 -25 Q238 -25 143 49 Q47 121 45 260 Q45 358 78 420 Q109 479 162 512 Q215 545 279 559 Q342 573 408 575 Q518 582 596 588 Q674 594 723 608 Q772 623 797 655 Q819 688 819 745 Q819 797 813 846 Q803 897 772 940 Q743 985 682 1010 Q618 1036 512 1036 Q178 1032 152 727 L111 727 Z M363 1165 L363 1331 L322 1331 L322 1165 L363 1165 Z M682 1165 L682 1331 L641 1331 L641 1165 L682 1165 Z " />
<glyph glyph-name="aring" unicode="&#xe5;" horiz-adv-x="985" d="M819 618 L815 618 Q797 592 756 575 Q713 559 655 553 Q541 541 408 534 Q346 532 291 520 Q233 506 186 477 Q139 451 115 397 Q86 346 86 260 Q86 217 104 172 Q119 129 156 94 Q223 18 393 16 Q600 18 711 143 Q819 264 819 424 L819 618 Z M111 727 Q119 881 219 979 Q317 1075 512 1077 Q657 1079 756 1014 Q852 946 860 776 L860 106 Q862 51 907 43 Q905 2 879 10 Q821 27 819 102 L819 240 L815 240 Q782 135 674 57 Q561 -23 397 -25 Q238 -25 143 49 Q47 121 45 260 Q45 358 78 420 Q109 479 162 512 Q215 545 279 559 Q342 573 408 575 Q518 582 596 588 Q674 594 723 608 Q772 623 797 655 Q819 688 819 745 Q819 797 813 846 Q803 897 772 940 Q743 985 682 1010 Q618 1036 512 1036 Q178 1032 152 727 L111 727 Z M682 1380 Q680 1456 629 1507 Q578 1558 502 1560 Q428 1558 377 1507 Q353 1483 338 1452 Q322 1417 322 1380 Q324 1304 377 1253 Q428 1200 502 1200 Q578 1200 629 1253 Q680 1304 682 1380 L682 1380 Z M641 1380 Q641 1323 602 1284 Q561 1241 502 1241 Q445 1241 406 1284 Q365 1323 363 1380 Q365 1440 406 1481 Q445 1520 502 1520 Q561 1520 602 1481 Q641 1440 641 1380 L641 1380 Z " />
<glyph glyph-name="ae" unicode="&#xe6;" horiz-adv-x="1821" d="M881 559 Q899 780 1005 909 Q1110 1034 1304 1036 Q1513 1034 1614 897 Q1714 762 1714 559 L881 559 Z M840 424 Q840 264 731 143 Q620 18 414 16 Q244 18 176 94 Q139 129 125 172 Q106 217 106 260 Q106 346 135 397 Q160 451 207 477 Q254 506 311 520 Q367 532 428 534 Q561 541 676 553 Q733 559 776 575 Q817 592 836 618 L840 618 L840 424 Z M172 727 Q199 1032 532 1036 Q639 1036 702 1010 Q764 985 793 940 Q823 897 833 846 Q840 797 840 745 Q840 688 817 655 Q793 623 743 608 Q694 594 616 588 Q539 582 428 575 Q362 573 299 559 Q236 545 182 512 Q129 479 98 420 Q66 358 66 260 Q68 121 164 49 Q258 -25 418 -25 Q586 -23 709 68 Q829 156 862 317 L866 317 Q956 -18 1300 -25 Q1491 -20 1612 86 Q1730 190 1749 365 L1708 365 Q1683 197 1573 106 Q1460 16 1300 16 Q1079 18 983 164 Q887 305 881 518 L1755 518 Q1765 747 1655 909 Q1544 1073 1304 1077 Q1139 1075 1034 991 Q928 905 885 770 L881 770 Q872 946 776 1014 Q678 1079 532 1077 Q338 1075 240 979 Q139 881 131 727 L172 727 Z " />
<glyph glyph-name="ccedilla" unicode="&#xe7;" horiz-adv-x="1024" d="M919 358 Q903 201 799 109 Q690 16 530 16 Q322 18 213 164 Q104 305 104 504 Q102 700 205 864 Q258 942 344 989 Q430 1036 555 1036 Q690 1036 788 962 Q885 887 911 733 L952 733 Q930 903 819 991 Q707 1077 555 1077 Q303 1073 184 907 Q63 741 63 504 Q63 293 180 145 Q293 -4 502 -20 L401 -149 L432 -170 Q477 -143 543 -143 Q577 -143 616 -162 Q653 -182 655 -225 Q653 -285 606 -309 Q557 -334 496 -334 Q416 -332 346 -301 L328 -340 Q358 -350 401 -360 Q442 -373 496 -375 Q580 -375 637 -344 Q694 -311 696 -225 Q694 -158 651 -129 Q606 -102 543 -102 Q516 -102 504 -106 Q489 -111 475 -115 L543 -23 Q909 -2 960 358 L919 358 Z " />
<glyph glyph-name="egrave" unicode="&#xe8;" horiz-adv-x="1024" d="M92 559 Q109 784 225 909 Q344 1034 516 1036 Q723 1034 829 897 Q934 760 932 559 L92 559 Z M973 518 Q983 743 870 907 Q758 1073 512 1077 Q328 1077 195 934 Q55 793 51 526 Q49 287 162 133 Q270 -23 512 -25 Q696 -23 817 80 Q936 182 960 365 L919 365 Q850 18 508 16 Q287 18 190 162 Q94 301 92 518 L973 518 Z M592 1159 L623 1159 L367 1454 L307 1454 L592 1159 Z " />
<glyph glyph-name="eacute" unicode="&#xe9;" horiz-adv-x="1024" d="M92 559 Q109 784 225 909 Q344 1034 516 1036 Q723 1034 829 897 Q934 760 932 559 L92 559 Z M973 518 Q983 743 870 907 Q758 1073 512 1077 Q328 1077 195 934 Q55 793 51 526 Q49 287 162 133 Q270 -23 512 -25 Q696 -23 817 80 Q936 182 960 365 L919 365 Q850 18 508 16 Q287 18 190 162 Q94 301 92 518 L973 518 Z M678 1454 L407 1159 L438 1159 L737 1454 L678 1454 Z " />
<glyph glyph-name="ecircumflex" unicode="&#xea;" horiz-adv-x="1024" d="M92 559 Q109 784 225 909 Q344 1034 516 1036 Q723 1034 829 897 Q934 760 932 559 L92 559 Z M973 518 Q983 743 870 907 Q758 1073 512 1077 Q328 1077 195 934 Q55 793 51 526 Q49 287 162 133 Q270 -23 512 -25 Q696 -23 817 80 Q936 182 960 365 L919 365 Q850 18 508 16 Q287 18 190 162 Q94 301 92 518 L973 518 Z M764 1169 L530 1454 L500 1454 L268 1169 L309 1169 L512 1421 L512 1421 L723 1169 L764 1169 Z " />
<glyph glyph-name="edieresis" unicode="&#xeb;" horiz-adv-x="1024" d="M92 559 Q109 784 225 909 Q344 1034 516 1036 Q723 1034 829 897 Q934 760 932 559 L92 559 Z M973 518 Q983 743 870 907 Q758 1073 512 1077 Q328 1077 195 934 Q55 793 51 526 Q49 287 162 133 Q270 -23 512 -25 Q696 -23 817 80 Q936 182 960 365 L919 365 Q850 18 508 16 Q287 18 190 162 Q94 301 92 518 L973 518 Z M379 1165 L379 1331 L338 1331 L338 1165 L379 1165 Z M698 1165 L698 1331 L657 1331 L657 1165 L698 1165 Z " />
<glyph glyph-name="igrave" unicode="&#xec;" horiz-adv-x="266" d="M154 0 L154 1053 L113 1053 L113 0 L154 0 Z M207 1159 L238 1159 L-18 1454 L-78 1454 L207 1159 Z " />
<glyph glyph-name="iacute" unicode="&#xed;" horiz-adv-x="266" d="M154 0 L154 1053 L113 1053 L113 0 L154 0 Z M291 1454 L20 1159 L51 1159 L350 1454 L291 1454 Z " />
<glyph glyph-name="icircumflex" unicode="&#xee;" horiz-adv-x="266" d="M154 0 L154 1053 L113 1053 L113 0 L154 0 Z M381 1169 L147 1454 L117 1454 L-115 1169 L-74 1169 L129 1421 L129 1421 L340 1169 L381 1169 Z " />
<glyph glyph-name="idieresis" unicode="&#xef;" horiz-adv-x="266" d="M154 0 L154 1053 L113 1053 L113 0 L154 0 Z M-6 1165 L-6 1331 L-47 1331 L-47 1165 L-6 1165 Z M313 1165 L313 1331 L272 1331 L272 1165 L313 1165 Z " />
<glyph glyph-name="eth" unicode="&#xf0;" horiz-adv-x="1063" d="M262 1190 L293 1159 L543 1298 L543 1298 Q620 1235 715 1126 Q807 1016 872 891 L864 891 Q805 971 717 1005 Q629 1038 532 1038 Q301 1034 180 879 Q57 725 57 508 Q57 293 180 139 Q301 -18 530 -23 Q764 -18 885 139 Q1005 293 1005 508 Q1010 934 586 1317 L831 1454 L801 1487 L801 1487 L549 1347 L549 1347 Q473 1413 352 1479 L319 1450 Q438 1386 510 1327 L262 1190 Z M98 508 Q98 707 211 848 Q319 993 532 997 Q745 993 856 848 Q965 707 965 508 Q965 311 856 168 Q745 23 532 18 Q319 23 211 168 Q98 311 98 508 L98 508 Z " />
<glyph glyph-name="ntilde" unicode="&#xf1;" horiz-adv-x="1024" d="M113 0 L154 0 L154 596 Q154 776 252 905 Q348 1032 537 1036 Q676 1036 772 956 Q868 874 870 692 L870 0 L911 0 L911 698 Q909 883 807 981 Q707 1077 537 1077 Q383 1075 287 997 Q188 917 158 793 L154 793 L154 1053 L113 1053 L113 0 Z M287 1190 Q287 1233 315 1272 Q342 1309 385 1311 Q420 1311 451 1294 Q481 1276 510 1253 Q541 1231 575 1212 Q608 1192 645 1192 Q717 1192 754 1239 Q786 1284 786 1345 L745 1345 Q745 1302 721 1270 Q694 1233 645 1233 Q616 1233 586 1253 Q555 1272 522 1294 Q489 1317 455 1335 Q422 1352 385 1352 Q330 1350 291 1300 Q248 1251 246 1190 L287 1190 Z " />
<glyph glyph-name="ograve" unicode="&#xf2;" horiz-adv-x="1063" d="M57 526 Q57 305 180 143 Q301 -20 530 -25 Q764 -20 885 143 Q1005 305 1005 526 Q1005 750 885 911 Q764 1073 532 1077 Q301 1073 180 911 Q57 750 57 526 L57 526 Z M98 526 Q98 731 211 881 Q319 1032 532 1036 Q745 1032 856 881 Q965 731 965 526 Q965 319 856 172 Q745 20 532 16 Q319 20 211 172 Q98 319 98 526 L98 526 Z M615 1159 L646 1159 L390 1454 L330 1454 L615 1159 Z " />
<glyph glyph-name="oacute" unicode="&#xf3;" horiz-adv-x="1063" d="M57 526 Q57 305 180 143 Q301 -20 530 -25 Q764 -20 885 143 Q1005 305 1005 526 Q1005 750 885 911 Q764 1073 532 1077 Q301 1073 180 911 Q57 750 57 526 L57 526 Z M98 526 Q98 731 211 881 Q319 1032 532 1036 Q745 1032 856 881 Q965 731 965 526 Q965 319 856 172 Q745 20 532 16 Q319 20 211 172 Q98 319 98 526 L98 526 Z M701 1454 L430 1159 L461 1159 L760 1454 L701 1454 Z " />
<glyph glyph-name="ocircumflex" unicode="&#xf4;" horiz-adv-x="1063" d="M57 526 Q57 305 180 143 Q301 -20 530 -25 Q764 -20 885 143 Q1005 305 1005 526 Q1005 750 885 911 Q764 1073 532 1077 Q301 1073 180 911 Q57 750 57 526 L57 526 Z M98 526 Q98 731 211 881 Q319 1032 532 1036 Q745 1032 856 881 Q965 731 965 526 Q965 319 856 172 Q745 20 532 16 Q319 20 211 172 Q98 319 98 526 L98 526 Z M787 1169 L553 1454 L523 1454 L291 1169 L332 1169 L535 1421 L535 1421 L746 1169 L787 1169 Z " />
<glyph glyph-name="otilde" unicode="&#xf5;" horiz-adv-x="1063" d="M57 526 Q57 305 180 143 Q301 -20 530 -25 Q764 -20 885 143 Q1005 305 1005 526 Q1005 750 885 911 Q764 1073 532 1077 Q301 1073 180 911 Q57 750 57 526 L57 526 Z M98 526 Q98 731 211 881 Q319 1032 532 1036 Q745 1032 856 881 Q965 731 965 526 Q965 319 856 172 Q745 20 532 16 Q319 20 211 172 Q98 319 98 526 L98 526 Z M310 1190 Q310 1233 338 1272 Q365 1309 408 1311 Q443 1311 474 1294 Q504 1276 533 1253 Q564 1231 598 1212 Q631 1192 668 1192 Q740 1192 777 1239 Q809 1284 809 1345 L768 1345 Q768 1302 744 1270 Q717 1233 668 1233 Q639 1233 609 1253 Q578 1272 545 1294 Q512 1317 478 1335 Q445 1352 408 1352 Q353 1350 314 1300 Q271 1251 269 1190 L310 1190 Z " />
<glyph glyph-name="odieresis" unicode="&#xf6;" horiz-adv-x="1063" d="M57 526 Q57 305 180 143 Q301 -20 530 -25 Q764 -20 885 143 Q1005 305 1005 526 Q1005 750 885 911 Q764 1073 532 1077 Q301 1073 180 911 Q57 750 57 526 L57 526 Z M98 526 Q98 731 211 881 Q319 1032 532 1036 Q745 1032 856 881 Q965 731 965 526 Q965 319 856 172 Q745 20 532 16 Q319 20 211 172 Q98 319 98 526 L98 526 Z M402 1165 L402 1331 L361 1331 L361 1165 L402 1165 Z M721 1165 L721 1331 L680 1331 L680 1165 L721 1165 Z " />
<glyph glyph-name="divide" unicode="&#xf7;" horiz-adv-x="1229" d="M1130 498 L1130 539 L98 539 L98 498 L1130 498 Z M614 868 Q700 870 698 952 Q694 1032 614 1036 Q532 1034 530 952 Q528 870 614 868 L614 868 Z M614 0 Q700 2 698 84 Q694 164 614 168 Q532 166 530 84 Q528 2 614 0 L614 0 Z " />
<glyph glyph-name="oslash" unicode="&#xf8;" horiz-adv-x="1063" d="M188 203 L188 203 Q98 344 98 526 Q98 731 211 881 Q319 1032 532 1036 Q739 1032 844 889 L188 203 Z M868 856 L868 856 Q965 713 965 526 Q965 319 856 172 Q745 20 532 16 Q319 18 213 170 L868 856 Z M874 919 L874 919 Q754 1075 532 1077 Q301 1073 180 911 Q57 750 57 526 Q57 324 160 172 L37 45 L66 16 L182 137 L182 137 Q303 -20 530 -25 Q764 -20 885 143 Q1005 305 1005 526 Q1005 735 899 887 L995 987 L967 1016 L874 919 Z " />
<glyph glyph-name="ugrave" unicode="&#xf9;" horiz-adv-x="1024" d="M911 1053 L870 1053 L870 457 Q870 276 774 152 Q678 18 487 16 Q350 16 254 98 Q156 180 154 360 L154 1053 L113 1053 L113 354 Q113 172 219 76 Q322 -23 487 -25 Q645 -23 741 57 Q838 137 866 260 L870 260 L870 0 L911 0 L911 1053 Z M590 1159 L621 1159 L365 1454 L305 1454 L590 1159 Z " />
<glyph glyph-name="uacute" unicode="&#xfa;" horiz-adv-x="1024" d="M911 1053 L870 1053 L870 457 Q870 276 774 152 Q678 18 487 16 Q350 16 254 98 Q156 180 154 360 L154 1053 L113 1053 L113 354 Q113 172 219 76 Q322 -23 487 -25 Q645 -23 741 57 Q838 137 866 260 L870 260 L870 0 L911 0 L911 1053 Z M680 1454 L409 1159 L440 1159 L739 1454 L680 1454 Z " />
<glyph glyph-name="ucircumflex" unicode="&#xfb;" horiz-adv-x="1024" d="M911 1053 L870 1053 L870 457 Q870 276 774 152 Q678 18 487 16 Q350 16 254 98 Q156 180 154 360 L154 1053 L113 1053 L113 354 Q113 172 219 76 Q322 -23 487 -25 Q645 -23 741 57 Q838 137 866 260 L870 260 L870 0 L911 0 L911 1053 Z M766 1169 L532 1454 L502 1454 L270 1169 L311 1169 L514 1421 L514 1421 L725 1169 L766 1169 Z " />
<glyph glyph-name="udieresis" unicode="&#xfc;" horiz-adv-x="1024" d="M911 1053 L870 1053 L870 457 Q870 276 774 152 Q678 18 487 16 Q350 16 254 98 Q156 180 154 360 L154 1053 L113 1053 L113 354 Q113 172 219 76 Q322 -23 487 -25 Q645 -23 741 57 Q838 137 866 260 L870 260 L870 0 L911 0 L911 1053 Z M379 1165 L379 1331 L338 1331 L338 1165 L379 1165 Z M698 1165 L698 1331 L657 1331 L657 1165 L698 1165 Z " />
<glyph glyph-name="yacute" unicode="&#xfd;" horiz-adv-x="834" d="M438 55 L438 55 L20 1053 L-25 1053 L416 10 L340 -186 Q305 -276 252 -301 Q197 -326 94 -321 L94 -362 Q190 -365 262 -342 Q334 -317 373 -215 L858 1053 L815 1053 L438 55 Z M588 1497 L317 1202 L348 1202 L647 1497 L588 1497 Z " />
<glyph glyph-name="thorn" unicode="&#xfe;" horiz-adv-x="1100" d="M987 528 Q987 438 971 348 Q950 258 901 182 Q856 109 776 63 Q696 16 580 16 Q391 16 274 152 Q156 285 154 528 Q154 739 260 887 Q365 1032 580 1036 Q797 1032 893 885 Q987 737 987 528 L987 528 Z M154 295 L158 295 Q244 -16 580 -25 Q815 -20 924 143 Q1028 301 1028 528 Q1028 772 915 924 Q801 1075 580 1077 Q408 1075 303 987 Q199 899 158 758 L154 758 L154 1462 L113 1462 L113 -362 L154 -362 L154 295 Z " />
<glyph glyph-name="ydieresis" unicode="&#xff;" horiz-adv-x="834" d="M438 55 L438 55 L20 1053 L-25 1053 L416 10 L340 -186 Q305 -276 252 -301 Q197 -326 94 -321 L94 -362 Q190 -365 262 -342 Q334 -317 373 -215 L858 1053 L815 1053 L438 55 Z M287 1208 L287 1374 L246 1374 L246 1208 L287 1208 Z M606 1208 L606 1374 L565 1374 L565 1208 L606 1208 Z " />
<glyph glyph-name="FL266" unicode="&#xe002;" horiz-adv-x="569" d="" />
<glyph glyph-name="fraction" unicode="&#xe003;" horiz-adv-x="342" d="M-340 -70 L-293 -70 L682 1462 L635 1462 L-340 -70 Z " />
<glyph glyph-name="_" unicode="&#xe004;" horiz-adv-x="682" d="" />
<glyph glyph-name="Lslash" unicode="&#xe006;" horiz-adv-x="985" d="M1005 0 L1005 41 L152 41 L152 580 L659 936 L659 985 L659 985 L152 629 L152 629 L152 1462 L111 1462 L111 600 L-41 494 L-41 444 L-41 444 L111 551 L111 551 L111 0 L1005 0 Z " />
<glyph glyph-name="lslash" unicode="&#xe007;" horiz-adv-x="266" d="M113 1462 L113 819 L-37 690 L-37 639 L-37 639 L113 768 L113 768 L113 0 L154 0 L154 803 L303 932 L303 983 L303 983 L154 854 L154 854 L154 1462 L113 1462 Z " />
<glyph glyph-name="minus" unicode="&#xe008;" horiz-adv-x="1229" d="M1130 498 L1130 539 L98 539 L98 498 L1130 498 Z " />
<glyph glyph-name="FL0" unicode="&#xe000;" d="" />
<glyph glyph-name="Zcaron" unicode="&#x17d;" horiz-adv-x="1024" d="M2 41 L1024 1407 L1024 1462 L18 1462 L18 1421 L983 1421 L-39 55 L-39 0 L1040 0 L1040 41 L2 41 Z M264 1906 L498 1621 L528 1621 L760 1906 L719 1906 L516 1654 L516 1654 L305 1906 L264 1906 Z " />
<glyph glyph-name="fi" unicode="&#xfb01;" horiz-adv-x="684" d="M-2 932 L-2 973 L178 973 L178 1286 Q180 1409 250 1438 Q315 1464 385 1462 Q584 1475 572 1095 L531 1095 Q550 1433 377 1421 Q281 1421 250 1386 Q217 1350 219 1272 L219 973 L446 973 L446 932 L219 932 L219 0 L178 0 L178 932 L-2 932 Z M572 0 L531 0 L531 1053 L572 1053 L572 0 Z " />
<glyph glyph-name="fl" unicode="&#xfb02;" horiz-adv-x="684" d="M-2 932 L-2 973 L178 973 L178 1286 Q180 1409 250 1438 Q315 1464 385 1462 Q440 1460 545 1447 L537 1394 Q420 1421 377 1421 Q281 1421 250 1386 Q217 1350 219 1272 L219 973 L446 973 L446 932 L219 932 L219 0 L178 0 L178 932 L-2 932 Z M531 1462 L572 1462 L572 0 L531 0 L531 1462 Z " />
</font>
</svg>
