<?xml version="1.0" encoding="UTF-8"?>
<svg xmlns="http://www.w3.org/2000/svg" xmlns:xlink="http://www.w3.org/1999/xlink" version="1.2" >
<font id="Aardvark Cafe">
<font-face  font-family="Aardvark Cafe" units-per-em="1000" ascent="950" descent="-200" font-style="normal" font-weight="400" font-stretch="normal" cap-height="750" x-height="500" underline-position="-133" underline-thickness="20" />
<missing-glyph  horiz-adv-x="500" d="M63 0 L63 950 L438 950 L438 0 L63 0 Z M125 63 L375 63 L375 888 L125 888 L125 63 Z " />
<glyph glyph-name="space" unicode="&#x20;" horiz-adv-x="227" d="" />
<glyph glyph-name="exclam" unicode="&#x21;" horiz-adv-x="361" d="M146 157 Q180 155 202 134 Q224 113 220 80 Q215 39 177 13 Q139 -13 97 -10 Q64 -8 44 13 Q21 35 25 67 Q30 108 67.5 134 Q105 160 146 157 Z M225 761 L374 761 L227 208 L79 208 L187 617 Q153 596 107 596 Q93 596 77 599 L102 695 Q115 692 127 692 Q192 692 225 761 Z " />
<glyph glyph-name="quotedbl" unicode="&#x22;" horiz-adv-x="316" d="M398 463 L278 463 L337 754 L490 754 L398 463 Z M197 463 L77 463 L136 754 L289 754 L197 463 Z " />
<glyph glyph-name="numbersign" unicode="&#x23;" horiz-adv-x="273" d="M259 510 L249 472 L325 472 L298 369 L220 369 L119 0 L-19 0 L82 369 L24 369 L51 472 L110 472 L120 510 Q127 533 140 560 Q174 630 236 672 Q298 714 361 714 Q435 714 478 656 L453 561 Q446 575 436 586 Q413 612 383 617 Q303 624 259 510 Z " />
<glyph glyph-name="dollar" unicode="&#x24;" horiz-adv-x="479" d="M463 747 Q527 731 551 713 L514 574 Q439 626 331 627 Q305 628 277 610 Q243 589 236 554 Q226 505 301 463 Q387 414 420 374 Q469 316 463 230 Q457 130 367 54 Q323 16 264 2 L239 -97 L90 -97 L115 -1 Q87 4 58 13 Q29 22 -24 41 L13 181 Q97 135 188 135 Q237 135 271 155 Q312 180 312 225 Q312 289 248 325 L170 370 Q143 386 134 395 Q88 445 88 498 Q88 517 93 540 Q127 543 161 570 Q193 594 211 626 Q172 580 77 580 Q57 580 36 582 L61 678 Q79 676 95 676 Q153 676 187 701 Q252 749 317 759 L341 846 L490 846 L463 747 Z " />
<glyph glyph-name="percent" unicode="&#x25;" horiz-adv-x="431" d="M295 355 Q288 360 278 360 Q261 360 239 344 Q216 325 209 318 Q195 304 187 287 L111 -1 L-27 -1 L159 709 L298 709 L228 442 Q283 474 336 474 Q355 474 369 470 Q450 433 450 347 Q450 331 447 318 L364 -1 L226 -1 L309 318 Q310 324 310 328 Q310 346 295 355 Z " />
<glyph glyph-name="ampersand" unicode="&#x26;" horiz-adv-x="706" d="M389 126 L449 371 Q424 371 371 370 Q201 369 165 225 Q162 214 162 202 Q162 158 204 128 Q241 102 281 102 Q344 102 389 126 Z M539 -71 Q566 -72 581 -52 L612 -142 Q565 -192 477 -196 Q419 -196 381 -155 Q350 -121 349 -83 Q347 -41 358 0 L362 18 Q279 -5 211 -5 Q128 -5 66.5 54.5 Q5 114 5 199 Q5 225 11 250 Q45 384 192 442 Q156 482 151 541 Q221 550 259 626 Q220 580 124 580 Q105 580 84 582 L109 678 Q199 675 248 705 Q332 765 415 765 Q520 765 583 674 L552 556 Q540 575 525 589 Q491 623 453 624 Q443 626 432 626 Q393 626 357 605 Q321 584 310 550 Q306 537 306 525 Q306 473 411 473 L706 474 L679 371 L588 371 L496 0 Q492 -17 492 -29 Q492 -67 539 -71 Z " />
<glyph glyph-name="quotesingle" unicode="&#x27;" horiz-adv-x="200" d="M243 463 L123 463 L182 754 L335 754 L243 463 Z " />
<glyph glyph-name="parenleft" unicode="&#x28;" horiz-adv-x="279" d="M76 311 Q119 477 212 624 Q168 579 83 579 Q64 579 44 582 L69 678 Q124 676 200 701 Q284 728 316 766 L451 738 Q203 425 203 107 Q203 0 232 -107 L82 -136 Q47 -23 47 95 Q47 201 76 311 Z " />
<glyph glyph-name="parenright" unicode="&#x29;" horiz-adv-x="287" d="M83 -136 L-51 -108 Q197 205 197 524 Q197 630 168 737 L317 766 Q352 654 352 536 Q352 426 324 319 Q260 71 83 -136 Z " />
<glyph glyph-name="asterisk" unicode="&#x2a;" horiz-adv-x="495" d="M375 532 L468 478 L401 401 L314 462 L285 348 L188 348 L217 460 L99 401 L70 482 L188 535 L97 589 L164 664 L255 605 L283 717 L380 717 L352 608 L466 665 L495 585 L375 532 Z " />
<glyph glyph-name="plus" unicode="&#x2b;" horiz-adv-x="419" d="M97 0 L-29 0 L159 710 L285 710 L215 445 Q269 478 321 481 Q379 481 409 444 Q436 413 431 373 Q430 360 425 330 Q402 222 281 172 Q330 129 324 32 Q323 16 322 0 L208 0 Q211 23 211 41 Q211 119 162 151 L182 238 Q310 270 321 338 Q317 378 284 378 Q262 378 230 359.5 Q198 341 175 292 L97 0 Z " />
<glyph glyph-name="comma" unicode="&#x2c;" horiz-adv-x="165" d="M154 37 L45 -113 L-9 -111 L36 -21 Q4 -18 -16 3.5 Q-36 25 -33 56 Q-28 96 9.5 122.5 Q47 149 88 146 Q122 144 144 122.5 Q166 101 162 69 Q160 53 153 39 L154 37 Z " />
<glyph glyph-name="&amp;#x2d;" unicode="&#x2d;" horiz-adv-x="264" d="M49 192 L84 326 L222 326 L188 192 L49 192 Z " />
<glyph glyph-name="&amp;#x2010;" unicode="&#x2010;" horiz-adv-x="264" d="M49 192 L84 326 L222 326 L188 192 L49 192 Z " />
<glyph glyph-name="period" unicode="&#x2e;" horiz-adv-x="165" d="M88 146 Q122 144 144 122.5 Q166 101 162 69 Q157 27 119 1 Q81 -25 39 -21 Q6 -19 -14 2 Q-37 24 -33 56 Q-28 96 9.5 122.5 Q47 149 88 146 Z " />
<glyph glyph-name="slash" unicode="&#x2f;" horiz-adv-x="455" d="M489 754 L639 754 L132 0 L-19 0 L489 754 Z " />
<glyph glyph-name="zero" unicode="0" horiz-adv-x="476" d="M370 630 Q318 630 274 522 Q260 486 231 377 Q202 265 198 220 Q197 206 197 194 Q197 124 240 124 Q291 124 334 232 Q354 280 379 377 Q407 486 411 534 Q412 548 412 560 Q412 630 370 630 Z M244 626 Q205 580 109 580 Q90 580 69 582 L94 678 Q184 675 233 705 Q319 766 405 766 Q564 766 564 564 Q564 476 538 377 Q501 234 433 133 Q335 -12 204 -12 Q46 -12 46 191 Q46 276 72 377 Q93 460 133 541 Q205 548 244 626 Z " />
<glyph glyph-name="one" unicode="1" horiz-adv-x="476" d="M295 610 Q260 589 214 589 Q199 589 183 592 L208 688 Q221 685 233 685 Q298 685 332 754 L491 754 L296 0 L137 0 L295 610 Z " />
<glyph glyph-name="two" unicode="2" horiz-adv-x="477" d="M131 533 Q132 537 134 545 Q192 561 224 626 Q185 580 89 580 Q70 580 49 582 L74 678 Q164 675 213 705 Q300 767 408 767 Q603 767 590 617 Q581 514 460 369 L260 130 L453 130 L419 0 L-17 0 L251 312 Q337 412 361 447 Q424 536 429 597 Q434 662 383 662 Q313 662 285 540 L275 492 L123 492 L131 533 Z " />
<glyph glyph-name="three" unicode="3" horiz-adv-x="478" d="M310 751 Q351 766 402 766 Q482 766 526 730 Q576 690 569 612 Q563 537 523 478 Q480 413 413 391 L413 389 Q511 365 501 254 Q500 235 493 210 Q466 104 384.5 46 Q303 -12 191 -12 Q109 -12 63 25 Q10 66 17 145 Q19 170 27 198 L181 198 L175 177 Q173 172 173 166 Q169 118 221 118 Q269 118 299 168 Q323 208 327 262 Q331 307 297 322 Q275 332 223 330 L257 460 Q325 460 355 477 Q393 498 409 559 Q412 572 413 586 Q417 636 372 636 Q314 636 296 558 L293 543 L151 543 Q213 577 234 626 Q195 580 99 580 Q80 580 59 582 L84 678 Q174 675 223 705 Q266 735 310 751 L310 751 Z " />
<glyph glyph-name="four" unicode="4" horiz-adv-x="479" d="M566 754 L448 296 L515 296 L485 182 L418 182 L371 0 L211 0 L259 182 L-25 182 L241 558 Q266 559 297 577 Q335 600 346 634 Q295 587 225 587 Q211 587 197 590 L223 686 Q239 683 254 683 Q332 683 383 748 L566 754 Z M362 582 L360 582 L163 296 L288 296 L362 582 Z " />
<glyph glyph-name="five" unicode="5" horiz-adv-x="478" d="M267 625 Q271 631 273 636 Q235 589 162 589 Q147 589 132 592 L157 688 Q169 685 181 685 Q246 685 280 754 L597 754 L564 624 L361 624 L308 502 Q502 493 502 337 Q502 298 491 253 Q457 125 369 56.5 Q281 -12 149 -12 Q67 -12 -2 22 L60 153 Q99 118 152 118 Q219 118 267.5 167 Q316 216 322 283 Q331 389 184 389 Q161 389 120 383 L198 561 Q242 581 267 625 Z " />
<glyph glyph-name="six" unicode="6" horiz-adv-x="479" d="M520 754 L286 460 L288 458 Q349 499 401 499 Q471 499 500 442 Q524 396 517 323 Q515 291 508 265 Q478 145 404 71 Q321 -12 204 -12 Q121 -12 77.5 32 Q34 76 34 158 Q34 204 46 253 Q78 378 206 554 Q221 551 235 551 Q314 551 354 636 Q317 589 244 589 Q229 589 213 592 L238 688 Q251 685 263 685 Q328 685 361 754 L520 754 Z M352 290 Q358 367 309 367 Q269 367 236 316 Q201 261 196 201 Q188 115 239 115 Q309 115 344 249 Q350 274 352 290 Z " />
<glyph glyph-name="seven" unicode="7" horiz-adv-x="475" d="M211 754 L659 754 L152 0 L-19 0 L401 624 L178 624 L211 754 Z " />
<glyph glyph-name="eight" unicode="8" horiz-adv-x="478" d="M332 484 Q382 484 404 569 Q409 588 410 598 Q414 649 374 649 Q329 649 308 570 Q303 551 302 534 Q298 484 332 484 Z M294 334 Q226 334 198 225 Q193 206 191 191 Q185 118 239 118 Q276 118 305 158 Q338 202 342 252 Q349 334 294 334 Z M249 631 Q210 585 114 585 Q95 585 74 587 L99 683 Q189 680 238 710 Q317 766 407 766 Q485 766 530.5 723 Q576 680 570 604 Q564 535 519.5 481 Q475 427 408 407 L408 406 Q519 371 509 255 Q507 231 501 206 Q476 109 390 48 Q308 -12 206 -12 Q120 -12 67 34 Q11 83 18 168 Q19 186 24 206 Q64 363 220 406 L221 408 Q134 437 143 535 Q144 539 145 547 Q213 557 249 631 Z " />
<glyph glyph-name="nine" unicode="9" horiz-adv-x="474" d="M564 501 Q540 408 479 309 Q438 242 350 129 L249 0 L90 0 L325 295 L323 297 Q260 255 209 255 Q139 255 110 312 Q86 359 93 432 Q97 478 120 540 Q197 542 239 626 Q200 580 104 580 Q85 580 64 582 L89 678 Q179 675 228 705 Q314 766 406 766 Q578 766 578 598 Q578 554 564 501 Z M415 554 Q419 596 408 616.5 Q397 637 371 637 Q300 636 266 505 Q261 486 259 464 Q253 387 301 387 Q343 387 375 438 Q410 495 415 554 Z " />
<glyph glyph-name="colon" unicode="&#x3a;" horiz-adv-x="165" d="M88 146 Q122 144 144 122.5 Q166 101 162 69 Q157 27 119 1 Q81 -25 39 -21 Q6 -19 -14 2 Q-37 24 -33 56 Q-28 96 9.5 122.5 Q47 149 88 146 Z M157 410 Q191 408 213 386.5 Q235 365 231 333 Q226 291 188 265 Q150 239 108 243 Q75 245 55 266 Q32 288 36 320 Q41 360 78.5 386.5 Q116 413 157 410 Z " />
<glyph glyph-name="semicolon" unicode="&#x3b;" horiz-adv-x="165" d="M154 37 L45 -113 L-9 -111 L36 -21 Q4 -18 -16 3.5 Q-36 25 -33 56 Q-28 96 9.5 122.5 Q47 149 88 146 Q122 144 144 122.5 Q166 101 162 69 Q160 53 153 39 L154 37 Z M157 410 Q191 408 213 386.5 Q235 365 231 333 Q226 291 188 265 Q150 239 108 243 Q75 245 55 266 Q32 288 36 320 Q41 360 78.5 386.5 Q116 413 157 410 Z " />
<glyph glyph-name="less" unicode="&#x3c;" horiz-adv-x="225" d="M158 -73 Q185 -74 200 -54 L231 -144 Q184 -194 96 -198 Q38 -198 1 -157 Q-31 -123 -32 -85 Q-32 -93 -23 -2 L163 708 L302 708 L115 -2 Q111 -19 111 -32 Q111 -69 158 -73 Z " />
<glyph glyph-name="equal" unicode="&#x3d;" horiz-adv-x="714" d="M553 356 Q546 362 537 362 Q519 362 498 345 Q467 320 466 319 Q451 305 442 286 L367 0 L228 0 L312 315 Q313 320 313 325 Q313 342 297 351 Q291 357 281 357 Q264 357 242 340 Q206 311 199 302 Q181 279 173 234 L172 234 L110 0 L-28 0 L96 472 L234 472 L224 435 Q283 471 338 471 Q358 471 371 466 Q417 446 437 408 Q516 476 594 476 Q613 476 627 471 Q709 435 709 349 Q709 333 706 320 L622 0 L484 0 L567 320 Q569 325 569 330 Q569 347 553 356 Z " />
<glyph glyph-name="greater" unicode="&#x3e;" horiz-adv-x="469" d="M301 353 Q294 359 285 359 Q267 359 246 342 Q231 330 216 317 Q201 304 193 288 L117 0 L-21 0 L103 472 L241 472 L233 440 Q289 473 342 473 Q361 473 375 469 Q457 432 457 346 Q457 330 454 317 L370 0 L232 0 L315 317 Q317 322 317 327 Q317 344 301 353 Z " />
<glyph glyph-name="question" unicode="&#x3f;" horiz-adv-x="454" d="M269 546 L131 545 Q188 563 219 626 Q180 580 84 580 Q65 580 44 582 L69 678 Q159 675 208 705 Q294 766 377 766 Q452 766 495 726.5 Q538 687 538 613 Q538 577 529 541 Q512 469 468 414 Q418 350 354 334 L321 208 L172 208 L227 422 Q240 419 251 419 Q338 419 369 538 Q374 557 375 572 Q382 636 342 636 Q293 636 274 564 L269 546 Z M239 157 Q273 155 295 134 Q317 113 313 80 Q309 39 269 12 Q233 -13 190 -10 Q158 -8 136.5 13.5 Q115 35 118 67 Q123 108 160.5 134 Q198 160 239 157 Z " />
<glyph glyph-name="at" unicode="&#x40;" horiz-adv-x="700" d="M508 378 Q491 378 470 355 Q449 332 436 297 Q423 262 423 230 Q423 180 449 180 Q466 180 487 204 Q508 228 521.5 264 Q535 300 535 329 Q535 378 508 378 Z M127 443 Q142 440 156 440 Q236 440 279 526 Q240 480 144 480 Q125 480 104 482 L129 578 Q219 575 268 605 Q351 664 442 664 Q498 664 551 640 Q670 587 670 464 Q670 436 663 410 L609 202 Q608 196 608 192 Q608 177 625 177 Q634 177 647 182 L628 116 Q589 89 556 89 Q518 89 493 123 Q454 93 416 93 Q398 93 383 99 Q323 125 323 220 Q323 272 345 325 Q370 383 412.5 420 Q455 457 498 457 Q540 457 565 423 Q571 437 571 452 Q571 488 542.5 518.5 Q514 549 479 550 Q465 553 451 553 Q328 553 241 330 Q206 239 206 149 Q206 24 262 -6 Q272 -11 294 -17 Q392 -17 479 58 L434 -72 Q353 -128 273 -128 Q221 -128 177 -104 Q116 -70 83 1 Q50 72 50 163 Q50 308 127 443 Z " />
<glyph glyph-name="A" unicode="A" horiz-adv-x="541" d="M222 192 L317 192 L317 357 L222 192 Z M317 89 L163 89 L112 0 L-25 0 L306 559 Q359 583 381 634 Q330 587 260 587 Q246 587 232 590 L258 686 Q274 683 289 683 Q367 683 418 748 L472 839 L472 0 L317 0 L317 89 Z " />
<glyph glyph-name="B" unicode="B" horiz-adv-x="581" d="M264 340 L286 431 Q295 430 298 430 Q317 430 320 430 Q418 437 438 539 Q440 549 440 557 Q440 611 397 635 Q366 653 332 649 Q320 646 315 647 L146 0 L-13 0 L145 606 Q111 586 65 586 Q50 586 34 588 L59 684 Q72 682 84 682 Q149 682 183 750 L312 751 Q480 753 545 662 Q578 620 578 565 Q578 513 550 464.5 Q522 416 476 388 Q541 334 541 241 Q541 185 514 128 Q482 62 428.5 26 Q375 -10 317 -10 Q276 -10 239 8 Q228 13 184 36 L211 146 Q219 137 229 130 Q252 113 278 111 Q286 108 298 108 Q330 108 361 131 Q397 159 406 204 Q409 221 409 235 Q409 300 346 325 Q311 339 264 338 L265 340 L264 340 Z " />
<glyph glyph-name="C" unicode="C" horiz-adv-x="431" d="M52 543 Q67 540 81 540 Q161 540 204 626 Q165 580 69 580 Q50 580 29 582 L54 678 Q144 675 193 705 Q277 765 360 765 Q465 765 528 674 L497 556 Q485 575 470 589 Q436 623 398 624 Q386 627 373 627 Q261 627 182 424 Q150 341 150 260 Q150 146 201 119 Q210 114 230 109 Q319 108 398 177 L359 28 Q278 -28 198 -28 Q146 -28 102 -4 Q41 30 8 101 Q-25 172 -25 263 Q-25 408 52 543 Z " />
<glyph glyph-name="D" unicode="D" horiz-adv-x="569" d="M176 121 Q187 119 197 119 Q284 119 350 248 Q377 301 398 376 Q416 453 416 507 Q416 629 309 630 L176 121 Z M567 382 Q524 196 428 99 Q356 27 258 7 Q223 0 145 0 L-14 0 L145 606 Q110 586 64 586 Q49 586 33 588 L58 684 Q71 682 83 682 Q148 682 182 750 L182 749 L182 750 L340 750 Q474 750 534 665 Q579 601 579 496 Q579 439 567 382 Z " />
<glyph glyph-name="E" unicode="E" horiz-adv-x="438" d="M405 370 L228 370 L159 104 L411 104 L381 0 L-17 0 L141 606 Q107 586 61 586 Q46 586 30 588 L55 684 Q68 682 80 682 Q145 682 179 750 L571 750 L541 647 L300 647 L256 474 L435 474 L405 370 Z " />
<glyph glyph-name="F" unicode="F" horiz-adv-x="387" d="M392 370 L215 370 L119 0 L-30 0 L128 606 Q94 586 48 586 Q33 586 17 588 L42 684 Q55 682 67 682 Q132 682 166 750 L558 750 L528 647 L287 647 L242 474 L422 474 L392 370 Z " />
<glyph glyph-name="G" unicode="G" horiz-adv-x="563" d="M63 543 Q78 540 92 540 Q172 540 215 626 Q176 580 80 580 Q61 580 40 582 L65 678 Q155 675 204 705 Q288 765 371 765 Q476 765 539 674 L508 556 Q496 575 481 589 Q447 623 409 624 Q397 627 384 627 Q272 627 193 424 Q161 341 161 260 Q161 146 212 119 Q221 114 241 109 Q288 109 333 128 L396 370 L293 370 L319 474 L423 474 L424 474 L562 474 L438 -1 L321 -1 Q264 -28 209 -28 Q157 -28 113 -4 Q52 30 19 101 Q-14 172 -14 263 Q-14 408 63 543 Z " />
<glyph glyph-name="H" unicode="H" horiz-adv-x="530" d="M179 750 L327 750 L255 474 L389 474 L461 750 L609 750 L413 0 L265 0 L362 371 L228 371 L132 0 L-17 0 L141 606 Q107 586 61 586 Q46 586 30 588 L55 684 Q68 682 80 682 Q145 682 179 750 Z " />
<glyph glyph-name="I" unicode="I" horiz-adv-x="321" d="M193 648 Q144 648 103 608 L72 697 Q119 746 207 750 L235 750 L235 750 L264 750 L264 751 L446 751 L416 648 L356 648 L214 103 L279 103 L255 0 L-26 0 L4 103 L66 103 L208 648 L193 648 Z " />
<glyph glyph-name="J" unicode="J" horiz-adv-x="300" d="M200 606 Q165 586 119 586 Q105 586 89 588 L114 684 Q127 682 139 682 Q204 682 237 750 L386 750 L190 0 Q174 -62 159 -90 Q127 -154 63 -189 Q22 -209 -27 -209 Q-94 -209 -150 -167 L-85 -60 Q-58 -73 -37 -73 Q10 -73 42 0 L200 606 Z " />
<glyph glyph-name="K" unicode="K" horiz-adv-x="469" d="M371 345 Q412 284 415 197 Q415 166 407 110.5 Q399 55 399 37 Q399 11 409 0 Q429 -23 430 -23 Q440 -33 454 -33 Q469 -33 497 -22 L516 -129 Q441 -172 374 -172 Q325 -172 293 -151 Q234 -109 234 -33 Q234 -7 243 32.5 Q252 72 262 113 Q277 183 277 232 Q277 303 245 329 L268 420 L493 750 L649 750 L371 345 Z M128 606 Q94 586 48 586 Q33 586 17 588 L42 684 Q55 682 67 682 Q132 682 166 750 L325 750 L129 0 L-30 0 L128 606 Z " />
<glyph glyph-name="L" unicode="L" horiz-adv-x="460" d="M388 0 L-10 0 L148 606 Q114 586 68 586 Q53 586 37 588 L62 684 Q75 682 87 682 Q152 682 186 750 L334 750 L165 104 L418 104 L388 0 Z " />
<glyph glyph-name="M" unicode="M" horiz-adv-x="607" d="M471 476 L250 69 L242 463 L121 0 L-17 0 L141 606 Q107 586 61 586 Q46 586 30 588 L55 684 Q68 682 80 682 Q145 682 179 750 L343 750 L350 450 L514 750 L681 750 L485 0 L347 0 L471 476 Z " />
<glyph glyph-name="N" unicode="N" horiz-adv-x="522" d="M281 0 L283 9 L243 465 L121 0 L-17 0 L141 606 Q107 586 61 586 Q46 586 30 588 L55 684 Q68 682 80 682 Q145 682 179 750 L323 750 L364 318 L477 750 L615 750 L419 0 L281 0 Z " />
<glyph glyph-name="O" unicode="O" horiz-adv-x="564" d="M399 300 Q437 403 437 494 Q437 545 424 581 Q404 633 362 633 Q317 633 266 575 Q215 517 180 424 Q142 321 142 230 Q142 179 155 143 Q175 91 217 91 Q262 91 312.5 149 Q363 207 399 300 Z M49 678 Q66 676 83 676 Q141 676 175 701 Q262 770 350 770 Q402 770 448 745 Q514 709 550.5 632 Q587 555 587 457 Q587 341 537 229 Q484 109 395 37 Q306 -35 214 -35 Q162 -35 117 -10 Q51 26 14.5 103 Q-22 180 -22 278 Q-22 394 28 506 L50 544 Q65 540 79 540 Q156 540 199 626 Q160 580 64 580 Q45 580 24 582 L49 678 Z " />
<glyph glyph-name="P" unicode="P" horiz-adv-x="482" d="M133 606 Q98 586 52 586 Q37 586 22 588 L47 684 Q59 682 72 682 Q136 682 170 750 L329 750 Q448 750 532 662 Q565 615 565 556 Q565 478 501 404 Q443 355 379 339 Q321 321 250 329 L272 420 Q398 409 426 539 Q427 549 427 559 Q427 610 384 633 Q356 648 320 647 Q308 646 302 647 L133 0 L-26 0 L133 606 Z " />
<glyph glyph-name="Q" unicode="Q" horiz-adv-x="590" d="M399 300 Q437 403 437 494 Q437 545 424 581 Q404 633 362 633 Q317 633 266 575 Q215 517 180 424 Q142 321 142 230 Q142 179 155 143 Q175 91 217 91 Q262 91 312.5 149 Q363 207 399 300 Z M49 678 Q66 676 83 676 Q141 676 175 701 Q262 770 350 770 Q402 770 448 745 Q514 709 550.5 632 Q587 555 587 457 Q587 341 537 229 Q490 121 412.5 51.5 Q335 -18 251 -32 Q256 -76 294 -76 Q320 -76 335 -57 L366 -146 Q315 -201 231 -201 Q108 -201 108 -68 Q108 -45 112 -7 Q48 30 13 106 Q-22 182 -22 278 Q-22 394 28 506 L50 544 Q65 540 79 540 Q156 540 199 626 Q160 580 64 580 Q45 580 24 582 L49 678 Z " />
<glyph glyph-name="R" unicode="R" horiz-adv-x="505" d="M139 606 Q105 586 59 586 Q44 586 28 588 L53 684 Q66 682 78 682 Q143 682 177 750 L336 750 Q455 750 539 662 Q575 613 575 552 Q575 474 508 404 Q455 349 385 339 Q423 283 426 197 Q426 166 418 110.5 Q410 55 410 37 Q410 11 420 0 Q440 -23 441 -23 Q451 -33 465 -33 Q480 -33 508 -22 L527 -129 Q452 -172 385 -172 Q336 -172 304 -151 Q245 -109 245 -33 Q245 -7 254 32.5 Q263 72 273 113 Q288 183 288 232 Q288 303 256 329 L279 420 Q404 417 432 539 Q434 550 434 560 Q434 611 391 634 Q361 650 326 648 Q314 646 309 647 L140 0 L-19 0 L139 606 Z " />
<glyph glyph-name="S" unicode="S" horiz-adv-x="479" d="M364 762 Q410 762 472 745 Q529 729 551 713 L514 574 Q439 626 331 627 Q305 628 277 610 Q243 589 236 554 Q226 505 301 463 Q387 414 420 374 Q469 316 463 230 Q457 130 367 54 Q295 -7 183 -7 Q122 -7 58 14 Q29 22 -24 41 L13 181 Q97 135 188 135 Q237 135 271 155 Q312 180 312 225 Q312 289 248 325 L170 370 Q143 386 134 395 Q88 445 88 498 Q88 517 93 540 Q127 543 161 570 Q193 594 211 626 Q172 580 77 580 Q57 580 36 582 L61 678 Q79 676 95 676 Q153 676 187 701 Q268 762 364 762 Z " />
<glyph glyph-name="T" unicode="T" horiz-adv-x="352" d="M88 649 Q39 649 -2 609 L-33 699 Q14 748 102 751 Q194 750 500 750 L470 647 L316 647 L147 0 L-1 0 L168 648 L88 649 Z " />
<glyph glyph-name="U" unicode="U" horiz-adv-x="469" d="M150 123 Q171 109 193 109 Q213 109 229 120 Q256 142 268 163.5 Q280 185 293 235 L428 750 L576 750 L442 235 Q414 128 360 57 Q332 28 280.5 9.5 Q229 -9 173 -9 Q128 -9 90 4 Q-16 29 -16 147 Q-16 179 -9 207 L71 472 L106 607 Q71 586 25 586 Q10 586 -6 588 L19 684 Q32 682 44 682 Q109 682 143 750 L291 750 L219 472 L142 202 Q138 180 138 164 Q138 129 150 123 Z " />
<glyph glyph-name="V" unicode="V" horiz-adv-x="468" d="M257 -1 L115 -1 L116 632 Q67 582 -32 588 L-7 684 Q6 682 18 682 Q83 682 116 750 L253 750 L255 288 L476 750 L636 750 L257 -1 Z " />
<glyph glyph-name="W" unicode="W" horiz-adv-x="785" d="M117 633 Q77 587 -6 587 Q-18 587 -32 588 L-7 684 Q6 682 18 682 Q83 682 116 750 L253 750 L252 278 L476 750 L572 750 L573 278 L796 750 L957 750 L578 0 L439 0 L436 355 L257 0 L118 0 L117 633 Z " />
<glyph glyph-name="X" unicode="X" horiz-adv-x="529" d="M569 -71 Q596 -72 613 -52 L643 -142 Q599 -192 511 -196 Q454 -196 421 -160 Q399 -136 380 -83 Q363 -38 353 0 L293 220 L142 0 L-34 0 L242 403 L178 637 Q126 585 39 585 Q19 585 -1 588 L24 684 Q37 682 49 682 Q114 682 147 750 L303 750 L353 565 L480 750 L656 750 L404 382 L508 0 Q520 -67 569 -71 Z " />
<glyph glyph-name="Y" unicode="Y" horiz-adv-x="461" d="M647 750 L348 363 L252 0 L114 0 L210 367 L136 637 Q84 585 -3 585 Q-22 585 -43 588 L-18 684 Q-5 682 7 682 Q72 682 105 750 L261 750 L316 549 L471 750 L647 750 Z " />
<glyph glyph-name="Z" unicode="Z" horiz-adv-x="458" d="M240 650 Q192 650 150 610 L120 700 Q166 749 255 751 L589 750 L203 103 L414 103 L384 0 L-35 0 L354 650 L240 650 Z " />
<glyph glyph-name="bracketleft" unicode="&#x5b;" horiz-adv-x="361" d="M389 750 Q437 750 478 790 L509 701 Q462 652 374 648 L295 648 L126 0 L-23 0 L146 647 L-24 647 L6 750 L389 750 Z " />
<glyph glyph-name="backslash" unicode="&#x5c;" horiz-adv-x="300" d="M191 -71 Q218 -72 233 -52 L264 -142 Q217 -192 129 -196 Q71 -196 34 -155 Q2 -121 1 -83 Q1 -91 10 0 L107 370 L43 370 L70 474 L134 474 L187 678 L325 678 L272 474 L359 474 L331 370 L245 370 L148 0 Q144 -17 144 -29 Q144 -67 191 -71 Z " />
<glyph glyph-name="bracketright" unicode="&#x5d;" horiz-adv-x="463" d="M328 100 Q376 100 418 140 L449 50 Q402 2 313 -1 L-35 0 L352 647 L141 647 L171 750 L590 750 L201 100 L328 100 Z " />
<glyph glyph-name="asciicircum" unicode="&#x5e;" horiz-adv-x="774" d="M567 717 L560 709 Q521 743 477 747 Q426 783 347 795 L349 805 Q427 793 481 756 Q526 751 567 717 Z M609 673 L604 665 Q477 750 297 785 L299 794 Q479 760 609 673 Z M648 624 L643 616 Q566 670 468 713 Q357 760 276 765 L277 775 Q362 770 471 723 Q564 683 648 624 Z M672 586 L667 578 Q577 643 461 691 Q332 745 235 748 L235 758 Q338 755 465 702 Q575 656 672 586 Z M695 524 L691 515 Q673 523 614 573 L593 575 Q565 602 492 634 Q430 660 379 673 Q265 703 181 703 L181 713 Q279 713 382 683 Q542 636 598 585 L601 584 Q580 609 528 637 Q413 700 220 730 L221 740 Q481 700 595 604 Q602 597 618 582 L645 579 Q659 572 685 556 L679 548 Q668 556 642 569 L632 571 Q652 553 695 524 Z M694 481 L690 472 Q667 482 628 509 Q602 533 535 569 Q413 634 253 660 L254 670 Q416 643 540 577 Q565 564 617 528 Q665 495 694 481 Z M713 486 L706 478 Q603 565 459 624 Q305 686 180 681 L180 691 L190 692 Q356 696 548 594 Q644 542 713 486 Z M717 396 L710 390 Q673 437 626 478 L624 477 L623 481 Q466 616 317 619 L316 617 L313 619 L313 619 Q299 632 260 629 L259 639 Q269 640 278 639 Q265 644 255 642 L253 652 Q257 652 261 652 Q284 653 316 629 Q469 629 628 489 Q629 489 631 490 Q660 490 700 450 L693 443 Q660 476 638 480 Q686 436 717 396 Z M723 354 L715 348 Q641 458 519 532 Q388 611 265 608 L264 618 L270 618 Q437 622 595 491 Q674 425 723 354 Z M723 243 L713 240 L705 264 L715 267 L723 243 Z M719 334 L711 328 Q582 497 477 541 Q602 472 712 305 L704 300 Q652 380 581 448 Q496 530 423 554 L423 554 Q350 584 271 586 L272 596 Q355 594 430 562 Q461 562 506 538 Q604 484 719 334 Z M705 182 L695 180 L688 206 L697 209 L705 182 Z M238 648 Q230 642 220 641 Q213 641 202 646 L202 645 L199 646 L165 638 L163 648 L198 656 Q202 662 208 665 L163 659 L161 669 L209 676 L211 667 Q218 671 230 675 L233 665 Q217 661 209 654 Q217 651 222 651 Q226 651 231 656 L238 648 Z M709 280 L701 275 Q566 479 416 534 Q395 541 353 554.5 Q311 568 279 567 Q228 566 179 544 Q149 531 90 493 L84 501 Q182 565 215 568 Q236 573 279 577 Q313 578 355 564 Q410 546 430 539 Q470 523 500 504 Q605 438 709 280 Z M245 635 L243 625 Q227 627 210 627 Q174 626 145 612 L141 621 Q171 636 212 637 Q229 637 245 635 Z M257 616 L255 607 Q244 609 232 609 Q191 608 133 587 L130 597 Q189 618 231 618 Q245 619 257 616 Z M705 240 L695 238 Q677 298 653 314 Q689 249 695 210 L685 209 Q679 250 639 318 L639 318 Q637 320 635 325 L635 325 Q598 391 535 444.5 Q472 498 401 522 Q386 527 345 535 Q338 538 326 542 Q301 548 273 548 Q243 547 195 530 Q142 510 130 488 L130 489 L119 479 L112 486 L119 492 Q102 491 85 461 L76 466 Q97 502 119 502 Q124 502 128 500 Q197 557 273 558 Q302 558 328 551 Q335 549 348 545 Q371 540 418 527 Q563 473 645 328 Q679 326 705 240 Z M267 592 L230 584 Q224 569 201 568 Q182 568 162 556 L157 564 Q179 578 206 578 Q216 578 220 587 Q213 590 204 590 Q175 589 127 560 L122 569 Q170 598 203 599 Q218 599 227 594 L265 602 L267 592 Z M157 551 Q142 551 120 531 L114 539 Q138 560 152 561 L157 561 L157 551 Z M659 50 Q645 19 632 9 L626 16 Q608 -11 572 -30 L567 -21 Q624 10 634 57 L643 55 Q639 36 628 18 Q637 25 649 54 L659 50 Z M593 54 Q567 16 540 16 Q510 15 483 60 Q471 81 446 124 Q411 184 356 278 L353 282 L362 287 L364 283 Q417 193 452 133 Q465 110 491 65 Q516 26 538 26 Q561 27 585 60 L593 54 Z M635 4 Q615 -26 594 -34 L590 -24 Q609 -17 627 9 L635 4 Z M696 163 L686 161 Q681 194 663 217 Q638 333 533 428 Q499 458 440 486 Q385 511 336 522 Q301 529 276 529 Q220 528 164 484 Q153 465 135 450 Q139 453 146 454 Q169 483 198 491 Q222 516 273 517 Q335 518 404 491 Q534 442 601 340 Q642 278 657 222 Q688 179 692 114 L682 114 Q680 152 665 187 Q673 149 673 120 Q674 86 665 68 L656 73 Q664 89 663 119 Q663 153 651 203 Q639 257 624 283 Q602 320 591 337 Q571 367 552 387 Q498 444 400 482 Q333 508 273 507 Q227 506 205 483 Q235 500 276 501 Q350 502 429 458 Q431 458 433 458 Q461 459 522.5 408.5 Q584 358 631 249 Q654 195 655 125 Q656 97 651 70 L641 72 Q645 97 645 130 Q643 219 588.5 311.5 Q534 404 456 442 Q526 393 575.5 312 Q625 231 637 147 L638 145 L637 144 Q639 129 639 116 Q640 60 607 21 Q588 -2 579 -11 Q562 -26 544 -34 Q516 -63 486 -64 Q441 -65 399 -5 Q372 34 336 121 Q300 208 288 227 Q294 165 357 43 Q417 -72 488 -70 Q530 -70 576 -28 L583 -36 Q562 -54 544 -65 Q577 -51 615 -30 L620 -39 Q521 -94 462 -95 Q453 -95 446 -94 Q438 -96 430 -96 Q381 -97 341.5 -42.5 Q302 12 295 24 Q269 63 257 95 L257 99 Q257 114 249 126 Q258 66 287 19 Q333 -54 348 -69 Q386 -108 445 -107 Q453 -107 469 -107 Q488 -106 515 -92 Q556 -71 607 -56 L612 -54 L615 -64 L610 -65 Q559 -81 520 -101 Q490 -116 469 -117 Q461 -117 445 -117 Q364 -118 308 -33 Q244 66 237 137 L235 139 L237 141 Q216 204 215 254 Q214 287 223 313 L232 310 Q225 286 225 255 Q226 206 246 143 Q268 125 267 97 Q295 25 357 -46 Q393 -87 429 -86 Q438 -86 446 -84 Q452 -85 463 -85 Q478 -85 497 -80 Q493 -81 489 -81 Q405 -82 348 39 Q281 181 278 227 Q277 234 276 247 L277 248 Q274 261 274 275 Q273 335 314 345 Q327 347 352 353 Q339 359 329 359 Q314 358 301 348 L295 356 Q311 369 330 369 Q342 369 361 360 Q423 330 474 248 Q484 232 517 163 Q532 133 559 72 Q562 65 563 56 Q565 61 565 68 Q565 75 563 82 L560 87 L562 88 Q557 108 544 131 Q542 135 538 143 Q532 160 520 193 Q466 320 377 366 Q348 381 313 380 Q243 379 243 312 L233 312 Q233 389 310 390 Q350 391 381 375 Q473 328 528 199 Q534 181 547 147 Q550 143 554 134 Q568 108 572 87 Q577 80 580 80 Q584 80 584 91 Q512 289 450 339 Q409 372 394 380 Q370 393 326 400 L328 410 Q373 402 398 389 Q414 381 456 347 Q521 295 594 92 Q593 69 582 69 Q579 69 575 72 L575 69 Q576 34 547 34 Q518 33 491 87 Q434 198 430 205 Q378 299 353 298 L351 298 Q348 286 348 276 Q348 259 367 229 Q387 196 454 77 Q494 3 534 4 Q544 4 554 10 Q554 11 555 11 Q603 46 602 79 Q601 119 555 215 Q510 307 479 340 Q417 403 340 426 Q334 420 299 417 Q260 414 235 399 Q198 374 179 315 L169 318 Q202 417 304 428 Q315 428 332 432 L331 431 L332 430 L335 434 Q330 433 324 433 Q320 433 311 434.5 Q302 436 299 436 Q275 436 248 425 Q149 386 152 232 Q153 197 158 171 Q173 88 204 9 Q247 -101 294 -122 Q298 -126 305 -125 Q312 -125 321 -122 Q332 -141 382 -139 L382 -149 L377 -150 Q343 -151 324 -140 L325 -144 Q314 -147 303 -147 Q281 -147 259 -137 L263 -128 Q284 -137 303 -137 Q313 -137 318 -135 L317 -134 Q310 -135 305 -135 Q298 -136 288 -130 Q270 -119 260 -110 Q220 -70 186 21 Q157 98 148 169 Q142 208 142 232 Q139 380 229 428 Q125 387 127 262 Q127 248 130 228 Q131 216 132 191 Q154 -20 269 -120 L263 -128 Q174 -53 138 96 Q125 151 118 246 Q117 223 117 198 Q121 -5 233 -103 L227 -111 Q158 -50 131 32 Q109 97 107 202 Q105 350 156 418 Q121 383 102 301 Q86 233 87 169 Q87 145 90 120 L80 119 Q77 145 77 169 Q76 225 90 291 Q106 367 133 406 L122 390 L122 387 L119 387 Q74 314 71 216 L61 217 Q63 308 103 379 Q75 354 60 268 L50 270 Q61 330 79 365 L71 368 Q84 403 103 416 L109 408 Q94 397 84 372 Q96 391 113 396 Q150 451 201 481 Q176 475 155 450 L156 449 Q154 447 151 445 Q138 433 124 413 L116 418 Q122 427 127 433 Q119 427 112 416 L103 421 Q110 432 118 440 L107 434 L106 433 Q70 406 67 352 L57 353 Q61 410 98 440 L98 441 L100 441 Q102 468 157 491 L158 494 L160 493 Q213 538 279 539 Q389 541 520 452 Q574 415 616 350.5 Q658 286 673 221 Q691 196 696 163 Z M115 476 L89 441 L88 441 L71 412 L62 417 L80 448 L81 447 L107 482 L115 476 Z M436 -75 L432 -84 Q398 -71 372 -43 Q350 -14 327 15 L326 15 L326 16 Q236 127 233 273 Q233 284 234 297 L244 296 Q243 285 243 274 Q246 144 327 31 Q321 63 279 153 Q250 212 249 277 Q248 369 320 380 L322 370 Q258 360 260 278 Q261 217 288 157 Q339 43 337 19 Q358 -8 379 -35 Q404 -63 436 -75 Z M457 -131 Q429 -136 406 -136 Q359 -137 338 -125 Q302 -104 260 -37 Q223 23 210 70 Q182 168 180 255 Q179 304 204 355 Q212 372 214 375 Q221 387 230 391 L235 382 Q223 376 211 347 L207 348 L210 346 Q189 322 190 256 Q192 170 219 73 Q232 28 268 -31 Q309 -98 343 -116 Q362 -127 404 -126 Q427 -126 456 -121 L457 -131 Z M390 -111 L389 -121 L384 -120 Q365 -119 337 -97 Q243 -23 205 176 Q200 207 199 241 Q196 409 308 411 Q313 411 323 411 L322 401 Q317 401 311 401 Q207 399 210 244 Q210 211 215 178 Q228 95 272 6 Q328 -106 390 -111 Z M588 -124 L536 -145 L532 -136 L584 -114 L588 -124 Z M618 -84 Q518 -150 389 -158 L389 -148 Q511 -143 612 -76 L618 -84 Z M527 -147 Q515 -155 477 -169 L473 -160 Q490 -154 521 -138 L527 -147 Z M311 -114 L305 -122 Q236 -63 197 50 Q164 147 162 253 Q162 285 165 313 L175 312 Q171 274 171 237 Q175 43 283 -85 Q300 -105 311 -114 Z M471 -168 Q452 -176 387 -183 L386 -173 Q414 -171 467 -159 L471 -168 Z M468 -188 Q430 -205 373 -205 L364 -205 L364 -195 L374 -195 Q427 -195 464 -179 L468 -188 Z M164 -45 L157 -51 Q93 25 90 193 Q90 210 90 226 L100 226 Q100 208 100 191 Q103 31 164 -45 Z M383 -185 L321 -190 L320 -180 L382 -175 L383 -185 Z M342 -160 Q326 -164 311 -165 Q294 -165 276 -161 L278 -151 Q296 -155 311 -155 Q324 -155 340 -150 L342 -160 Z M213 -102 L207 -110 Q175 -87 164 -66 L173 -61 Q183 -80 213 -102 Z M428 447 L425 448 L427 447 L428 447 Z M425 448 L421 450 L421 450 L425 448 Z M449 396 Q435 414 416 418 Q425 407 449 396 Z M611 110 Q610 131 600.5 152 Q591 173 582 193 Q579 202 572 221 Q545 288 505 334 Q491 352 460 383 L459 381 Q414 399 403 421 Q387 432 350 445 Q347 439 340 436 Q427 411 486 347 Q553 274 609 94 Q611 102 611 110 Z M623 172 Q603 263 544 341 Q483 423 402 460 Q335 492 277 491 Q207 489 149 425 Q203 481 281 483 Q301 483 355 472 Q367 470 390 463 Q436 445 499.5 379.5 Q563 314 582 268 Q606 206 623 172 Z M629 118 Q629 130 628 142 Q616 158 598 202 Q574 262 573 264 Q565 279 537 318 Q459 426 386 454 Q377 457 353 462 Q297 473 281 472 Q272 472 262 471 Q292 472 338 459 Q384 446 407 430 L409 431 L410 429 Q444 427 463 393 Q473 387 513 341 Q547 301 577 231 Q582 220 591 197 Q594 192 600 181 Q620 143 621 112 Q621 89 611 72 Q606 35 563 5 Q558 -21 522 -22 Q474 -23 406 86 Q413 60 447 22 L440 15 Q396 64 395 92 Q395 97 396 102 Q318 234 317 282 Q316 309 333 310 Q339 310 346 307 Q349 308 352 308 Q382 308 437 216 Q471 157 500 91 Q521 43 547 44 Q540 49 534 59 Q533 61 503 116 Q478 164 427 257 Q388 325 342 324 Q305 323 306 287 Q306 270 316 248 L316 248 Q366 123 384 88 Q443 -29 489 -39 L487 -49 Q420 -34 348 143 Q331 183 299 263 L299 264 Q296 276 296 287 Q295 333 342 334 Q393 335 436 262 Q447 242 512 121 Q522 102 543 64 Q549 55 554 51 Q554 58 550 68 Q550 69 530 113 Q485 212 465 245 Q419 321 362 348 Q356 342 340 339 Q328 338 316 336 Q282 326 283 279 Q283 262 289 241 Q301 230 342 133 Q375 54 396 19 Q441 -55 486 -54 Q505 -54 523 -39 Q520 -39 517 -39 Q476 -40 447 4 L455 9 Q481 -30 518 -29 Q528 -29 538 -26 L541 -21 L544 -23 Q571 -11 605 34 Q630 67 629 118 Z M340 448 Q297 462 262 461 Q169 460 136 355 Q157 400 200.5 425.5 Q244 451 295 451 L300 451 L300 447 Q313 443 324 443 Q335 443 340 448 Z M145 474 Q119 460 112 447 Q132 458 145 474 Z M548 -3 Q541 -5 534 -6 Q481 -7 434 92 Q414 135 359 223 Q338 256 338 276 Q338 286 341 298 Q337 299 334 299 Q326 299 327 286 Q327 234 400 114 Q477 -13 523 -12 Q540 -12 548 -3 Z M407 103 L407 103 L407 103 L407 103 Z " />
<glyph glyph-name="underscore" unicode="&#x5f;" horiz-adv-x="1479" d="M1474 422 Q1474 405 1471 398 Q1473 392 1473 387 Q1473 377 1466 371 L1473 356 Q1473 340 1438 340 Q1429 340 1423 345 Q1413 340 1410 340 Q1394 340 1346 380 L1343 380 L1341 369 Q1342 365 1343 357 Q1345 341 1329 341 Q1316 341 1309 345 Q1303 342 1295 342 Q1287 342 1279 345 Q1270 342 1259 342 Q1252 342 1245 345 L1239 354 L1239 358 Q1239 365 1241 403 L1237 418 Q1237 425 1242 436 Q1240 444 1240 457 Q1240 473 1243 498 L1239 505 Q1243 533 1244 546 Q1238 550 1238 564 Q1238 595 1255 595 Q1260 593 1264 591 Q1270 596 1276 596 Q1309 596 1316 592 Q1324 597 1355 596 L1358 593 Q1362 593 1370 594.5 Q1378 596 1382 596 Q1406 596 1414 584 Q1424 586 1442 571 L1443 564 Q1467 541 1467 531 L1466 524 Q1473 514 1473 502 Q1473 476 1463 470 Q1466 447 1445 438 L1443 434 L1428 430 Q1435 425 1444 423 Q1452 431 1457 431 Q1463 431 1471 428 L1474 422 Z M1113 661 Q1113 651 1105 640.5 Q1097 630 1087 630 Q1081 630 1066 640 Q1044 629 1032 629 Q991 629 991 689 Q991 713 1005 730.5 Q1019 748 1042 748 Q1048 748 1054 747 Q1052 779 1052 792 Q1052 852 1074 852 Q1091 852 1091 840 Q1091 814 1089.5 763.5 Q1088 713 1088 687 Q1088 653 1097 653 Q1095 653 1108 663 L1111 664 L1113 661 Z M985 657 Q985 647 975.5 637 Q966 627 956 627 Q927 627 927 724 Q927 833 934 853 Q938 864 955 864 Q961 864 966 861 Q968 856 968 852 Q968 823 965 766.5 Q962 710 962 681 Q962 653 972 653 Q978 653 982 666 Q985 662 985 657 Z M1209 411 Q1209 403 1205 397 Q1208 390 1208 384 Q1208 378 1204 373 Q1206 366 1206 360 Q1206 342 1182 344 L1179 346 Q1160 343 1145 343 Q1083 343 1056 341 L1049 345 Q1041 368 1041 364 Q1041 374 1045 381 Q1042 390 1042 399 Q1042 410 1047 420 Q1044 426 1044 469 Q1044 514 1048 521 Q1045 532 1045 540 Q1045 550 1049 556 Q1046 561 1046 573 Q1046 581 1047 591 Q1056 597 1061 597 Q1069 597 1077 591 L1084 595 Q1151 591 1167 591 Q1171 591 1178 593.5 Q1185 596 1189 596 Q1205 596 1205 585 Q1205 578 1201 574 Q1204 568 1204 562 Q1204 556 1201 549 Q1204 541 1204 536 Q1204 521 1172 521 Q1130 521 1154 522 Q1143 522 1140 513 L1142 508 L1155 505 Q1160 505 1172 507 Q1184 509 1191 508 L1193 508 L1200 503 Q1201 498 1201 490 L1197 484 Q1201 474 1201 467 Q1201 449 1168 449 L1155 451 Q1148 452 1143 449 L1143 442 L1139 437 L1144 425 L1186 425 Q1209 425 1209 411 Z M923 700 Q923 689 903 675 Q893 628 850 628 Q828 628 816.5 647 Q805 666 805 689 Q805 749 856 749 Q899 749 904 697 Q912 702 916 702 Q920 702 923 700 Z M802 728 Q802 719 796.5 707 Q791 695 783 695 Q778 695 771 712 Q763 701 760 661 Q758 631 741 631 Q727 631 726 655 Q727 638 727 689 Q727 695 725.5 706 Q724 717 724 723 Q724 749 747 749 Q761 749 758 718 Q773 749 786 749 Q802 749 802 728 Z M1014 541 Q1014 523 1009 503 L1012 497 Q1011 450 1008 438 L1012 417 L1008 388 Q1012 367 1012 355 Q1005 344 987 344 Q982 344 976 347 Q958 343 949 343 Q944 343 935 355 Q926 367 924 374 Q907 384 901 400 Q892 407 879 421 Q875 397 875 385 L880 373 Q875 354 876 345 Q867 342 861 342 Q858 342 855 343 Q852 341 849 341 Q845 341 840 345 L831 341 L796 341 Q780 343 780 365 Q780 375 784 385 Q780 394 780 405 Q780 418 785 434 L780 444 Q780 476 784 483 L781 489 Q784 497 784 529 Q784 543 782 551 L783 553 L784 563 Q778 567 777 578 Q780 584 784 591 Q787 595 800 595 Q810 595 819 592 Q827 596 840 596 L850 592 L860 596 Q869 596 876 586 L879 586 Q890 572 890 565 L890 564 L897 561 Q906 546 908 540 Q916 539 923 530 L925 532 Q923 543 923 551 Q923 558 925 563 L921 568 Q921 589 924 593.5 Q927 598 946 598 Q963 598 970 594 Q974 596 979 597 L983 595 Q989 599 1003 599 Q1007 599 1013 592 Q1014 574 1014 572 L1013 551 L1011 549 Q1013 544 1014 541 Z M723 671 Q723 657 713 642.5 Q703 628 690 628 Q675 628 672 639 Q663 627 647 627 Q605 627 605 681 Q605 704 619.5 726 Q634 748 656 748 Q702 748 702 733 L702 672 Q702 658 705 658 Q708 658 717 677 L721 675 Q722 672 723 671 Z M613 913 Q601 886 583 829 Q576 794 576 769 Q576 749 578 740 L592 742 L597 736 L592 727 L581 722 Q588 699 601 654 Q597 646 584.5 635 Q572 624 564 624 Q543 624 543 723 Q535 725 522 728 Q505 622 471 622 Q442 622 442 636 L444 641 Q465 694 481 737 Q441 762 441 775 Q441 789 456 793 Q462 791 483 773 L484 802 Q485 826 476 849 Q465 878 444 878 Q418 878 403 848 Q391 824 391 795 Q391 780 399 763 Q408 743 421 743 Q424 743 430 745.5 Q436 748 439 748 Q448 748 448 733 Q448 714 424 714 Q372 714 372 788 Q372 830 392 863 Q415 902 455 902 Q498 902 512 844 L524 753 Q531 748 548 745 Q571 918 606 918 L613 913 Z M1101 193 Q1101 174 1085 155.5 Q1069 137 1050 137 Q1038 137 1028.5 145 Q1019 153 1019 164 Q1019 180 1037 180 Q1035 173 1035 167 Q1035 152 1048 152 Q1060 152 1060 173 Q1060 200 1044 200 Q1041 196 1033 188 Q1026 190 1026 195 Q1049 238 1049 259 Q1049 263 1055 263 L1059 263 Q1060 255 1064 242 Q1091 200 1087 182 L1096 197 Q1101 197 1101 193 Z M1018 171 Q1005 139 981 139 Q966 139 965 172 Q965 185 966 215 Q967 231 959 233 Q955 228 945 179 Q937 141 921 141 Q916 141 913 143 Q907 147 907 202 L907 219 Q907 260 927 260 Q943 260 943 249 Q943 247 942 242.5 Q941 238 941 236 Q941 233 942 230 Q957 263 973 263 Q1001 263 1001 225 Q1001 218 1000 203.5 Q999 189 999 182 Q999 172 1004 172 L1007 174 Q1010 176 1014 179 Q1017 175 1018 171 Z M748 360 Q748 345 725 343 Q723 342 688 342 Q682 342 675 346 L667 343 Q643 344 638 363 L638 405 Q638 422 639 435 L633 440 Q629 440 618 437 Q615 423 615 416 Q615 413 616.5 407.5 Q618 402 618 399 Q618 386 615 380 Q618 362 619 358 Q619 341 605 341 Q599 341 592 343 Q586 340 577 340 Q574 340 562 345 Q551 340 536 340 Q528 340 520 342 Q513 355 513 360 Q513 371 515.5 392 Q518 413 518 424 Q518 439 517 469.5 Q516 500 516 515 Q516 519 513.5 528 Q511 537 511 541 Q511 571 512 578 Q517 596 537 596 L554 592 L560 596 L567 596 Q582 596 588 592 Q596 595 601 597 Q619 597 619 577 Q619 569 616 563 Q618 541 618 531 L629 529 Q632 529 642 531 Q645 568 645 561 Q645 565 643 570 Q646 587 648 590 Q653 598 667 598 L672 595 Q679 597 687 597 Q696 597 705 595 L710 597 L718 595 Q723 597 728 597 Q736 597 744 593 Q748 587 748 580 Q748 574 746 562 Q744 550 744 544 L747 540 Q748 492 743 480 Q748 467 748 456 Q748 405 742 398 Q748 381 748 360 Z M750 291 Q750 266 731 266 Q718 266 718 284 Q718 309 737 309 Q750 309 750 291 Z M903 192 Q903 185 891 157 L868 104 Q849 70 824 70 Q811 70 800.5 81 Q790 92 790 105 Q790 128 802 128 Q805 126 807 125 L811 102 Q814 85 829 85 Q849 85 849 134 Q849 138 848 144 L848 154 Q835 140 822 140 Q782 140 782 193 Q782 259 832 259 Q836 259 848 253 Q863 258 874 258 Q883 258 883 223 L883 212 Q882 202 882 196 L882 168 Q895 186 895 201 Q903 199 903 192 Z M779 187 Q779 171 767.5 156 Q756 141 740 141 Q715 141 715 191 Q715 196 714 206.5 Q713 217 713 222 Q713 257 740 257 Q753 257 753 229 Q753 222 751.5 207.5 Q750 193 750 186 Q750 167 755 167 Q763 167 769 179 Q773 185 776 192 Q779 192 779 187 Z M711 193 Q711 174 695 155.5 Q679 137 660 137 Q649 137 639 145 Q629 153 629 164 Q629 180 647 180 Q645 173 645 167 Q645 152 658 152 Q671 152 671 173 Q671 200 654 200 Q651 196 643 188 Q637 190 637 195 Q643 208 652 225 Q654 230 657 250 Q659 263 665 263 L669 263 Q670 255 674 242 L692 214 Q700 197 697 182 L706 197 Q711 197 711 193 Z M482 464 Q482 439 472 431 Q473 417 465 402.5 Q457 388 444 385 Q441 376 424 363.5 Q407 351 398 351 L394 352 Q380 340 349 340 Q327 340 319 345 L318 344 Q303 344 273 356 L269 363 Q257 366 245 377 Q243 380 227 399 L228 405 Q222 414 213 432 L214 437 Q208 457 207 467 Q212 473 212 482 Q212 512 224 532 L229 533 Q230 542 241 552.5 Q252 563 261 565 Q262 577 295 588 Q324 598 340 598 Q384 598 397 585 Q423 580 440 560 L443 559 Q446 555 452 551 L455 541 L463 536 Q477 509 478 500 L476 498 Q476 493 479 481.5 Q482 470 482 464 Z M628 184 Q628 166 606.5 152 Q585 138 566 138 Q512 138 512 197 Q512 223 528 241.5 Q544 260 569 260 Q611 260 611 212 Q611 184 591 184 Q570 184 552 207 Q552 157 581 157 Q600 157 624 192 Q628 192 628 184 Z M511 171 Q511 161 502.5 150.5 Q494 140 484 140 Q478 140 463 150 Q441 139 429 139 Q388 139 388 199 Q388 223 402 240.5 Q416 258 439 258 Q445 258 451 257 Q449 289 449 302 Q449 362 472 362 Q488 362 488 350 Q488 324 487 273.5 Q486 223 486 197 Q486 163 494 163 L505 173 L508 174 L511 171 Z M179 367 Q179 362 178 348 Q174 344 162 343 L141 342 L138 345 Q121 343 113 343 L109 345 Q88 341 91 341 Q58 341 40 345 Q35 341 19 341 L13 343 L7 352 Q6 354 5 359 L5 404 L8 410 Q5 415 5 425 Q5 431 7 443.5 Q9 456 9 462 L8 466 L6 468 Q8 489 8 518 Q8 546 6 582 Q13 595 35 595 Q42 595 48 591 Q72 596 75 596 L83 592 Q88 596 98 596 Q103 596 108 591 Q108 587 109.5 580 Q111 573 111 570 L107 556 Q111 550 111 527 Q111 501 111 484.5 Q111 468 111 462 Q110 456 110 460 L107 456 L107 452 L110 448 L110 445 Q111 441 108 436 L111 427 Q122 427 130 426 Q134 428 141 428 L144 426 Q150 428 154 428 Q157 428 158 427 L164 430 Q179 427 179 403 Q179 401 175 394 L177 387 L176 382 Q179 377 179 367 Z M1461 410 L1461 415 L1458 416 Q1452 411 1447 408 Q1421 417 1408 423 L1405 426 L1405 431 Q1415 438 1420 442 Q1444 443 1451 463 Q1450 467 1450 470 Q1450 474 1459 485 Q1460 501 1460 509 L1452 517 L1451 523 Q1451 527 1454 532 Q1449 545 1435 554 Q1432 564 1424 568 Q1420 569 1406 571 Q1398 583 1351 583 Q1346 583 1336 580.5 Q1326 578 1321 578 Q1315 578 1303.5 580 Q1292 582 1286 582 Q1282 582 1274 579.5 Q1266 577 1262 577 L1257 578 L1252 573 L1252 570 Q1252 575 1260 543 Q1253 533 1253 521 Q1253 503 1259 499 Q1259 495 1255.5 487 Q1252 479 1252 477 L1257 432 Q1251 425 1251 419 Q1251 415 1253.5 407 Q1256 399 1256 395 Q1256 389 1254.5 378 Q1253 367 1253 361 Q1253 354 1262 354 Q1268 354 1277 361 L1282 361 Q1288 355 1297 355 Q1300 355 1304.5 357 Q1309 359 1312 359 Q1313 359 1317 357 Q1321 355 1322 355 L1329 355 L1331 358 L1332 362 Q1328 370 1330 377 Q1334 387 1334 391 L1334 395 L1338 399 L1339 403 L1341 404 L1343 402 L1342 394 Q1347 395 1363 383 Q1379 371 1383 370 Q1389 357 1412 354 Q1418 358 1424 358 Q1427 358 1433.5 355 Q1440 352 1444 352 Q1450 352 1457 355 L1458 358 L1452 369 L1461 410 Z M1056 653 L1055 728 Q1054 737 1048 737 Q1023 737 1023 695 Q1023 646 1048 646 Q1056 646 1056 653 Z M1195 380 L1195 389 Q1191 392 1191 397 Q1191 400 1193 404 Q1195 408 1195 410 Q1189 412 1163.5 411.5 Q1138 411 1129 419 L1130 424 Q1126 431 1126 437 L1126 440 Q1132 446 1132 455 L1130 461 L1134 464 Q1138 463 1146 464 Q1154 465 1158 465 Q1162 464 1166 462 Q1172 465 1178 465 L1182 463 L1187 465 Q1187 468 1185.5 475 Q1184 482 1184 485 L1186 491 L1184 494 Q1182 494 1177 495 L1169 495 Q1167 495 1162.5 493.5 Q1158 492 1155 492 Q1153 492 1144.5 494 Q1136 496 1133 495 L1128 495 L1126 498 L1129 506 Q1126 510 1126 515 Q1126 517 1129 521 L1128 529 L1133 533 Q1129 533 1134 534 L1190 537 L1191 542 Q1191 546 1189 550 Q1192 556 1192 564 Q1191 567 1188 575 L1190 579 L1188 581 Q1184 581 1176.5 579 Q1169 577 1165 577 Q1162 577 1156 579 Q1150 581 1147 581 Q1141 581 1128 579.5 Q1115 578 1109 578 L1102 581 Q1097 582 1094 582 Q1092 582 1087.5 580 Q1083 578 1081 578 L1074 578 L1067 582 L1063 582 L1060 577 Q1060 573 1062 565.5 Q1064 558 1064 555 Q1064 551 1061.5 544 Q1059 537 1059 533 Q1059 531 1061 526.5 Q1063 522 1063 520 Q1063 509 1060.5 488.5 Q1058 468 1058 457 Q1058 448 1060 442 L1058 434 Q1058 429 1061 419 L1058 402 Q1058 398 1059 390.5 Q1060 383 1060 379 Q1055 369 1055 365 Q1057 360 1059 356 Q1063 356 1069.5 357.5 Q1076 359 1080 359 Q1172 359 1189 356 L1193 358 Q1192 369 1191 374 L1195 380 Z M870 677 Q870 738 853 738 Q842 738 842 690 Q842 641 858 641 Q870 641 870 677 Z M1001 564 L1000 583 L995 584 L985 580 Q974 584 941 584 Q938 583 937 582 L937 572 Q940 567 940 553 Q940 534 936 519 Q940 511 940 507 L939 505 L938 504 L931 505 L926 509 L925 513 Q911 517 897 533 Q894 536 876 560 Q878 578 861 580 Q855 577 849 577 Q843 583 837 582 L832 582 Q829 577 822 577 Q818 577 810.5 579 Q803 581 800 581 L794 578 L794 574 Q799 569 799 524 Q798 516 797 503 Q796 490 799 482 L796 474 Q796 467 798 453 Q800 439 800 432 Q800 424 797 403.5 Q794 383 795 372 L795 362 L798 358 Q805 357 812 357 Q805 357 813 358 Q821 358 836 358 L861 358 Q863 367 864 374 L860 382 Q861 387 863 393 Q861 404 866 428 L861 430 Q863 437 867 442 L870 442 L877 436 Q886 436 913 408.5 Q940 381 941 371 Q952 361 955 359 Q950 359 957 360 Q963 360 974 360 L993 360 L996 364 L996 368 Q996 371 994 395 L998 405 Q998 427 994 436 Q1000 459 1000 540 Q1000 538 997 552 L1001 564 Z M670 652 L670 724 Q670 737 664 737 Q640 737 640 682 Q640 645 657 645 Q670 645 670 652 Z M736 359 Q730 381 730 401 Q730 405 733 414 Q736 423 736 427 Q736 436 733 454.5 Q730 473 730 482 Q730 484 732.5 488.5 Q735 493 735 494 Q735 499 733 508 Q731 517 731 521 L734 526 Q734 553 735 567 L734 582 L724 583 L720 581 Q708 582 702 581 L698 584 Q687 585 669 581 L664 584 L659 582 Q655 550 655 525 L657 518 Q653 518 645 516.5 Q637 515 633 515 Q629 515 616 518 Q614 515 609 513 L606 517 Q608 552 602 560 Q604 574 606 581 L603 583 L592 577 L586 578 L581 583 L559 583 L529 582 L526 580 L525 575 Q525 563 529 557 L526 539 L527 537 Q528 475 532 468 Q529 457 530 447 Q532 430 533 425 Q533 414 530.5 393.5 Q528 373 528 362 L531 355 L538 354 L596 354 L603 356 L604 363 Q604 367 603 373.5 Q602 380 602 384 Q606 391 606 395 Q606 399 604 408 Q602 417 602 421 Q602 418 607 448 Q628 453 639 454 L646 450 L652 451 L654 446 Q656 430 652 400 Q654 374 653 361 L656 357 L675 360 Q681 357 687 357 Q691 357 698 358 Q705 359 709 359 L712 357 Q722 359 731 357 L736 359 Z M846 175 L846 222 Q844 243 833 243 Q815 243 815 193 Q815 157 832 157 Q846 157 846 175 Z M470 471 Q470 497 453 527 L447 530 Q417 584 342 584 Q318 584 279 567 Q273 552 258 549 Q252 540 243 534 Q242 523 232 498.5 Q222 474 222 460 Q222 434 238.5 409.5 Q255 385 279 374 Q287 355 357 355 Q375 355 430 385 Q431 389 445 403 Q459 417 459 433 L459 435 Q463 441 467 446 Q467 450 468.5 458.5 Q470 467 470 471 Z M583 227 Q583 247 569 247 Q555 247 552 211 Q554 216 560 216 Q563 216 568 211.5 Q573 207 576 207 Q583 207 583 227 Z M453 163 L452 238 Q452 247 445 247 Q421 247 421 205 Q421 156 445 156 Q453 156 453 163 Z M166 362 Q166 366 164 374 Q162 382 162 386 Q162 389 163.5 395 Q165 401 165 404 L164 410 L162 412 L152 412 L150 410 Q142 410 136 414 Q114 412 101 415 L100 412 L95 411 L93 413 L95 429 Q96 438 95 445 L93 448 L92 454 Q92 461 95 475 Q98 489 98 496 Q96 501 94 505 Q95 511 95 515 L93 517 Q93 521 95.5 527 Q98 533 98 537 Q98 545 92 551 Q92 553 94 558.5 Q96 564 96 566 L96 578 L94 581 Q89 581 78 582 Q67 583 62 583 Q60 583 56.5 581 Q53 579 52 579 Q50 579 38 581 Q31 582 24 581 L21 576 L21 553 L25 548 L25 543 Q25 532 22.5 510 Q20 488 20 477 L23 467 Q23 460 20.5 447 Q18 434 18 427 Q18 367 20 359 L24 356 Q36 358 41 359 Q48 356 58 356 Q79 356 84 359 L92 356 Q105 359 112 360 L116 357 Q131 358 139 359 L142 357 Q153 361 155 361 Q158 361 163 360 L166 362 Z M1386 488 Q1383 476 1380 457 Q1365 434 1352 434 Q1349 436 1347 437 Q1340 433 1335 432 L1331 433 L1330 437 L1333 443 Q1332 452 1332 454 Q1332 455 1333 458 L1333 464 Q1333 467 1330.5 474.5 Q1328 482 1328 486 Q1328 489 1330 496 Q1332 503 1332 506 L1332 507 Q1328 512 1328 519 Q1328 522 1332 526 L1330 529 L1332 532 L1335 532 L1338 530 Q1345 537 1355 537 Q1373 537 1374 527 Q1382 524 1382 516 Q1382 514 1381 513 L1383 510 Q1383 506 1384.5 498.5 Q1386 491 1386 488 Z M389 458 Q376 426 373 422 Q362 407 337 407 Q323 415 316 418 Q307 429 304 431 Q304 438 301.5 450.5 Q299 463 299 470 Q299 473 301 478 Q303 483 303 486 Q303 493 301 496 Q302 506 312.5 516 Q323 526 333 527 L335 530 Q339 532 343 532 Q348 532 357.5 526 Q367 520 368 515 L376 512 Q382 503 386 499 Q386 468 389 458 Z M1372 487 Q1369 490 1369 497 Q1369 524 1355 524 L1343 519 L1342 515 L1345 512 L1345 509 Q1345 504 1343 494.5 Q1341 485 1341 481 Q1341 479 1347 452 L1351 449 Q1368 452 1368 469 L1368 477 Q1368 478 1370 481.5 Q1372 485 1372 487 Z M373 461 Q373 462 372 464 L372 490 Q370 498 358.5 507 Q347 516 339 516 L337 515 Q327 510 323 509 Q321 500 315 498 Q313 505 313 475 Q313 473 314 472 L312 468 Q312 466 314 461 Q317 446 317 438 Q321 433 326 425 Q328 425 332.5 423 Q337 421 340 421 Q333 421 349 423 Q356 429 366 451 Q373 467 373 461 Z " />
<glyph glyph-name="grave" unicode="&#x60;" horiz-adv-x="264" d="M395 536 L184 566 L212 667 L412 600 L395 536 Z " />
<glyph glyph-name="a" unicode="a" horiz-adv-x="478" d="M80 1 Q-1 36 -1 162 Q-1 232 29 302 Q62 380 119 429.5 Q176 479 233 479 Q289 479 322 433 L333 474 L468 474 L381 138 Q379 131 379 125 Q379 105 402 105 Q415 105 431 111 L406 23 Q354 -12 310 -12 Q260 -12 226 33 Q174 -7 123 -7 Q100 -7 80 1 Z M247 372 Q223 372 195.5 342 Q168 312 150 263 Q133 218 133 176 Q133 109 168 109 Q191 109 219 141 Q247 173 265 223 Q283 268 283 308 Q283 372 247 372 Z " />
<glyph glyph-name="b" unicode="b" horiz-adv-x="439" d="M117 51 L103 -1 L-35 -1 L151 708 L290 708 L217 432 Q270 473 321 473 Q344 473 363 465 Q443 431 443 310 Q443 242 413 173 Q380 95 323.5 46.5 Q267 -2 211 -2 Q151 -2 117 51 Z M275 378 Q251 378 223 347 Q195 316 177 268.5 Q159 221 159 181 Q159 114 198 114 Q222 114 250 145 Q278 176 297 225 Q314 271 314 311 Q314 378 275 378 Z " />
<glyph glyph-name="c" unicode="c" horiz-adv-x="342" d="M339 296 Q310 358 265 366 Q260 368 255 368 Q231 368 201 341 Q168 311 150 263 Q135 224 135 186 Q135 159 143 136 Q155 105 178 105 Q238 104 307 174 L270 30 Q214 -5 158 -5 Q123 -5 93 10 Q-1 55 -1 184 Q-1 253 31 320 Q66 391 125.5 434.5 Q185 478 247 478 Q323 478 370 414 L339 296 Z " />
<glyph glyph-name="d" unicode="d" horiz-adv-x="463" d="M74 3 Q-5 37 -5 162 Q-5 231 24 300 Q58 379 114.5 427.5 Q171 476 227 476 Q284 476 317 426 L392 710 L530 710 L344 0 L205 0 L214 31 Q164 -5 116 -5 Q94 -5 74 3 Z M233 370 Q179 370 141 269 Q124 223 124 181 Q124 111 162 111 Q187 111 215 142 Q243 173 261 222 Q277 263 277 299 Q277 370 233 370 Z " />
<glyph glyph-name="e" unicode="e" horiz-adv-x="392" d="M132 158 Q139 115 161 105 Q167 101 176 97 Q248 96 301 150 L266 16 Q224 -11 176 -11 Q134 -11 92 10 Q0 55 0 182 Q0 250 32 316 Q67 388 129 431.5 Q191 475 254 475 Q289 475 319 461 Q398 434 398 341 Q398 324 395 310 Q381 247 319 199 Q257 151 184 151 Q157 151 132 158 Z M140 245 Q159 241 178 241 Q228 241 260 265 Q293 294 293 323 Q293 339 281 354 Q269 369 253 369 Q218 369 182 323 Q152 285 140 245 Z " />
<glyph glyph-name="f" unicode="f" horiz-adv-x="273" d="M-19 0 L82 369 L24 369 L51 472 L110 472 L120 510 Q127 533 140 560 Q174 630 236 672 Q298 714 361 714 Q435 714 478 656 L453 561 Q446 575 436 586 Q413 612 383 617 Q303 624 259 510 L249 472 L325 472 L298 369 L220 369 L119 0 Q110 -18 96 -48 Q71 -97 22.5 -126 Q-26 -155 -77 -155 Q-140 -155 -173 -110 L-149 -29 Q-127 -63 -94 -63 Q-43 -63 -19 0 Z " />
<glyph glyph-name="g" unicode="g" horiz-adv-x="439" d="M78 6 Q-3 40 -3 163 Q-3 231 27 301 Q60 380 117 429 Q174 478 231 478 Q286 478 320 434 L330 474 L469 474 L344 0 Q334 -36 327 -51 Q293 -120 231.5 -162 Q170 -204 108 -204 Q72 -204 43 -190 Q30 -183 18 -167 Q6 -151 -4 -136 L21 -42 Q101 -99 106 -99 Q144 -99 176 -57 Q198 -28 205 0 L213 29 Q166 -3 121 -3 Q98 -3 78 6 Z M254 365 Q228 365 199 339 Q166 308 147 258 Q130 212 130 173 Q130 108 166 108 Q189 108 216.5 138.5 Q244 169 262 217 L264 222 L277 270 Q280 290 280 308 Q280 365 254 365 Z " />
<glyph glyph-name="h" unicode="h" horiz-adv-x="472" d="M407 -73 Q434 -74 449 -54 L480 -144 Q433 -194 345 -198 Q287 -198 249 -157 Q218 -123 217 -85 Q217 -93 226 -2 L309 318 Q310 323 310 328 Q310 346 295 355 Q288 360 278 360 Q261 360 239 344 Q216 325 210 318 Q195 304 187 287 L111 -1 L-27 -1 L159 708 L298 708 L228 442 Q283 474 336 474 Q355 474 369 470 Q450 433 450 347 Q450 331 447 318 L364 -2 Q363 -44 376 -60 Q385 -71 407 -73 Z " />
<glyph glyph-name="i" unicode="i" horiz-adv-x="230" d="M241 474 L117 -1 L-21 -1 L103 474 L241 474 Z M209 551 Q175 550 151 566.5 Q127 583 127 608 Q127 633 151 651.5 Q175 670 209 671 Q243 672 267 655.5 Q291 639 291 614 Q291 589 267 570.5 Q243 552 209 551 Z " />
<glyph glyph-name="j" unicode="j" horiz-adv-x="239" d="M120 0 Q114 -23 100 -51 Q66 -120 4 -162 Q-58 -204 -121 -204 Q-195 -204 -238 -146 L-213 -52 Q-206 -66 -196 -76 Q-173 -102 -143 -107 Q-137 -110 -130 -110 Q-103 -110 -70 -79 Q-37 -48 -19 0 L106 474 L245 474 L120 0 Z M209 551 Q175 550 151 566.5 Q127 583 127 608 Q127 633 151 651.5 Q175 670 209 671 Q243 672 267 655.5 Q291 639 291 614 Q291 589 267 570.5 Q243 552 209 551 Z " />
<glyph glyph-name="k" unicode="k" horiz-adv-x="419" d="M314 -191 Q256 -191 225 -149 Q202 -118 200 -76 Q200 -65 205 -28 Q211 16 211 41 Q211 118 162 150 L182 237 Q310 269 321 338 Q317 377 284 377 Q262 377 229.5 358.5 Q197 340 174 291 L97 0 L-29 0 L159 710 L285 710 L215 445 Q269 478 321 480 Q379 480 409 444 Q436 412 431 372 Q425 311 406 276 Q370 208 281 171 Q330 129 324 31 Q322 13 322 -1 Q322 -38 335 -51 Q343 -60 363 -62 Q389 -62 406 -40 L439 -135 Q403 -187 314 -191 Z " />
<glyph glyph-name="l" unicode="l" horiz-adv-x="225" d="M115 -1 L-23 -1 L163 710 L302 710 L115 -1 Z " />
<glyph glyph-name="m" unicode="m" horiz-adv-x="714" d="M665 -72 Q692 -73 708 -54 L738 -143 Q691 -193 603 -197 Q545 -197 508 -156 Q476 -122 475 -84 Q475 -92 484 0 L567 320 Q569 325 569 330 Q569 347 553 356 Q546 362 537 362 Q519 362 498 345 Q467 320 466 319 Q451 305 442 286 L367 0 L228 0 L312 315 Q313 320 313 325 Q313 342 297 351 Q291 357 281 357 Q264 357 242 340 Q206 311 199 302 Q181 279 173 234 L172 234 L110 0 L-28 0 L96 472 L234 472 L224 435 Q283 471 338 471 Q358 471 371 466 Q417 446 437 408 Q516 476 594 476 Q613 476 627 471 Q709 435 709 349 Q709 333 706 320 L622 0 Q621 -43 635 -59 Q644 -70 665 -72 Z " />
<glyph glyph-name="n" unicode="n" horiz-adv-x="464" d="M413 -75 Q436 -76 456 -56 L486 -146 Q439 -196 351 -200 Q293 -200 256 -159 Q224 -125 223 -87 Q223 -92 232 0 L315 317 Q317 322 317 327 Q317 344 301 353 Q294 359 285 359 Q267 359 246 342 Q231 330 216 317 Q201 304 193 288 L117 0 L-21 0 L103 472 L241 472 L233 440 Q289 473 342 473 Q361 473 375 469 Q457 432 457 346 Q457 330 454 317 L370 0 Q369 -71 413 -75 Z " />
<glyph glyph-name="o" unicode="o" horiz-adv-x="418" d="M96 5 Q2 51 2 181 Q2 251 35 318 Q70 391 130 434.5 Q190 478 252 478 Q288 478 319 462 Q413 417 413 287 Q413 217 380 150 Q345 77 285 33.5 Q225 -10 163 -10 Q127 -10 96 5 Z M253 370 Q230 370 202 341.5 Q174 313 154 265 Q133 214 133 168 Q133 102 171 102 Q194 102 222 130 Q250 158 270.5 207.5 Q291 257 291 303 Q291 370 253 370 Z " />
<glyph glyph-name="p" unicode="p" horiz-adv-x="449" d="M117 53 L49 -207 L-89 -207 L88 473 L226 473 L215 429 Q269 473 322 473 Q345 473 365 465 Q444 431 444 310 Q444 242 414 173 Q381 95 324.5 46.5 Q268 -2 212 -2 Q151 -2 117 53 Z M276 378 Q252 378 224 347 Q196 316 178 268.5 Q160 221 160 181 Q160 114 199 114 Q223 114 251 145 Q279 176 298 225 Q315 271 315 311 Q315 378 276 378 Z " />
<glyph glyph-name="q" unicode="q" horiz-adv-x="435" d="M74 8 Q-5 42 -5 163 Q-5 231 24 300 Q58 378 114.5 427 Q171 476 227 476 Q282 476 316 429 L327 472 L466 472 L289 -207 L150 -207 L214 36 Q164 0 116 0 Q94 0 74 8 Z M240 379 Q216 379 187.5 348 Q159 317 141.5 270 Q124 223 124 182 Q124 116 162 116 Q187 116 215 147 Q243 178 261 225 Q279 272 279 313 Q279 379 240 379 Z " />
<glyph glyph-name="r" unicode="r" horiz-adv-x="327" d="M343 466 L312 336 Q286 351 263 351 Q210 351 180 278 L105 0 L-33 0 L94 472 L232 472 L224 442 Q273 473 313 473 Q331 473 343 466 Z " />
<glyph glyph-name="s" unicode="s" horiz-adv-x="367" d="M361 339 Q304 380 227 380 Q210 380 193 369 Q176 358 176 342 Q176 326 219 304 Q279 274 299 258 Q341 223 341 174 Q341 89 284 37.5 Q227 -14 141 -14 Q112 -14 59 -2 Q1 10 -16 23 L12 134 Q67 102 144 102 Q210 102 210 139 Q210 167 170.5 189 Q131 211 92 232 Q51 263 51 310 Q51 387 111 439 Q168 488 246 488 Q335 488 389 451 L361 339 Z " />
<glyph glyph-name="t" unicode="t" horiz-adv-x="300" d="M148 0 L10 0 L106 370 L43 370 L70 473 L133 473 L187 678 L325 678 L272 473 L359 473 L331 370 L245 370 L148 0 Z " />
<glyph glyph-name="u" unicode="u" horiz-adv-x="468" d="M152 110 Q158 105 169 105 Q187 105 212 117 Q242 132 261 177 L338 472 L476 472 L353 -4 L214 -4 L222 25 Q162 -7 100 -7 Q87 -7 78 -6 Q-4 15 -4 114 Q-4 131 -1 146 L85 472 L223 472 L137 146 Q136 141 136 136 Q136 119 152 110 Z " />
<glyph glyph-name="v" unicode="v" horiz-adv-x="420" d="M69 0 L70 2 L43 474 L174 474 L190 205 L348 473 L480 473 L202 0 L69 0 Z " />
<glyph glyph-name="w" unicode="w" horiz-adv-x="685" d="M68 8 L42 474 L177 474 L191 223 L332 474 L467 474 L467 473 L471 473 L468 467 L481 223 L625 473 L761 473 L494 0 L354 0 L358 8 L345 253 L203 5 L204 0 L64 0 L68 8 Z " />
<glyph glyph-name="x" unicode="x" horiz-adv-x="467" d="M85 0 L-67 0 L158 237 L58 474 L196 474 L254 338 L382 473 L533 473 L301 228 L397 1 L258 1 L205 127 L85 0 Z " />
<glyph glyph-name="y" unicode="y" horiz-adv-x="443" d="M221 0 Q178 -70 163 -90 Q132 -131 87 -162 Q28 -203 -28 -203 Q-113 -199 -112 -149 L-47 -59 Q-46 -79 -18 -78 Q29 -74 83 0 L37 474 L175 474 L202 196 L372 473 L510 473 L221 0 Z " />
<glyph glyph-name="z" unicode="z" horiz-adv-x="367" d="M168 104 L324 104 L299 0 L-47 0 L206 371 L40 371 L66 474 L293 474 L293 474 L421 474 L168 104 Z " />
<glyph glyph-name="braceleft" unicode="&#x7b;" horiz-adv-x="227" d="" />
<glyph glyph-name="bar" unicode="&#x7c;" horiz-adv-x="1922" d="M1792 793 Q1781 791 1771.5 780 Q1762 769 1762 759 L1762 623 L1731 623 L1731 793 Q1731 803 1724 809 L1743 831 Q1760 825 1762 802 Q1784 831 1792 831 L1792 793 Z M1717 771 Q1717 716 1673 705 Q1673 688 1679 673 Q1687 655 1703 655 Q1707 655 1716 659 L1716 624 Q1709 621 1699 621 Q1640 621 1640 725 L1640 749 Q1640 831 1679 831 Q1717 831 1717 771 Z M1624 623 L1593 623 L1593 792 Q1593 801 1585 801 Q1581 801 1578 796 L1578 623 L1547 623 L1547 793 Q1547 805 1540 809 L1560 832 Q1569 830 1576 817 Q1587 832 1599 832 Q1624 832 1624 795 L1624 623 Z M1530 623 L1499 623 L1499 791 Q1499 801 1491 801 Q1486 799 1483 795 L1483 623 L1452 623 L1452 891 L1483 891 L1483 820 Q1493 832 1505 832 Q1530 832 1530 793 L1530 623 Z M1438 726 Q1438 621 1401 621 Q1361 621 1361 726 Q1361 831 1399 831 Q1438 831 1438 726 Z M1353 623 L1296 623 L1296 891 L1332 891 L1332 659 L1353 659 L1353 623 Z M1664 286 L1633 286 L1633 453 Q1633 463 1626 463 Q1620 461 1617 457 L1617 286 L1586 286 L1586 453 Q1586 463 1579 463 Q1574 461 1571 457 L1571 286 L1540 286 L1540 460 Q1540 468 1535 473 L1553 494 Q1566 490 1569 479 Q1580 495 1593 495 Q1607 495 1615 480 Q1627 495 1639 495 Q1664 495 1664 457 L1664 286 Z M1245 648 L1227 621 Q1215 624 1211 639 Q1200 621 1190 621 Q1160 621 1160 700 L1160 737 Q1160 832 1207 832 L1207 891 L1238 891 L1238 673 Q1238 654 1245 648 Z M1151 644 L1127 621 Q1110 626 1110 649 L1110 891 L1141 891 L1141 665 Q1141 648 1151 644 Z M1524 389 Q1524 284 1487 284 Q1447 284 1447 389 Q1447 494 1485 494 Q1524 494 1524 389 Z M1819 -52 L1788 -52 L1788 115 Q1788 126 1781 126 Q1776 124 1773 120 L1773 -52 L1742 -52 L1742 116 Q1742 126 1734 126 Q1729 124 1726 120 L1726 -52 L1695 -52 L1695 123 Q1695 131 1690 135 L1708 157 Q1721 153 1725 142 Q1735 157 1749 157 Q1762 157 1770 142 Q1782 157 1795 157 Q1819 157 1819 119 L1819 -52 Z M1438 289 Q1430 283 1423 283 Q1380 283 1380 377 L1380 407 Q1380 494 1424 494 Q1430 494 1438 492 L1438 460 Q1432 463 1430 463 Q1411 463 1411 407 L1411 376 Q1411 315 1428 315 Q1435 315 1438 319 L1438 289 Z M1095 726 Q1095 621 1057 621 Q1017 621 1017 726 Q1017 831 1056 831 Q1095 831 1095 726 Z M1328 307 L1304 284 Q1288 289 1288 311 L1288 554 L1318 554 L1318 328 Q1318 311 1328 307 Z M1009 793 Q999 791 989.5 780 Q980 769 980 759 L980 623 L949 623 L949 793 Q949 803 942 809 L960 831 Q977 825 980 802 Q1002 831 1009 831 L1009 793 Z M1680 52 Q1680 -54 1642 -54 Q1602 -54 1602 52 Q1602 157 1640 157 Q1680 157 1680 52 Z M1372 303 Q1372 284 1352 284 Q1332 284 1332 303 Q1332 323 1352 323 Q1372 323 1372 303 Z M1272 389 Q1272 284 1234 284 Q1194 284 1194 389 Q1194 494 1233 494 Q1272 494 1272 389 Z M938 648 L920 621 Q911 624 904 639 Q895 621 883 621 Q852 621 852 713 L852 738 Q852 831 916 831 L930 831 L930 678 Q930 654 938 648 Z M1593 -48 Q1586 -54 1578 -54 Q1535 -54 1535 39 L1535 69 Q1535 157 1579 157 Q1586 157 1593 154 L1593 123 Q1587 126 1585 126 Q1567 126 1567 69 L1567 38 Q1567 -22 1583 -22 Q1590 -22 1593 -18 L1593 -48 Z M834 623 L799 623 L799 736 L780 736 L780 623 L744 623 L744 891 L780 891 L780 771 L799 771 L799 891 L834 891 L834 623 Z M1189 311 L1171 284 Q1162 286 1155 302 Q1146 284 1134 284 Q1103 284 1103 376 L1103 401 Q1103 494 1167 494 L1181 494 L1181 340 Q1181 317 1189 311 Z M1481 -6 Q1481 -54 1446 -54 Q1434 -54 1425 -48 L1425 -17 Q1430 -23 1437 -23 Q1453 -23 1453 -7 Q1453 12 1439 51 Q1425 90 1425 110 Q1425 157 1457 157 Q1466 157 1478 150 L1478 122 Q1472 127 1466 127 Q1454 127 1454 111 Q1454 92 1467.5 53 Q1481 14 1481 -6 Z M1527 -34 Q1527 -54 1508 -54 Q1488 -54 1488 -34 Q1488 -14 1508 -14 Q1527 -14 1527 -34 Z M1416 -47 Q1408 -53 1400 -53 Q1370 -53 1370 -18 L1370 129 L1354 129 L1354 138 Q1365 149 1392 189 L1401 189 L1401 155 L1416 155 L1416 129 L1401 129 L1401 -13 Q1401 -23 1410 -23 Q1411 -23 1416 -21 L1416 -47 Z M693 700 Q693 625 624 621 L624 658 Q655 661 655 700 Q655 742 624 743 L624 772 L627 772 Q654 772 654 823 Q654 857 634 857 Q630 857 624 855 L624 889 Q632 893 641 893 Q691 893 691 822 Q691 777 666 761 Q693 741 693 700 Z M1077 433 Q1077 403 1066 375 Q1051 339 1025 339 Q1007 339 1002 359 Q991 339 973 339 Q940 339 940 397 Q940 424 951 449 Q965 482 989 482 Q1005 482 1012 465 L1014 476 L1041 476 Q1036 452 1030 429 Q1024 399 1024 381 Q1024 378 1025 373 L1029 370 Q1042 371 1049 398 Q1054 417 1054 435 Q1054 509 996 509 Q959 509 938 474 Q920 444 920 404 Q920 366 936 339 Q956 306 991 306 Q1023 306 1053 340 L1064 315 Q1030 276 990 276 Q943 276 918 319 Q897 355 897 405 Q897 455 920 494 Q947 539 994 539 Q1034 539 1057 505 Q1077 475 1077 433 Z M1342 -52 L1311 -52 L1311 118 Q1311 126 1304 126 Q1299 126 1296 121 L1296 -52 L1265 -52 L1265 118 Q1265 130 1259 135 L1278 157 Q1287 155 1294 143 Q1305 157 1318 157 Q1342 157 1342 121 L1342 -52 Z M613 754 Q613 621 566 621 Q516 621 516 757 Q516 893 564 893 Q613 893 613 754 Z M1251 52 Q1251 -54 1214 -54 Q1174 -54 1174 52 Q1174 157 1212 157 Q1251 157 1251 52 Z M876 456 Q865 454 855.5 443 Q846 432 846 421 L846 286 L816 286 L816 455 Q816 465 808 472 L827 494 Q844 488 846 465 Q869 494 876 494 L876 456 Z M504 754 Q504 621 457 621 Q407 621 407 757 Q407 893 455 893 Q504 893 504 754 Z M1165 189 Q1151 188 1151 155 L1165 155 L1165 129 L1151 129 L1151 -36 Q1151 -91 1107 -91 L1107 -57 Q1120 -57 1120 -30 L1120 129 L1107 129 L1107 155 L1120 155 Q1120 220 1161 219 L1165 219 L1165 189 Z M801 434 Q801 379 757 368 Q757 351 764 336 Q772 317 787 317 Q791 317 800 321 L800 287 Q793 284 784 284 Q724 284 724 388 L724 412 Q724 494 763 494 Q801 494 801 434 Z M1099 -6 Q1099 -54 1063 -54 Q1051 -54 1042 -48 L1042 -17 Q1047 -23 1055 -23 Q1070 -23 1070 -7 Q1070 12 1056 51 Q1042 90 1042 110 Q1042 157 1074 157 Q1084 157 1095 150 L1095 122 Q1089 127 1084 127 Q1071 127 1071 111 Q1071 92 1085 53 Q1099 14 1099 -6 Z M394 623 L319 623 Q354 746 354 822 Q354 853 336 853 Q327 853 320 844 L320 879 Q336 893 350 893 Q392 893 392 828 Q392 776 365 658 L394 658 L394 623 Z M1037 -27 L1019 -54 Q1006 -51 1002 -35 Q992 -53 982 -53 Q951 -53 951 25 L951 62 Q951 157 999 157 L999 217 L1029 217 L1029 -2 Q1029 -20 1037 -27 Z M708 286 L677 286 L677 455 Q677 464 670 464 Q665 464 662 459 L662 286 L631 286 L631 456 Q631 467 625 472 L644 494 Q653 492 660 480 Q671 494 684 494 Q708 494 708 458 L708 286 Z M943 -31 L919 -53 Q902 -48 902 -26 L902 217 L933 217 L933 -9 Q933 -26 943 -31 Z M614 286 L583 286 L583 454 Q583 464 576 464 Q571 462 567 457 L567 286 L536 286 L536 554 L567 554 L567 482 Q577 495 589 495 Q614 495 614 456 L614 286 Z M302 744 Q302 700 283 664 Q259 620 219 620 Q179 620 155 664 Q136 700 136 744 Q136 788 155 825 Q179 869 219 869 Q259 869 283 825 Q302 788 302 744 Z M886 52 Q886 -54 849 -54 Q809 -54 809 52 Q809 157 847 157 Q886 157 886 52 Z M523 389 Q523 284 485 284 Q445 284 445 389 Q445 494 484 494 Q523 494 523 389 Z M438 286 L380 286 L380 554 L416 554 L416 321 L438 321 L438 286 Z M801 118 Q791 116 781 105 Q771 94 771 84 L771 -52 L741 -52 L741 118 Q741 128 734 134 L752 157 Q769 151 771 127 Q794 157 801 157 L801 118 Z M730 -27 L712 -53 Q703 -51 696 -35 Q687 -53 674 -53 Q644 -53 644 39 L644 64 Q644 157 707 157 L722 157 L722 3 Q722 -21 730 -27 Z M361 286 L325 286 L325 399 L306 399 L306 286 L270 286 L270 554 L306 554 L306 434 L325 434 L325 554 L361 554 L361 286 Z M627 -52 L596 -52 L596 116 Q596 127 588 126 Q583 124 580 120 L580 -52 L549 -52 L549 217 L580 217 L580 145 Q590 157 602 157 Q627 157 627 118 L627 -52 Z M538 -34 Q538 -54 518 -54 Q498 -54 498 -34 Q498 -14 518 -14 Q538 -14 538 -34 Z M492 155 L468 -54 L443 -54 L431 79 L418 -54 L394 -54 L369 155 L400 155 L406 14 L416 155 L444 155 L454 15 L461 155 L492 155 Z M362 155 L338 -54 L313 -54 L301 79 L289 -54 L264 -54 L239 155 L270 155 L277 14 L286 155 L314 155 L325 15 L331 155 L362 155 Z M232 155 L208 -54 L183 -54 L171 79 L159 -54 L134 -54 L109 155 L141 155 L147 14 L157 155 L185 155 L195 15 L202 155 L232 155 Z M1686 770 Q1686 790 1680 799 Q1672 785 1672 766 L1672 739 Q1686 744 1686 770 Z M1407 725 Q1407 791 1400 796 Q1393 790 1393 729 Q1393 664 1400 657 Q1407 665 1407 725 Z M1207 655 L1207 794 Q1191 789 1191 747 L1191 704 Q1191 652 1201 652 Q1205 652 1207 655 Z M1493 388 Q1493 453 1486 458 Q1478 453 1478 392 Q1478 327 1486 319 Q1493 328 1493 388 Z M1064 725 Q1064 791 1056 796 Q1049 790 1049 729 Q1049 664 1056 657 Q1064 665 1064 725 Z M1648 51 Q1648 116 1641 121 Q1634 116 1634 55 Q1634 -11 1641 -18 Q1648 -9 1648 51 Z M1241 388 Q1241 453 1233 458 Q1226 453 1226 392 Q1226 327 1233 319 Q1241 328 1241 388 Z M900 654 L900 793 Q884 788 884 740 L884 703 Q884 652 894 652 Q897 652 900 654 Z M1150 316 L1150 456 Q1135 451 1135 403 L1135 365 Q1135 314 1145 314 Q1148 314 1150 316 Z M1003 435 Q1003 453 994 453 Q983 453 976 428 Q970 408 970 393 Q970 370 980 370 Q990 370 997 398 Q1003 420 1003 435 Z M575 753 Q575 835 564 852 Q554 838 554 762 Q554 676 565 662 Q575 678 575 753 Z M1220 51 Q1220 116 1213 121 Q1206 116 1206 55 Q1206 -11 1213 -18 Q1220 -9 1220 51 Z M466 753 Q466 835 455 852 Q445 838 445 762 Q445 676 456 662 Q466 678 466 753 Z M771 433 Q771 453 764 462 Q756 448 756 428 L756 402 Q771 407 771 433 Z M999 -20 L999 119 Q983 115 983 72 L983 29 Q983 -23 993 -23 Q997 -23 999 -20 Z M279 744 Q279 778 266 806 Q249 842 219 842 Q189 842 172 807 Q159 778 159 744 Q159 710 172 682 Q189 646 219 646 Q249 646 266 682 Q279 710 279 744 Z M855 51 Q855 116 848 121 Q841 116 841 55 Q841 -11 848 -18 Q855 -9 855 51 Z M492 388 Q492 453 484 458 Q477 453 477 392 Q477 327 484 319 Q492 328 492 388 Z M691 -21 L691 118 Q675 113 675 66 L675 28 Q675 -23 686 -23 Q689 -23 691 -21 Z M263 760 L237 760 Q234 785 221 785 Q204 785 204 743 Q204 703 222 703 Q234 703 237 727 L263 727 Q256 669 221 669 Q197 669 184 696 Q173 717 173 744 Q173 771 183 792 Q195 819 219 819 Q257 819 263 760 Z " />
<glyph glyph-name="asciitilde" unicode="&#x7e;" horiz-adv-x="564" d="M214 -35 Q99 -35 34 68 Q-22 156 -22 278 Q-22 431 50 544 Q65 540 79 540 Q117 540 150 565 Q183 590 199 626 Q183 602 137 590 Q101 580 64 580 Q45 580 24 582 L49 678 Q66 676 83 676 Q134 676 211 723 Q288 770 350 770 Q465 770 531 667 Q587 579 587 457 Q587 290 486 137 Q373 -35 214 -35 Z M351 425 L424 298 Q462 402 462 495 Q462 606 408 643 L351 425 Z M120 287 L266 432 L322 646 Q242 608 183 491 Q133 392 120 287 Z M224 272 L122 170 Q134 104 174 78 L224 272 Z M381 205 L321 308 L261 80 Q327 113 381 205 Z " />
<glyph glyph-name="Adieresis" unicode="&#xc4;" horiz-adv-x="541" d="M222 192 L317 192 L317 357 L222 192 Z M317 89 L163 89 L112 0 L-25 0 L306 559 Q359 583 381 634 Q330 587 260 587 Q246 587 232 590 L258 686 Q274 683 289 683 Q367 683 418 748 L472 839 L472 0 L317 0 L317 89 Z M360 782 Q330 781 308 796 Q286 811 286 833 Q286 856 308 872.5 Q330 889 360 890 Q391 891 412.5 876 Q434 861 434 839 Q434 816 412.5 799.5 Q391 783 360 782 Z M563 782 Q532 781 510.5 796 Q489 811 489 833 Q489 856 510.5 872.5 Q532 889 563 890 Q593 891 615 876 Q637 861 637 839 Q637 816 615 799.5 Q593 783 563 782 Z " />
<glyph glyph-name="Aring" unicode="&#xc5;" horiz-adv-x="541" d="M222 192 L317 192 L317 357 L222 192 Z M317 89 L163 89 L112 0 L-25 0 L306 559 Q359 583 381 634 Q330 587 260 587 Q246 587 232 590 L258 686 Q274 683 289 683 Q367 683 418 748 L472 839 L472 0 L317 0 L317 89 Z M542 848 Q538 812 503 787 Q468 762 423 762 Q379 762 350 787 Q321 812 326 848 Q330 884 365 909 Q400 934 445 934 Q489 934 518 909 Q547 884 542 848 Z M440 876 Q400 876 397 848 Q395 837 405.5 828.5 Q416 820 432 820 Q472 820 475 848 Q477 859 466.5 867.5 Q456 876 440 876 Z " />
<glyph glyph-name="Ccedilla" unicode="&#xc7;" horiz-adv-x="431" d="M52 543 Q67 540 81 540 Q161 540 204 626 Q165 580 69 580 Q50 580 29 582 L54 678 Q144 675 193 705 Q277 765 360 765 Q465 765 528 674 L497 556 Q485 575 470 589 Q436 623 398 624 Q386 627 373 627 Q261 627 182 424 Q150 341 150 260 Q150 146 201 119 Q210 114 230 109 Q319 108 398 177 L359 28 Q278 -28 198 -28 Q146 -28 102 -4 Q41 30 8 101 Q-25 172 -25 263 Q-25 408 52 543 Z M256 14 L165 -117 L104 -115 L168 14 L256 14 Z " />
<glyph glyph-name="Eacute" unicode="&#xc9;" horiz-adv-x="438" d="M405 370 L228 370 L159 104 L411 104 L381 0 L-17 0 L141 606 Q107 586 61 586 Q46 586 30 588 L55 684 Q68 682 80 682 Q145 682 179 750 L571 750 L541 647 L300 647 L256 474 L435 474 L405 370 Z M281 786 L307 863 L506 924 L475 810 L281 786 Z " />
<glyph glyph-name="Ntilde" unicode="&#xd1;" horiz-adv-x="522" d="M281 0 L283 9 L243 465 L121 0 L-17 0 L141 606 Q107 586 61 586 Q46 586 30 588 L55 684 Q68 682 80 682 Q145 682 179 750 L323 750 L364 318 L477 750 L615 750 L419 0 L281 0 Z M518 790 Q490 774 457 774 Q435 774 395 789 Q355 804 334 804 Q290 804 258 766 L292 860 Q327 891 369 891 Q399 891 433.5 875 Q468 859 483 859 Q517 859 549 895 L518 790 Z " />
<glyph glyph-name="Odieresis" unicode="&#xd6;" horiz-adv-x="564" d="M399 300 Q437 403 437 494 Q437 545 424 581 Q404 633 362 633 Q317 633 266 575 Q215 517 180 424 Q142 321 142 230 Q142 179 155 143 Q175 91 217 91 Q262 91 312.5 149 Q363 207 399 300 Z M49 678 Q66 676 83 676 Q141 676 175 701 Q262 770 350 770 Q402 770 448 745 Q514 709 550.5 632 Q587 555 587 457 Q587 341 537 229 Q484 109 395 37 Q306 -35 214 -35 Q162 -35 117 -10 Q51 26 14.5 103 Q-22 180 -22 278 Q-22 394 28 506 L50 544 Q65 540 79 540 Q156 540 199 626 Q160 580 64 580 Q45 580 24 582 L49 678 Z M280 782 Q250 781 228 796 Q206 811 206 833 Q206 856 228 872.5 Q250 889 280 890 Q311 891 332.5 876 Q354 861 354 839 Q354 816 332.5 799.5 Q311 783 280 782 Z M483 782 Q452 781 430.5 796 Q409 811 409 833 Q409 856 430.5 872.5 Q452 889 483 890 Q513 891 535 876 Q557 861 557 839 Q557 816 535 799.5 Q513 783 483 782 Z " />
<glyph glyph-name="Udieresis" unicode="&#xdc;" horiz-adv-x="469" d="M150 123 Q171 109 193 109 Q213 109 229 120 Q256 142 268 163.5 Q280 185 293 235 L428 750 L576 750 L442 235 Q414 128 360 57 Q332 28 280.5 9.5 Q229 -9 173 -9 Q128 -9 90 4 Q-16 29 -16 147 Q-16 179 -9 207 L71 472 L106 607 Q71 586 25 586 Q10 586 -6 588 L19 684 Q32 682 44 682 Q109 682 143 750 L291 750 L219 472 L142 202 Q138 180 138 164 Q138 129 150 123 Z M265 782 Q235 781 213 796 Q191 811 191 833 Q191 856 213 872.5 Q235 889 265 890 Q296 891 317.5 876 Q339 861 339 839 Q339 816 317.5 799.5 Q296 783 265 782 Z M468 782 Q437 781 415.5 796 Q394 811 394 833 Q394 856 415.5 872.5 Q437 889 468 890 Q498 891 520 876 Q542 861 542 839 Q542 816 520 799.5 Q498 783 468 782 Z " />
<glyph glyph-name="aacute" unicode="&#xe1;" horiz-adv-x="478" d="M80 1 Q-1 36 -1 162 Q-1 232 29 302 Q62 380 119 429.5 Q176 479 233 479 Q289 479 322 433 L333 474 L468 474 L381 138 Q379 131 379 125 Q379 105 402 105 Q415 105 431 111 L406 23 Q354 -12 310 -12 Q260 -12 226 33 Q174 -7 123 -7 Q100 -7 80 1 Z M247 372 Q223 372 195.5 342 Q168 312 150 263 Q133 218 133 176 Q133 109 168 109 Q191 109 219 141 Q247 173 265 223 Q283 268 283 308 Q283 372 247 372 Z M211 536 L237 613 L436 674 L405 560 L211 536 Z " />
<glyph glyph-name="agrave" unicode="&#xe0;" horiz-adv-x="478" d="M80 1 Q-1 36 -1 162 Q-1 232 29 302 Q62 380 119 429.5 Q176 479 233 479 Q289 479 322 433 L333 474 L468 474 L381 138 Q379 131 379 125 Q379 105 402 105 Q415 105 431 111 L406 23 Q354 -12 310 -12 Q260 -12 226 33 Q174 -7 123 -7 Q100 -7 80 1 Z M247 372 Q223 372 195.5 342 Q168 312 150 263 Q133 218 133 176 Q133 109 168 109 Q191 109 219 141 Q247 173 265 223 Q283 268 283 308 Q283 372 247 372 Z M395 536 L184 566 L212 667 L412 600 L395 536 Z " />
<glyph glyph-name="acircumflex" unicode="&#xe2;" horiz-adv-x="478" d="M80 1 Q-1 36 -1 162 Q-1 232 29 302 Q62 380 119 429.5 Q176 479 233 479 Q289 479 322 433 L333 474 L468 474 L381 138 Q379 131 379 125 Q379 105 402 105 Q415 105 431 111 L406 23 Q354 -12 310 -12 Q260 -12 226 33 Q174 -7 123 -7 Q100 -7 80 1 Z M247 372 Q223 372 195.5 342 Q168 312 150 263 Q133 218 133 176 Q133 109 168 109 Q191 109 219 141 Q247 173 265 223 Q283 268 283 308 Q283 372 247 372 Z M444 538 L308 588 L164 539 L187 603 L336 689 L461 602 L444 538 Z " />
<glyph glyph-name="adieresis" unicode="&#xe4;" horiz-adv-x="478" d="M80 1 Q-1 36 -1 162 Q-1 232 29 302 Q62 380 119 429.5 Q176 479 233 479 Q289 479 322 433 L333 474 L468 474 L381 138 Q379 131 379 125 Q379 105 402 105 Q415 105 431 111 L406 23 Q354 -12 310 -12 Q260 -12 226 33 Q174 -7 123 -7 Q100 -7 80 1 Z M247 372 Q223 372 195.5 342 Q168 312 150 263 Q133 218 133 176 Q133 109 168 109 Q191 109 219 141 Q247 173 265 223 Q283 268 283 308 Q283 372 247 372 Z M220 532 Q190 531 168 546 Q146 561 146 583 Q146 606 168 622.5 Q190 639 220 640 Q251 641 272.5 626 Q294 611 294 589 Q294 566 272.5 549.5 Q251 533 220 532 Z M423 532 Q392 531 370.5 546 Q349 561 349 583 Q349 606 370.5 622.5 Q392 639 423 640 Q453 641 475 626 Q497 611 497 589 Q497 566 475 549.5 Q453 533 423 532 Z " />
<glyph glyph-name="atilde" unicode="&#xe3;" horiz-adv-x="478" d="M80 1 Q-1 36 -1 162 Q-1 232 29 302 Q62 380 119 429.5 Q176 479 233 479 Q289 479 322 433 L333 474 L468 474 L381 138 Q379 131 379 125 Q379 105 402 105 Q415 105 431 111 L406 23 Q354 -12 310 -12 Q260 -12 226 33 Q174 -7 123 -7 Q100 -7 80 1 Z M247 372 Q223 372 195.5 342 Q168 312 150 263 Q133 218 133 176 Q133 109 168 109 Q191 109 219 141 Q247 173 265 223 Q283 268 283 308 Q283 372 247 372 Z M383 540 Q355 524 322 524 Q300 524 260 539 Q220 554 199 554 Q155 554 123 516 L157 610 Q192 641 234 641 Q264 641 298.5 625 Q333 609 348 609 Q382 609 414 645 L383 540 Z " />
<glyph glyph-name="aring" unicode="&#xe5;" horiz-adv-x="478" d="M80 1 Q-1 36 -1 162 Q-1 232 29 302 Q62 380 119 429.5 Q176 479 233 479 Q289 479 322 433 L333 474 L468 474 L381 138 Q379 131 379 125 Q379 105 402 105 Q415 105 431 111 L406 23 Q354 -12 310 -12 Q260 -12 226 33 Q174 -7 123 -7 Q100 -7 80 1 Z M247 372 Q223 372 195.5 342 Q168 312 150 263 Q133 218 133 176 Q133 109 168 109 Q191 109 219 141 Q247 173 265 223 Q283 268 283 308 Q283 372 247 372 Z M387 598 Q383 562 348 537 Q313 512 268 512 Q224 512 195 537 Q166 562 171 598 Q175 634 210 659 Q245 684 290 684 Q334 684 363 659 Q392 634 387 598 Z M285 626 Q245 626 242 598 Q240 587 250.5 578.5 Q261 570 277 570 Q317 570 320 598 Q322 609 311.5 617.5 Q301 626 285 626 Z " />
<glyph glyph-name="ccedilla" unicode="&#xe7;" horiz-adv-x="342" d="M339 296 Q310 358 265 366 Q260 368 255 368 Q231 368 201 341 Q168 311 150 263 Q135 224 135 186 Q135 159 143 136 Q155 105 178 105 Q238 104 307 174 L270 30 Q214 -5 158 -5 Q123 -5 93 10 Q-1 55 -1 184 Q-1 253 31 320 Q66 391 125.5 434.5 Q185 478 247 478 Q323 478 370 414 L339 296 Z M206 14 L115 -117 L54 -115 L118 14 L206 14 Z " />
<glyph glyph-name="eacute" unicode="&#xe9;" horiz-adv-x="392" d="M132 158 Q139 115 161 105 Q167 101 176 97 Q248 96 301 150 L266 16 Q224 -11 176 -11 Q134 -11 92 10 Q0 55 0 182 Q0 250 32 316 Q67 388 129 431.5 Q191 475 254 475 Q289 475 319 461 Q398 434 398 341 Q398 324 395 310 Q381 247 319 199 Q257 151 184 151 Q157 151 132 158 Z M140 245 Q159 241 178 241 Q228 241 260 265 Q293 294 293 323 Q293 339 281 354 Q269 369 253 369 Q218 369 182 323 Q152 285 140 245 Z M186 536 L212 613 L411 674 L380 560 L186 536 Z " />
<glyph glyph-name="egrave" unicode="&#xe8;" horiz-adv-x="392" d="M132 158 Q139 115 161 105 Q167 101 176 97 Q248 96 301 150 L266 16 Q224 -11 176 -11 Q134 -11 92 10 Q0 55 0 182 Q0 250 32 316 Q67 388 129 431.5 Q191 475 254 475 Q289 475 319 461 Q398 434 398 341 Q398 324 395 310 Q381 247 319 199 Q257 151 184 151 Q157 151 132 158 Z M140 245 Q159 241 178 241 Q228 241 260 265 Q293 294 293 323 Q293 339 281 354 Q269 369 253 369 Q218 369 182 323 Q152 285 140 245 Z M370 536 L159 566 L187 667 L387 600 L370 536 Z " />
<glyph glyph-name="ecircumflex" unicode="&#xea;" horiz-adv-x="392" d="M132 158 Q139 115 161 105 Q167 101 176 97 Q248 96 301 150 L266 16 Q224 -11 176 -11 Q134 -11 92 10 Q0 55 0 182 Q0 250 32 316 Q67 388 129 431.5 Q191 475 254 475 Q289 475 319 461 Q398 434 398 341 Q398 324 395 310 Q381 247 319 199 Q257 151 184 151 Q157 151 132 158 Z M140 245 Q159 241 178 241 Q228 241 260 265 Q293 294 293 323 Q293 339 281 354 Q269 369 253 369 Q218 369 182 323 Q152 285 140 245 Z M409 538 L273 588 L129 539 L152 603 L301 689 L426 602 L409 538 Z " />
<glyph glyph-name="edieresis" unicode="&#xeb;" horiz-adv-x="392" d="M132 158 Q139 115 161 105 Q167 101 176 97 Q248 96 301 150 L266 16 Q224 -11 176 -11 Q134 -11 92 10 Q0 55 0 182 Q0 250 32 316 Q67 388 129 431.5 Q191 475 254 475 Q289 475 319 461 Q398 434 398 341 Q398 324 395 310 Q381 247 319 199 Q257 151 184 151 Q157 151 132 158 Z M140 245 Q159 241 178 241 Q228 241 260 265 Q293 294 293 323 Q293 339 281 354 Q269 369 253 369 Q218 369 182 323 Q152 285 140 245 Z M195 532 Q165 531 143 546 Q121 561 121 583 Q121 606 143 622.5 Q165 639 195 640 Q226 641 247.5 626 Q269 611 269 589 Q269 566 247.5 549.5 Q226 533 195 532 Z M398 532 Q367 531 345.5 546 Q324 561 324 583 Q324 606 345.5 622.5 Q367 639 398 640 Q428 641 450 626 Q472 611 472 589 Q472 566 450 549.5 Q428 533 398 532 Z " />
<glyph glyph-name="iacute" unicode="&#xed;" horiz-adv-x="230" d="M241 472 L117 -2 L-21 -2 L103 472 L241 472 Z M96 536 L122 613 L321 674 L290 560 L96 536 Z " />
<glyph glyph-name="igrave" unicode="&#xec;" horiz-adv-x="230" d="M241 472 L117 -2 L-21 -2 L103 472 L241 472 Z M285 536 L74 566 L102 667 L302 600 L285 536 Z " />
<glyph glyph-name="icircumflex" unicode="&#xee;" horiz-adv-x="230" d="M241 472 L117 -2 L-21 -2 L103 472 L241 472 Z M324 538 L188 588 L44 539 L67 603 L216 689 L341 602 L324 538 Z " />
<glyph glyph-name="idieresis" unicode="&#xef;" horiz-adv-x="230" d="M241 472 L117 -2 L-21 -2 L103 472 L241 472 Z M95 532 Q65 531 43 546 Q21 561 21 583 Q21 606 43 622.5 Q65 639 95 640 Q126 641 147.5 626 Q169 611 169 589 Q169 566 147.5 549.5 Q126 533 95 532 Z M298 532 Q267 531 245.5 546 Q224 561 224 583 Q224 606 245.5 622.5 Q267 639 298 640 Q328 641 350 626 Q372 611 372 589 Q372 566 350 549.5 Q328 533 298 532 Z " />
<glyph glyph-name="ntilde" unicode="&#xf1;" horiz-adv-x="464" d="M413 -75 Q436 -76 456 -56 L486 -146 Q439 -196 351 -200 Q293 -200 256 -159 Q224 -125 223 -87 Q223 -92 232 0 L315 317 Q317 322 317 327 Q317 344 301 353 Q294 359 285 359 Q267 359 246 342 Q231 330 216 317 Q201 304 193 288 L117 0 L-21 0 L103 472 L241 472 L233 440 Q289 473 342 473 Q361 473 375 469 Q457 432 457 346 Q457 330 454 317 L370 0 Q369 -71 413 -75 Z M418 540 Q390 524 357 524 Q335 524 295 539 Q255 554 234 554 Q190 554 158 516 L192 610 Q227 641 269 641 Q299 641 333.5 625 Q368 609 383 609 Q417 609 449 645 L418 540 Z " />
<glyph glyph-name="oacute" unicode="&#xf3;" horiz-adv-x="418" d="M96 5 Q2 51 2 181 Q2 251 35 318 Q70 391 130 434.5 Q190 478 252 478 Q288 478 319 462 Q413 417 413 287 Q413 217 380 150 Q345 77 285 33.5 Q225 -10 163 -10 Q127 -10 96 5 Z M253 370 Q230 370 202 341.5 Q174 313 154 265 Q133 214 133 168 Q133 102 171 102 Q194 102 222 130 Q250 158 270.5 207.5 Q291 257 291 303 Q291 370 253 370 Z M186 536 L212 613 L411 674 L380 560 L186 536 Z " />
<glyph glyph-name="ograve" unicode="&#xf2;" horiz-adv-x="418" d="M96 5 Q2 51 2 181 Q2 251 35 318 Q70 391 130 434.5 Q190 478 252 478 Q288 478 319 462 Q413 417 413 287 Q413 217 380 150 Q345 77 285 33.5 Q225 -10 163 -10 Q127 -10 96 5 Z M253 370 Q230 370 202 341.5 Q174 313 154 265 Q133 214 133 168 Q133 102 171 102 Q194 102 222 130 Q250 158 270.5 207.5 Q291 257 291 303 Q291 370 253 370 Z M380 536 L169 566 L197 667 L397 600 L380 536 Z " />
<glyph glyph-name="ocircumflex" unicode="&#xf4;" horiz-adv-x="418" d="M96 5 Q2 51 2 181 Q2 251 35 318 Q70 391 130 434.5 Q190 478 252 478 Q288 478 319 462 Q413 417 413 287 Q413 217 380 150 Q345 77 285 33.5 Q225 -10 163 -10 Q127 -10 96 5 Z M253 370 Q230 370 202 341.5 Q174 313 154 265 Q133 214 133 168 Q133 102 171 102 Q194 102 222 130 Q250 158 270.5 207.5 Q291 257 291 303 Q291 370 253 370 Z M404 538 L268 588 L124 539 L147 603 L296 689 L421 602 L404 538 Z " />
<glyph glyph-name="odieresis" unicode="&#xf6;" horiz-adv-x="418" d="M96 5 Q2 51 2 181 Q2 251 35 318 Q70 391 130 434.5 Q190 478 252 478 Q288 478 319 462 Q413 417 413 287 Q413 217 380 150 Q345 77 285 33.5 Q225 -10 163 -10 Q127 -10 96 5 Z M253 370 Q230 370 202 341.5 Q174 313 154 265 Q133 214 133 168 Q133 102 171 102 Q194 102 222 130 Q250 158 270.5 207.5 Q291 257 291 303 Q291 370 253 370 Z " />
<glyph glyph-name="otilde" unicode="&#xf5;" horiz-adv-x="418" d="M96 5 Q2 51 2 181 Q2 251 35 318 Q70 391 130 434.5 Q190 478 252 478 Q288 478 319 462 Q413 417 413 287 Q413 217 380 150 Q345 77 285 33.5 Q225 -10 163 -10 Q127 -10 96 5 Z M253 370 Q230 370 202 341.5 Q174 313 154 265 Q133 214 133 168 Q133 102 171 102 Q194 102 222 130 Q250 158 270.5 207.5 Q291 257 291 303 Q291 370 253 370 Z M383 540 Q355 524 322 524 Q300 524 260 539 Q220 554 199 554 Q155 554 123 516 L157 610 Q192 641 234 641 Q264 641 298.5 625 Q333 609 348 609 Q382 609 414 645 L383 540 Z " />
<glyph glyph-name="uacute" unicode="&#xfa;" horiz-adv-x="468" d="M152 110 Q158 105 169 105 Q187 105 212 117 Q242 132 261 177 L338 472 L476 472 L353 -4 L214 -4 L222 25 Q162 -7 100 -7 Q87 -7 78 -6 Q-4 15 -4 114 Q-4 131 -1 146 L85 472 L223 472 L137 146 Q136 141 136 136 Q136 119 152 110 Z M191 536 L217 613 L416 674 L385 560 L191 536 Z " />
<glyph glyph-name="ugrave" unicode="&#xf9;" horiz-adv-x="468" d="M152 110 Q158 105 169 105 Q187 105 212 117 Q242 132 261 177 L338 472 L476 472 L353 -4 L214 -4 L222 25 Q162 -7 100 -7 Q87 -7 78 -6 Q-4 15 -4 114 Q-4 131 -1 146 L85 472 L223 472 L137 146 Q136 141 136 136 Q136 119 152 110 Z M395 536 L184 566 L212 667 L412 600 L395 536 Z " />
<glyph glyph-name="ucircumflex" unicode="&#xfb;" horiz-adv-x="468" d="M152 110 Q158 105 169 105 Q187 105 212 117 Q242 132 261 177 L338 472 L476 472 L353 -4 L214 -4 L222 25 Q162 -7 100 -7 Q87 -7 78 -6 Q-4 15 -4 114 Q-4 131 -1 146 L85 472 L223 472 L137 146 Q136 141 136 136 Q136 119 152 110 Z M424 538 L288 588 L144 539 L167 603 L316 689 L441 602 L424 538 Z " />
<glyph glyph-name="udieresis" unicode="&#xfc;" horiz-adv-x="468" d="M152 110 Q158 105 169 105 Q187 105 212 117 Q242 132 261 177 L338 472 L476 472 L353 -4 L214 -4 L222 25 Q162 -7 100 -7 Q87 -7 78 -6 Q-4 15 -4 114 Q-4 131 -1 146 L85 472 L223 472 L137 146 Q136 141 136 136 Q136 119 152 110 Z M195 532 Q165 531 143 546 Q121 561 121 583 Q121 606 143 622.5 Q165 639 195 640 Q226 641 247.5 626 Q269 611 269 589 Q269 566 247.5 549.5 Q226 533 195 532 Z M398 532 Q367 531 345.5 546 Q324 561 324 583 Q324 606 345.5 622.5 Q367 639 398 640 Q428 641 450 626 Q472 611 472 589 Q472 566 450 549.5 Q428 533 398 532 Z " />
<glyph glyph-name="cent" unicode="&#xa2;" horiz-adv-x="342" d="M229 9 L207 -84 L86 -84 L107 4 Q54 23 25 76 Q-1 123 -1 184 Q-1 253 31 320 Q62 382 112 423.5 Q162 465 217 475 L236 553 L356 553 L332 452 Q353 437 370 414 L339 296 Q310 358 265 366 Q260 368 255 368 Q231 368 201 341 Q168 311 150 263 Q135 224 135 186 Q135 159 143 136 Q155 105 178 105 Q238 104 307 174 L270 30 Q249 17 229 9 Z " />
<glyph glyph-name="sterling" unicode="&#xa3;" horiz-adv-x="476" d="M137 357 Q139 429 156 540 Q236 540 279 626 Q240 580 144 580 Q125 580 104 582 L129 678 Q219 675 268 705 Q352 765 435 765 Q487 765 530 741 Q573 717 603 674 L572 556 Q560 575 545 589 Q511 623 473 624 Q459 627 444 627 Q358 627 319 542 Q311 525 306 450 Q300 382 296 357 L435 357 L414 280 L271 280 Q242 192 179 122 L202 123 Q231 124 285.5 113.5 Q340 103 366 103 Q433 103 493 128 L463 10 Q417 -11 361 -11 Q319 -11 235.5 3.5 Q152 18 109 18 Q51 18 -14 0 L15 113 Q101 178 124 280 L22 280 L43 357 L137 357 Z " />
<glyph glyph-name="bullet" unicode="&#x2022;" horiz-adv-x="342" d="M171 291 Q117 289 78.5 322 Q40 355 40 405 Q40 455 78.5 491.5 Q117 528 171 531 Q225 533 263.5 500 Q302 467 302 417 Q302 367 263.5 330.5 Q225 294 171 291 Z " />
<glyph glyph-name="germandbls" unicode="&#xdf;" horiz-adv-x="534" d="M40 474 L108 474 L117 506 Q141 595 212 653 Q283 711 373 711 Q444 711 491.5 670 Q539 629 539 560 Q539 514 514 477.5 Q489 441 447 425 Q484 400 507.5 350 Q531 300 531 248 Q531 145 470 70 Q406 -10 304 -10 Q250 -10 166 37 L195 152 Q235 114 278 114 Q327 114 357 153 Q383 187 387 241 Q391 288 358.5 331.5 Q326 375 279 376 Q277 380 271 380 Q264 380 254 377 L255 379 L254 379 L278 474 L293 471 Q297 471 300 472 Q339 470 376 491 Q417 515 417 553 Q417 608 367 608 Q330 608 299.5 578.5 Q269 549 259 510 L119 0 Q102 -64 45 -109.5 Q-12 -155 -77 -155 Q-140 -155 -173 -110 L-149 -29 Q-127 -63 -94 -63 Q-70 -63 -47.5 -43.5 Q-25 -24 -19 0 L82 375 L15 375 L40 474 Z " />
<glyph glyph-name="acute" unicode="&#xb4;" horiz-adv-x="264" d="M211 536 L237 613 L436 674 L405 560 L211 536 Z " />
<glyph glyph-name="dieresis" unicode="&#xa8;" horiz-adv-x="230" d="M220 532 Q190 531 168 546 Q146 561 146 583 Q146 606 168 622.5 Q190 639 220 640 Q251 641 272.5 626 Q294 611 294 589 Q294 566 272.5 549.5 Q251 533 220 532 Z M423 532 Q392 531 370.5 546 Q349 561 349 583 Q349 606 370.5 622.5 Q392 639 423 640 Q453 641 475 626 Q497 611 497 589 Q497 566 475 549.5 Q453 533 423 532 Z " />
<glyph glyph-name="AE" unicode="&#xc6;" horiz-adv-x="624" d="M211 192 L254 357 L116 192 L211 192 Z M590 370 L414 370 L344 104 L596 104 L566 0 L160 0 L184 89 L29 89 L-45 0 L-182 0 L334 603 Q295 587 241 587 Q224 587 210 590 L237 686 Q252 683 269 683 Q322 683 386 709 Q438 729 457 746 L536 839 L513 750 L757 750 L727 647 L486 647 L441 474 L620 474 L590 370 Z " />
<glyph glyph-name="Oslash" unicode="&#xd8;" horiz-adv-x="564" d="M398 620 L397 620 L398 620 Q382 633 362 633 Q317 633 266 575 Q215 517 180 424 Q142 321 142 230 Q142 179 155 143 Q175 91 217 91 Q262 91 312.5 149 Q363 207 399 300 Q437 403 437 494 Q437 587 398 620 Z M122 -13 L109 -33 L-42 -33 L29 75 Q-22 159 -22 278 Q-22 394 28 506 L50 544 Q65 540 79 540 Q156 540 199 626 Q160 580 64 580 Q45 580 24 582 L49 678 Q66 676 83 676 Q141 676 175 701 Q262 770 350 770 Q417 770 472 730 L489 754 L639 754 L553 627 Q587 552 587 457 Q587 341 537 229 Q484 109 395 37 Q306 -35 214 -35 Q165 -35 122 -13 Z " />
<glyph glyph-name="yen" unicode="&#xa5;" horiz-adv-x="461" d="M73 320 L198 320 L210 367 L210 370 L88 370 L116 474 L181 474 L136 637 Q84 585 -3 585 Q-22 585 -43 588 L-18 684 Q-5 682 7 682 Q72 682 105 750 L261 750 L316 549 L471 750 L647 750 L433 474 L495 474 L465 370 L353 370 L348 363 L336 320 L452 320 L422 216 L309 216 L252 0 L114 0 L171 216 L46 216 L73 320 Z " />
<glyph glyph-name="ae" unicode="&#xe6;" horiz-adv-x="662" d="M366 117 Q362 98 364 93 Q365 91 367 91 L366 117 Z M247 372 Q223 372 195.5 342 Q168 312 150 263 Q133 218 133 176 Q133 109 168 109 Q191 109 219 141 Q247 173 265 223 Q283 268 283 308 Q283 372 247 372 Z M402 158 Q409 115 430 105 Q436 101 446 97 Q517 96 571 150 L536 16 Q494 -11 445 -11 Q395 -11 353 14.5 Q311 40 290 84 Q275 64 236 33 Q185 -7 126 -7 Q100 -7 80 1 Q-1 36 -1 162 Q-1 232 29 302 Q62 380 119 429.5 Q176 479 233 479 Q289 479 322 433 L333 474 L468 474 L466 466 Q495 475 524 475 Q559 475 588 461 Q668 434 668 341 Q668 324 665 310 Q651 247 589 199 Q527 151 453 151 Q427 151 402 158 Z M410 245 Q429 241 447 241 Q497 241 529 265 Q563 294 563 323 Q563 339 550.5 354 Q538 369 522 369 Q487 369 452 323 Q422 285 410 245 Z " />
<glyph glyph-name="oslash" unicode="&#xf8;" horiz-adv-x="418" d="M253 365 Q230 365 202 336.5 Q174 308 154 260 Q133 209 133 163 Q133 97 171 97 Q194 97 222 125 Q250 153 270.5 202.5 Q291 252 291 298 Q291 365 253 365 Z M468 511 L389 393 Q413 347 413 287 Q413 217 380 150 Q345 77 285 33.5 Q225 -10 163 -10 Q141 -10 121 -4 L91 -49 L-29 -49 L39 53 Q2 105 2 181 Q2 251 35 318 Q70 391 130 434.5 Q190 478 252 478 Q286 478 316 464 L348 511 L468 511 Z " />
<glyph glyph-name="questiondown" unicode="&#xbf;" horiz-adv-x="489" d="M228 222 L261 348 L410 348 L355 134 Q342 137 331 137 Q244 137 213 18 Q208 -1 207 -16 Q200 -80 240 -80 Q289 -80 308 -8 L313 10 L451 10 Q443 -36 408 -92.5 Q373 -149 344 -168 Q283 -210 205 -210 Q130 -210 87 -170.5 Q44 -131 44 -58 Q44 -21 53 15 Q115 29 151 98 Q112 52 17 52 Q-3 52 -24 54 L1 150 Q91 147 141 177 Q190 212 228 222 Z M343 398 Q309 401 287 422 Q265 443 269 476 Q274 517 312 543 Q350 569 392 566 Q425 563 446.5 541.5 Q468 520 464 488 Q459 448 421.5 421.5 Q384 395 343 398 Z " />
<glyph glyph-name="exclamdown" unicode="&#xa1;" horiz-adv-x="492" d="M346 393 Q312 396 290 417 Q268 438 272 471 Q277 512 315 538 Q353 564 395 561 Q428 558 449.5 536.5 Q471 515 467 483 Q462 443 424.5 416.5 Q387 390 346 393 Z M265 343 L413 343 L267 -210 L118 -210 L226 198 Q192 178 147 178 Q132 178 116 180 L141 277 Q154 274 166 274 Q231 274 265 343 Z " />
<glyph glyph-name="guillemotleft" unicode="&#xab;" horiz-adv-x="498" d="M188 -6 L92 -6 L20 217 L203 417 L298 415 L173 218 L188 -6 Z M388 -6 L292 -6 L220 217 L403 417 L498 415 L373 218 L388 -6 Z " />
<glyph glyph-name="guillemotright" unicode="&#xbb;" horiz-adv-x="536" d="M-21 -6 L114 218 L94 415 L190 417 L266 217 L75 -6 L-21 -6 Z M179 -6 L314 218 L294 415 L390 417 L466 217 L275 -6 L179 -6 Z " />
<glyph glyph-name="nbspace" unicode="&#xa0;" horiz-adv-x="227" d="" />
<glyph glyph-name="Agrave" unicode="&#xc0;" horiz-adv-x="541" d="M222 192 L317 192 L317 357 L222 192 Z M317 89 L163 89 L112 0 L-25 0 L306 559 Q359 583 381 634 Q330 587 260 587 Q246 587 232 590 L258 686 Q274 683 289 683 Q367 683 418 748 L472 839 L472 0 L317 0 L317 89 Z M510 786 L299 816 L327 917 L527 850 L510 786 Z " />
<glyph glyph-name="Atilde" unicode="&#xc3;" horiz-adv-x="541" d="M222 192 L317 192 L317 357 L222 192 Z M317 89 L163 89 L112 0 L-25 0 L306 559 Q359 583 381 634 Q330 587 260 587 Q246 587 232 590 L258 686 Q274 683 289 683 Q367 683 418 748 L472 839 L472 0 L317 0 L317 89 Z M543 790 Q515 774 482 774 Q460 774 420 789 Q380 804 359 804 Q315 804 283 766 L317 860 Q352 891 394 891 Q424 891 458.5 875 Q493 859 508 859 Q542 859 574 895 L543 790 Z " />
<glyph glyph-name="Otilde" unicode="&#xd5;" horiz-adv-x="564" d="M399 300 Q437 403 437 494 Q437 545 424 581 Q404 633 362 633 Q317 633 266 575 Q215 517 180 424 Q142 321 142 230 Q142 179 155 143 Q175 91 217 91 Q262 91 312.5 149 Q363 207 399 300 Z M49 678 Q66 676 83 676 Q141 676 175 701 Q262 770 350 770 Q402 770 448 745 Q514 709 550.5 632 Q587 555 587 457 Q587 341 537 229 Q484 109 395 37 Q306 -35 214 -35 Q162 -35 117 -10 Q51 26 14.5 103 Q-22 180 -22 278 Q-22 394 28 506 L50 544 Q65 540 79 540 Q156 540 199 626 Q160 580 64 580 Q45 580 24 582 L49 678 Z M518 790 Q490 774 457 774 Q435 774 395 789 Q355 804 334 804 Q290 804 258 766 L292 860 Q327 891 369 891 Q399 891 433.5 875 Q468 859 483 859 Q517 859 549 895 L518 790 Z " />
<glyph glyph-name="OE" unicode="&#x152;" horiz-adv-x="789" d="M399 300 Q437 403 437 494 Q437 545 424 581 Q404 633 362 633 Q317 633 266 575 Q215 517 180 424 Q142 321 142 230 Q142 179 155 143 Q175 91 217 91 Q262 91 312.5 149 Q363 207 399 300 Z M756 370 L579 370 L579 370 Q571 317 552 267 L510 104 L762 104 L732 0 L341 0 Q277 -35 214 -35 Q162 -35 117 -10 Q51 26 14.5 103 Q-22 180 -22 278 Q-22 394 28 506 L50 544 Q65 540 79 540 Q156 540 199 626 Q160 580 64 580 Q45 580 24 582 L49 678 Q66 676 83 676 Q141 676 175 701 Q262 770 350 770 Q448 770 514 690 L530 750 L922 750 L892 647 L651 647 L607 474 L786 474 L756 370 Z " />
<glyph glyph-name="oe" unicode="&#x153;" horiz-adv-x="667" d="M278 229 Q282 253 289 277 Q291 291 291 303 Q291 370 253 370 Q230 370 202 341.5 Q174 313 154 265 Q133 214 133 168 Q133 102 171 102 Q204 102 238 150 Q264 187 278 229 Z M407 158 Q414 115 436 105 Q442 101 451 97 Q523 96 576 150 L541 16 Q499 -11 451 -11 Q361 -11 312 56 Q242 -10 163 -10 Q127 -10 96 5 Q2 51 2 181 Q2 251 35 318 Q70 391 130 434.5 Q190 478 252 478 Q332 478 378 411 Q450 475 529 475 Q564 475 594 461 Q673 434 673 341 Q673 324 670 310 Q656 247 594 199 Q532 151 459 151 Q432 151 407 158 Z M415 245 Q434 241 453 241 Q503 241 535 265 Q568 294 568 323 Q568 339 556 354 Q544 369 528 369 Q493 369 457 323 Q427 285 415 245 Z " />
<glyph glyph-name="endash" unicode="&#x2013;" horiz-adv-x="373" d="M25 192 L60 326 L348 326 L313 192 L25 192 Z " />
<glyph glyph-name="emdash" unicode="&#x2014;" horiz-adv-x="473" d="M25 192 L60 326 L448 326 L413 192 L25 192 Z " />
<glyph glyph-name="quotedblleft" unicode="&#x201c;" horiz-adv-x="458" d="M290 487 Q256 490 234 511 Q212 532 216 565 Q218 581 225 594 L224 596 L333 746 L387 744 L342 654 Q374 651 394 629.5 Q414 608 411 577 Q406 537 368.5 510.5 Q331 484 290 487 Z M65 487 Q31 490 9 511 Q-13 532 -9 565 Q-7 581 0 594 L-1 596 L108 746 L162 744 L117 654 Q149 651 169 629.5 Q189 608 186 577 Q181 537 143.5 510.5 Q106 484 65 487 Z " />
<glyph glyph-name="quotedblright" unicode="&#x201d;" horiz-adv-x="423" d="M213 766 Q247 764 269 742.5 Q291 721 287 689 Q285 673 278 659 L279 657 L170 508 L116 509 L161 599 Q129 602 109 623.5 Q89 645 92 676 Q97 716 134.5 742.5 Q172 769 213 766 Z M438 766 Q472 764 494 742.5 Q516 721 512 689 Q510 673 503 659 L504 657 L395 508 L341 509 L386 599 Q354 602 334 623.5 Q314 645 317 676 Q322 716 359.5 742.5 Q397 769 438 766 Z " />
<glyph glyph-name="quoteleft" unicode="&#x2018;" horiz-adv-x="223" d="M110 487 Q76 490 54 511 Q32 532 36 565 Q38 581 45 594 L44 596 L153 746 L207 744 L162 654 Q194 651 214 629.5 Q234 608 231 577 Q226 537 188.5 510.5 Q151 484 110 487 Z " />
<glyph glyph-name="quoteright" unicode="&#x2019;" horiz-adv-x="223" d="M213 766 Q247 764 269 742.5 Q291 721 287 689 Q285 673 278 659 L279 657 L170 508 L116 509 L161 599 Q129 602 109 623.5 Q89 645 92 676 Q97 716 134.5 742.5 Q172 769 213 766 Z " />
<glyph glyph-name="ydieresis" unicode="&#xff;" horiz-adv-x="443" d="M221 0 Q178 -70 163 -90 Q132 -131 87 -162 Q28 -203 -28 -203 Q-113 -199 -112 -149 L-47 -59 Q-46 -79 -18 -78 Q29 -74 83 0 L37 474 L175 474 L202 196 L372 473 L510 473 L221 0 Z M185 532 Q155 531 133 546 Q111 561 111 583 Q111 606 133 622.5 Q155 639 185 640 Q216 641 237.5 626 Q259 611 259 589 Q259 566 237.5 549.5 Q216 533 185 532 Z M388 532 Q357 531 335.5 546 Q314 561 314 583 Q314 606 335.5 622.5 Q357 639 388 640 Q418 641 440 626 Q462 611 462 589 Q462 566 440 549.5 Q418 533 388 532 Z " />
<glyph glyph-name="Ydieresis" unicode="&#x178;" horiz-adv-x="461" d="M647 750 L348 363 L252 0 L114 0 L210 367 L136 637 Q84 585 -3 585 Q-22 585 -43 588 L-18 684 Q-5 682 7 682 Q72 682 105 750 L261 750 L316 549 L471 750 L647 750 Z M280 782 Q250 781 228 796 Q206 811 206 833 Q206 856 228 872.5 Q250 889 280 890 Q311 891 332.5 876 Q354 861 354 839 Q354 816 332.5 799.5 Q311 783 280 782 Z M483 782 Q452 781 430.5 796 Q409 811 409 833 Q409 856 430.5 872.5 Q452 889 483 890 Q513 891 535 876 Q557 861 557 839 Q557 816 535 799.5 Q513 783 483 782 Z " />
<glyph glyph-name="currency" unicode="&#xa4;" horiz-adv-x="431" d="M-97 320 L-22 320 Q-19 345 -14 370 L-82 370 L-54 474 L18 474 Q33 510 52 543 Q67 540 81 540 Q161 540 204 626 Q165 580 69 580 Q50 580 29 582 L54 678 Q144 675 193 705 Q277 765 360 765 Q465 765 528 674 L497 556 Q485 575 470 589 Q436 623 398 624 Q386 627 373 627 Q275 627 203 474 L275 474 L245 370 L165 370 Q158 345 155 320 L232 320 L202 216 L153 216 Q163 139 201 119 Q210 114 230 109 Q319 108 398 177 L359 28 Q278 -28 198 -28 Q146 -28 102 -4 Q-6 56 -23 216 L-124 216 L-97 320 Z " />
<glyph glyph-name="guilsinglleft" unicode="&#x2039;" horiz-adv-x="317" d="M188 -6 L173 218 L298 415 L203 417 L20 217 L92 -6 L188 -6 Z " />
<glyph glyph-name="guilsinglright" unicode="&#x203a;" horiz-adv-x="335" d="M-21 -6 L114 218 L94 415 L190 417 L266 217 L75 -6 L-21 -6 Z " />
<glyph glyph-name="&amp;#xb7;" unicode="&#xb7;" horiz-adv-x="181" d="M94 201 Q60 200 36 216.5 Q12 233 12 258 Q12 283 36 301.5 Q60 320 94 321 Q128 322 152 305.5 Q176 289 176 264 Q176 239 152 220.5 Q128 202 94 201 Z " />
<glyph glyph-name="&amp;#x2219;" unicode="&#x2219;" horiz-adv-x="181" d="M94 201 Q60 200 36 216.5 Q12 233 12 258 Q12 283 36 301.5 Q60 320 94 321 Q128 322 152 305.5 Q176 289 176 264 Q176 239 152 220.5 Q128 202 94 201 Z " />
<glyph glyph-name="quotesinglbase" unicode="&#x201a;" horiz-adv-x="273" d="M229 37 L120 -113 L66 -111 L111 -21 Q79 -18 59 3.5 Q39 25 42 56 Q47 96 84.5 122.5 Q122 149 163 146 Q197 144 219 122.5 Q241 101 237 69 Q235 53 228 39 L229 37 Z " />
<glyph glyph-name="quotedblbase" unicode="&#x201e;" horiz-adv-x="473" d="M163 146 Q197 144 219 122.5 Q241 101 237 69 Q235 53 228 39 L229 37 L120 -112 L66 -111 L111 -21 Q79 -18 59 3.5 Q39 25 42 56 Q47 96 84.5 122.5 Q122 149 163 146 Z M388 146 Q422 144 444 122.5 Q466 101 462 69 Q460 53 453 39 L454 37 L345 -112 L291 -111 L336 -21 Q304 -18 284 3.5 Q264 25 267 56 Q272 96 309.5 122.5 Q347 149 388 146 Z " />
<glyph glyph-name="Acircumflex" unicode="&#xc2;" horiz-adv-x="541" d="M222 192 L317 192 L317 357 L222 192 Z M317 89 L163 89 L112 0 L-25 0 L306 559 Q359 583 381 634 Q330 587 260 587 Q246 587 232 590 L258 686 Q274 683 289 683 Q367 683 418 748 L472 839 L472 0 L317 0 L317 89 Z M544 788 L408 838 L264 789 L287 853 L436 939 L561 852 L544 788 Z " />
<glyph glyph-name="Ecircumflex" unicode="&#xca;" horiz-adv-x="438" d="M405 370 L228 370 L159 104 L411 104 L381 0 L-17 0 L141 606 Q107 586 61 586 Q46 586 30 588 L55 684 Q68 682 80 682 Q145 682 179 750 L571 750 L541 647 L300 647 L256 474 L435 474 L405 370 Z M504 788 L368 838 L224 789 L247 853 L396 939 L521 852 L504 788 Z " />
<glyph glyph-name="Aacute" unicode="&#xc1;" horiz-adv-x="541" d="M222 192 L317 192 L317 357 L222 192 Z M317 89 L163 89 L112 0 L-25 0 L306 559 Q359 583 381 634 Q330 587 260 587 Q246 587 232 590 L258 686 Q274 683 289 683 Q367 683 418 748 L472 839 L472 0 L317 0 L317 89 Z M356 786 L382 863 L581 924 L550 810 L356 786 Z " />
<glyph glyph-name="Edieresis" unicode="&#xcb;" horiz-adv-x="438" d="M405 370 L228 370 L159 104 L411 104 L381 0 L-17 0 L141 606 Q107 586 61 586 Q46 586 30 588 L55 684 Q68 682 80 682 Q145 682 179 750 L571 750 L541 647 L300 647 L256 474 L435 474 L405 370 Z M280 782 Q250 781 228 796 Q206 811 206 833 Q206 856 228 872.5 Q250 889 280 890 Q311 891 332.5 876 Q354 861 354 839 Q354 816 332.5 799.5 Q311 783 280 782 Z M483 782 Q452 781 430.5 796 Q409 811 409 833 Q409 856 430.5 872.5 Q452 889 483 890 Q513 891 535 876 Q557 861 557 839 Q557 816 535 799.5 Q513 783 483 782 Z " />
<glyph glyph-name="Egrave" unicode="&#xc8;" horiz-adv-x="438" d="M405 370 L228 370 L159 104 L411 104 L381 0 L-17 0 L141 606 Q107 586 61 586 Q46 586 30 588 L55 684 Q68 682 80 682 Q145 682 179 750 L571 750 L541 647 L300 647 L256 474 L435 474 L405 370 Z M485 786 L274 816 L302 917 L502 850 L485 786 Z " />
<glyph glyph-name="Iacute" unicode="&#xcd;" horiz-adv-x="321" d="M193 648 Q144 648 103 608 L72 697 Q119 746 207 750 L235 750 L235 750 L264 750 L264 751 L446 751 L416 648 L356 648 L214 103 L279 103 L255 0 L-26 0 L4 103 L66 103 L208 648 L193 648 Z M231 786 L257 863 L456 924 L425 810 L231 786 Z " />
<glyph glyph-name="Icircumflex" unicode="&#xce;" horiz-adv-x="321" d="M193 648 Q144 648 103 608 L72 697 Q119 746 207 750 L235 750 L235 750 L264 750 L264 751 L446 751 L416 648 L356 648 L214 103 L279 103 L255 0 L-26 0 L4 103 L66 103 L208 648 L193 648 Z M459 788 L323 838 L179 789 L202 853 L351 939 L476 852 L459 788 Z " />
<glyph glyph-name="Idieresis" unicode="&#xcf;" horiz-adv-x="321" d="M193 648 Q144 648 103 608 L72 697 Q119 746 207 750 L235 750 L235 750 L264 750 L264 751 L446 751 L416 648 L356 648 L214 103 L279 103 L255 0 L-26 0 L4 103 L66 103 L208 648 L193 648 Z M230 782 Q200 781 178 796 Q156 811 156 833 Q156 856 178 872.5 Q200 889 230 890 Q261 891 282.5 876 Q304 861 304 839 Q304 816 282.5 799.5 Q261 783 230 782 Z M433 782 Q402 781 380.5 796 Q359 811 359 833 Q359 856 380.5 872.5 Q402 889 433 890 Q463 891 485 876 Q507 861 507 839 Q507 816 485 799.5 Q463 783 433 782 Z " />
<glyph glyph-name="Igrave" unicode="&#xcc;" horiz-adv-x="321" d="M193 648 Q144 648 103 608 L72 697 Q119 746 207 750 L235 750 L235 750 L264 750 L264 751 L446 751 L416 648 L356 648 L214 103 L279 103 L255 0 L-26 0 L4 103 L66 103 L208 648 L193 648 Z M425 786 L214 816 L242 917 L442 850 L425 786 Z " />
<glyph glyph-name="Oacute" unicode="&#xd3;" horiz-adv-x="564" d="M399 300 Q437 403 437 494 Q437 545 424 581 Q404 633 362 633 Q317 633 266 575 Q215 517 180 424 Q142 321 142 230 Q142 179 155 143 Q175 91 217 91 Q262 91 312.5 149 Q363 207 399 300 Z M49 678 Q66 676 83 676 Q141 676 175 701 Q262 770 350 770 Q402 770 448 745 Q514 709 550.5 632 Q587 555 587 457 Q587 341 537 229 Q484 109 395 37 Q306 -35 214 -35 Q162 -35 117 -10 Q51 26 14.5 103 Q-22 180 -22 278 Q-22 394 28 506 L50 544 Q65 540 79 540 Q156 540 199 626 Q160 580 64 580 Q45 580 24 582 L49 678 Z M281 786 L307 863 L506 924 L475 810 L281 786 Z " />
<glyph glyph-name="Ocircumflex" unicode="&#xd4;" horiz-adv-x="564" d="M399 300 Q437 403 437 494 Q437 545 424 581 Q404 633 362 633 Q317 633 266 575 Q215 517 180 424 Q142 321 142 230 Q142 179 155 143 Q175 91 217 91 Q262 91 312.5 149 Q363 207 399 300 Z M49 678 Q66 676 83 676 Q141 676 175 701 Q262 770 350 770 Q402 770 448 745 Q514 709 550.5 632 Q587 555 587 457 Q587 341 537 229 Q484 109 395 37 Q306 -35 214 -35 Q162 -35 117 -10 Q51 26 14.5 103 Q-22 180 -22 278 Q-22 394 28 506 L50 544 Q65 540 79 540 Q156 540 199 626 Q160 580 64 580 Q45 580 24 582 L49 678 Z M519 788 L383 838 L239 789 L262 853 L411 939 L536 852 L519 788 Z " />
<glyph glyph-name="Ograve" unicode="&#xd2;" horiz-adv-x="564" d="M399 300 Q437 403 437 494 Q437 545 424 581 Q404 633 362 633 Q317 633 266 575 Q215 517 180 424 Q142 321 142 230 Q142 179 155 143 Q175 91 217 91 Q262 91 312.5 149 Q363 207 399 300 Z M49 678 Q66 676 83 676 Q141 676 175 701 Q262 770 350 770 Q402 770 448 745 Q514 709 550.5 632 Q587 555 587 457 Q587 341 537 229 Q484 109 395 37 Q306 -35 214 -35 Q162 -35 117 -10 Q51 26 14.5 103 Q-22 180 -22 278 Q-22 394 28 506 L50 544 Q65 540 79 540 Q156 540 199 626 Q160 580 64 580 Q45 580 24 582 L49 678 Z M495 786 L284 816 L312 917 L512 850 L495 786 Z " />
<glyph glyph-name="Uacute" unicode="&#xda;" horiz-adv-x="469" d="M150 123 Q171 109 193 109 Q213 109 229 120 Q256 142 268 163.5 Q280 185 293 235 L428 750 L576 750 L442 235 Q414 128 360 57 Q332 28 280.5 9.5 Q229 -9 173 -9 Q128 -9 90 4 Q-16 29 -16 147 Q-16 179 -9 207 L71 472 L106 607 Q71 586 25 586 Q10 586 -6 588 L19 684 Q32 682 44 682 Q109 682 143 750 L291 750 L219 472 L142 202 Q138 180 138 164 Q138 129 150 123 Z M266 786 L292 863 L491 924 L460 810 L266 786 Z " />
<glyph glyph-name="Ucircumflex" unicode="&#xdb;" horiz-adv-x="469" d="M150 123 Q171 109 193 109 Q213 109 229 120 Q256 142 268 163.5 Q280 185 293 235 L428 750 L576 750 L442 235 Q414 128 360 57 Q332 28 280.5 9.5 Q229 -9 173 -9 Q128 -9 90 4 Q-16 29 -16 147 Q-16 179 -9 207 L71 472 L106 607 Q71 586 25 586 Q10 586 -6 588 L19 684 Q32 682 44 682 Q109 682 143 750 L291 750 L219 472 L142 202 Q138 180 138 164 Q138 129 150 123 Z M494 788 L358 838 L214 789 L237 853 L386 939 L511 852 L494 788 Z " />
<glyph glyph-name="Ugrave" unicode="&#xd9;" horiz-adv-x="469" d="M150 123 Q171 109 193 109 Q213 109 229 120 Q256 142 268 163.5 Q280 185 293 235 L428 750 L576 750 L442 235 Q414 128 360 57 Q332 28 280.5 9.5 Q229 -9 173 -9 Q128 -9 90 4 Q-16 29 -16 147 Q-16 179 -9 207 L71 472 L106 607 Q71 586 25 586 Q10 586 -6 588 L19 684 Q32 682 44 682 Q109 682 143 750 L291 750 L219 472 L142 202 Q138 180 138 164 Q138 129 150 123 Z M480 786 L269 816 L297 917 L497 850 L480 786 Z " />
<glyph glyph-name="circumflex" unicode="&#x2c6;" horiz-adv-x="264" d="M494 538 L358 588 L214 539 L237 603 L386 689 L511 602 L494 538 Z " />
<glyph glyph-name="tilde" unicode="&#x2dc;" horiz-adv-x="478" d="M383 540 Q355 524 322 524 Q300 524 260 539 Q220 554 199 554 Q155 554 123 516 L157 610 Q192 641 234 641 Q264 641 298.5 625 Q333 609 348 609 Q382 609 414 645 L383 540 Z " />
<glyph glyph-name="cedilla" unicode="&#xb8;" horiz-adv-x="395" d="M206 14 L115 -117 L54 -115 L118 14 L206 14 Z " />
<glyph glyph-name="Scaron" unicode="&#x160;" horiz-adv-x="479" d="M364 762 Q410 762 472 745 Q529 729 551 713 L514 574 Q439 626 331 627 Q305 628 277 610 Q243 589 236 554 Q226 505 301 463 Q387 414 420 374 Q469 316 463 230 Q457 130 367 54 Q295 -7 183 -7 Q122 -7 58 14 Q29 22 -24 41 L13 181 Q97 135 188 135 Q237 135 271 155 Q312 180 312 225 Q312 289 248 325 L170 370 Q143 386 134 395 Q88 445 88 498 Q88 517 93 540 Q127 543 161 570 Q193 594 211 626 Q172 580 77 580 Q57 580 36 582 L61 678 Q79 676 95 676 Q153 676 187 701 Q268 762 364 762 Z M266 939 L402 889 L546 938 L523 874 L374 788 L249 875 L266 939 Z " />
<glyph glyph-name="scaron" unicode="&#x161;" horiz-adv-x="367" d="M361 339 Q304 380 227 380 Q210 380 193 369 Q176 358 176 342 Q176 326 219 304 Q279 274 299 258 Q341 223 341 174 Q341 89 284 37.5 Q227 -14 141 -14 Q112 -14 59 -2 Q1 10 -16 23 L12 134 Q67 102 144 102 Q210 102 210 139 Q210 167 170.5 189 Q131 211 92 232 Q51 263 51 310 Q51 387 111 439 Q168 488 246 488 Q335 488 389 451 L361 339 Z M161 689 L297 639 L441 688 L418 624 L269 538 L144 625 L161 689 Z " />
<glyph glyph-name="Eth" unicode="&#xd0;" horiz-adv-x="583" d="M283 474 L344 474 L314 370 L256 370 L190 121 Q201 119 211 119 Q298 119 364 248 Q391 301 412 376 Q430 453 430 507 Q430 629 323 630 L283 474 Z M65 474 L124 474 L159 606 Q124 586 78 586 Q63 586 47 588 L72 684 Q85 682 97 682 Q162 682 196 750 L196 749 L196 750 L354 750 Q488 750 548 665 Q593 601 593 496 Q593 439 581 382 Q538 196 442 99 Q370 27 272 7 Q237 0 159 0 L0 0 L97 370 L37 370 L65 474 Z " />
<glyph glyph-name="eth" unicode="&#xf0;" horiz-adv-x="433" d="M184 109 Q201 109 224.5 137 Q248 165 260 204 Q270 228 285 273 Q289 291 289 306 Q289 362 247 362 Q207 362 173 306 Q146 263 137 216 Q133 198 133 181 Q133 147 148 128 Q163 109 184 109 Z M235 531 L292 589 Q271 596 245 591 Q196 582 147 536 L179 640 Q195 653 210.5 665 Q226 677 243 684 Q273 696 304 696 Q344 696 381 677 L445 741 L487 695 L431 639 Q473 594 473 520 Q472 481 469 469 L406 240 Q372 115 294 38 Q268 17 229 2 Q186 -14 156 -10 Q1 6 1 167 Q1 263 56 347.5 Q111 432 200 463 Q225 472 248 472 Q293 472 324 440 L343 515 Q346 527 338 546 L279 487 L235 531 Z " />
<glyph glyph-name="Yacute" unicode="&#xdd;" horiz-adv-x="461" d="M647 750 L348 363 L252 0 L114 0 L210 367 L136 637 Q84 585 -3 585 Q-22 585 -43 588 L-18 684 Q-5 682 7 682 Q72 682 105 750 L261 750 L316 549 L471 750 L647 750 Z M281 786 L307 863 L506 924 L475 810 L281 786 Z " />
<glyph glyph-name="yacute" unicode="&#xfd;" horiz-adv-x="443" d="M221 0 Q178 -70 163 -90 Q132 -131 87 -162 Q28 -203 -28 -203 Q-113 -199 -112 -149 L-47 -59 Q-46 -79 -18 -78 Q29 -74 83 0 L37 474 L175 474 L202 196 L372 473 L510 473 L221 0 Z M196 536 L222 613 L421 674 L390 560 L196 536 Z " />
<glyph glyph-name="Thorn" unicode="&#xde;" horiz-adv-x="482" d="M286 586 Q438 584 490 497 Q523 451 523 392 Q523 313 458 240 Q400 191 336 174 Q278 157 207 165 L229 256 Q355 244 383 375 Q384 385 384 394 Q384 446 342 469 Q313 484 277 483 Q265 482 259 482 L133 0 L-26 0 L133 606 Q98 586 52 586 Q37 586 22 588 L47 684 Q59 682 72 682 Q136 682 170 750 L330 750 L286 586 Z " />
<glyph glyph-name="thorn" unicode="&#xfe;" horiz-adv-x="449" d="M117 51 L103 -1 L103 -1 L49 -207 L-89 -207 L151 708 L290 708 L217 432 Q270 474 322 473 Q345 473 365 465 Q444 431 444 310 Q444 242 414 173 Q381 95 324.5 46.5 Q268 -2 212 -2 Q151 -2 117 51 Z M275 378 Q251 378 223 347 Q195 316 177 268.5 Q159 221 159 181 Q159 114 198 114 Q222 114 250 145 Q278 176 297 225 Q314 271 314 311 Q314 378 275 378 Z " />
<glyph glyph-name="Lslash" unicode="&#x141;" horiz-adv-x="481" d="M62 437 L129 454 L169 606 Q135 586 89 586 Q74 586 58 588 L83 684 Q96 682 108 682 Q173 682 207 750 L355 750 L288 493 L361 511 L331 407 L261 390 L187 104 L439 104 L409 0 L11 0 L102 350 L35 333 L62 437 Z " />
<glyph glyph-name="lslash" unicode="&#x142;" horiz-adv-x="225" d="M25 437 L96 454 L163 710 L302 710 L244 491 L325 511 L294 407 L217 388 L115 -1 L-23 -1 L69 351 L-2 333 L25 437 Z " />
<glyph glyph-name="Zcaron" unicode="&#x17d;" horiz-adv-x="458" d="M240 650 Q192 650 150 610 L120 700 Q166 749 255 751 L589 750 L203 103 L414 103 L384 0 L-35 0 L354 650 L240 650 Z M266 939 L402 889 L546 938 L523 874 L374 788 L249 875 L266 939 Z " />
<glyph glyph-name="zcaron" unicode="&#x17e;" horiz-adv-x="367" d="M168 104 L324 104 L299 0 L-47 0 L206 371 L40 371 L66 474 L293 474 L293 474 L421 474 L168 104 Z M161 689 L297 639 L441 688 L418 624 L269 538 L144 625 L161 689 Z " />
<glyph glyph-name="fi" unicode="&#xf001;" horiz-adv-x="500" d="M-19 0 L82 369 L24 369 L51 472 L110 472 L120 510 Q143 593 206 649 Q274 708 357 708 Q425 708 477 659 Q529 610 531 542 L455 544 Q449 575 427.5 596 Q406 617 375 617 Q301 617 259 510 L249 472 L325 472 L298 369 L220 369 L119 0 Q102 -65 46 -110 Q-10 -155 -77 -155 Q-140 -155 -173 -110 L-149 -29 Q-127 -63 -94 -63 Q-43 -63 -19 0 Z M511 472 L387 -2 L249 -2 L373 472 L511 472 Z " />
<glyph glyph-name="fl" unicode="&#xf002;" horiz-adv-x="521" d="M455 -73 Q482 -74 497 -54 L528 -144 Q481 -194 393 -198 Q335 -198 297 -157 Q266 -123 265 -85 Q265 -93 274 -2 L430 593 Q409 612 383 617 Q303 624 259 510 L249 472 L325 472 L298 369 L220 369 L119 0 Q110 -18 96 -48 Q71 -97 22.5 -126 Q-26 -155 -77 -155 Q-140 -155 -173 -110 L-149 -29 Q-127 -63 -94 -63 Q-43 -63 -19 0 L82 369 L24 369 L51 472 L110 472 L120 510 Q127 533 140 560 Q174 630 236 672 Q298 714 361 714 Q414 714 453 682 L460 708 L598 708 L412 -2 Q408 -19 408 -32 Q408 -69 455 -73 Z " />
<glyph glyph-name="dotlessi" unicode="&#x131;" horiz-adv-x="230" d="M241 472 L117 -2 L-21 -2 L103 472 L241 472 Z " />
<glyph glyph-name="ring" unicode="&#x2da;" horiz-adv-x="478" d="M387 598 Q383 562 348 537 Q313 512 268 512 Q224 512 195 537 Q166 562 171 598 Q175 634 210 659 Q245 684 290 684 Q334 684 363 659 Q392 634 387 598 Z M285 626 Q245 626 242 598 Q240 587 250.5 578.5 Q261 570 277 570 Q317 570 320 598 Q322 609 311.5 617.5 Q301 626 285 626 Z " />
<glyph glyph-name="caron" unicode="&#x2c7;" horiz-adv-x="264" d="M231 689 L367 639 L511 688 L488 624 L339 538 L214 625 L231 689 Z " />
</font>
</svg>
